<mxfile host="Electron" agent="Mozilla/5.0 (Windows NT 10.0; Win64; x64) AppleWebKit/537.36 (KHTML, like Gecko) draw.io/24.7.8 Chrome/128.0.6613.36 Electron/32.0.1 Safari/537.36" version="24.7.8">
  <diagram id="wFE0QG_FPsp0jaGvCLVb" name="Page-1">
    <mxGraphModel dx="1098" dy="804" grid="0" gridSize="10" guides="1" tooltips="1" connect="1" arrows="0" fold="1" page="1" pageScale="1" pageWidth="850" pageHeight="1100" math="0" shadow="0">
      <root>
        <mxCell id="0" />
        <mxCell id="1" parent="0" />
        <mxCell id="bXhEvjdw58ReICiHxhLh-1" value="&lt;font style=&quot;font-size: 15px;&quot;&gt;初期表示&lt;/font&gt;" style="text;html=1;align=center;verticalAlign=middle;resizable=0;points=[];autosize=1;strokeColor=none;fillColor=none;container=1;" vertex="1" parent="1">
          <mxGeometry x="30" y="70" width="80" height="30" as="geometry" />
        </mxCell>
        <mxCell id="bXhEvjdw58ReICiHxhLh-6" value="" style="shape=image;verticalLabelPosition=bottom;labelBackgroundColor=default;verticalAlign=top;aspect=fixed;imageAspect=0;image=data:image/png,iVBORw0KGgoAAAANSUhEUgAAAv8AAAIGCAYAAADDZuDzAAAAAXNSR0IArs4c6QAAAARnQU1BAACxjwv8YQUAAAAJcEhZcwAADsMAAA7DAcdvqGQAAEZASURBVHhe7d1fjBzXfeD734gSKdkIw2AtORs7ThRPm0tZRB5iQJmZG8CGgQAzIpB5MAbI3QsyD1Q3FnbM4aWJJAb5NISTBc3MEImxmBEfQiKBF0Qe+EBNA4tr2EAuZyJAeQiGJi11x4rt1W683iSUc2VJpMi+53fqVHd1T1VXdXf1dHWf70cq1p9Tp/6cc6r619VVNVPPlUoNmZoS9ZjpmRHTD8aDfw0zrsP6r0uyHpt6zA2ZNM2sfZdrKlxGNIMTTms0Gs2+TgvH1aPGo2DATNLpYdqjR49aw5F5dLoddPOG8yg7rjPp8KP29Gi+bsL8TZHRMG/WvmouL+xlyRMZVp3ju5gyfeyxx0yn9faYLeMpM6511Vkvuj1h3dmlmmXbvpnUth43rNOCTucPhqPT3Ugw7qa7SXb+UDSfXZkKN832g5Fw20Idm9+uI61bG1S70u1oMK0tpTkSppk2G9mXJHHzNMvIiA6rbmlKJzX0OND/zEh752boR9dCNTqTU2Zvk7bsBLbNmv/0nGT/074d1vOPW6but+3b/82oOy8YwXzmGAjzaafHgEuzZabnBD0P2Pz6TzCttVzTN10w6Pr6X5AYTLP/638i+8zy9z/+hDzxRNDtf2K/GX/cDj954IB89KMflac/+ow888wzdviZZ56WZ3TcdAeefNIen4/tM9u8z22v9t2wW2Nz3cH/dsRNC/csFI6b/PqfTTL/6HLtuP7bOo8H83b0dbl24XZlrXH9X/uPHgbl9/BhMPwwmNacrm3VjpstNfM0GsHwo4cfyKMPPpCHD+6brG744f2gb7oPzPQHD96XD+7flw8+MN2DB8Gwma4rf/zxx+TxfftM33SmvPaZ/hNmXMvN5rfLMXnMssP+Bx+YdeuG635rMdhdN//Y4SnZZ/JrHew39XTgSe2eDPoHTN9M06Pukdn2hw8f2c8f7R6a/dXPkQcPH8j9++/Le++/L++bToe1/77pPzDbHKxPy9us0Z2XtdOE/U+Ybde2st90B0x70eEDj5vx/Wa67tPjMmX29zGzj7Yz2zllpz8WlK3ZPy1b27ed1kNQXg/cttw3ZXn/fTN+/z3b1+1qmP14aPLr9us+PXxk6kH3zXTKfm7Yzww9hvQzxHU6zQ7vMzOZbdH9esz0zTQd36dt3nT7njhgtv+APL7f9U2neXVdH7j1fGC2+9EHDfnAbcM7774rP/uZ6d75mbzz3nvy7jvvNqfZsr3/0JTrA9u/f9+U+fs6/oHcN/Wtx5522gb2aWeHddqUPPnkfnnqQ0/Khz90wPWflA+5TtN0Ht22IF9QN/v0ONS+OX4f12PalL0OP2G6cJqtC12P7r/pT2ld6bJsuewLDhctTHOsNBpa+8Hxq9Memn1+ZOpK+w8/COrC9k2ZaFlovT0w+/jgvtk/rUs9JrRvx3V60ObCdFsepv/wgR5LQfmGZWzr2o1rK9S6Cs+LegzY86SZHsYL+3Tc7pdO0/Fg/x635WPKwezn4zZNjz/TFnWa5rXL0mUE7d0uVftmgl2HaSK6bFtmuh7NY9NM384fzGf+D/K4dN1KpX0z2uyH9NPYCgrbze+mqcigrQDt2X+DZdn6scOtGafCwUjfbon23TJaouNu2M4T1LcVrtdND2YLhoOkyLw6rGlmQvAZEySEee2Y+8elaKIdUuHU1jTdSx3W8jT/Hv7kJxvhh0r4b1igrmcGgoLXf1tpZkCnu3GtLGUrqTlTZNhoTta8TriBOq25sUa4vZ07HXbqketrejitOU/HsprperCZzs6h03XYDDS/SCRw2ZvC5VnhspP6bluiWfrJE6Y1dY530gK3deDKXIfDA0kndmhOMQPNRe+erZkWlGGrCybqsEuzo1q+QV8n2HmD2fRfO6wjQX63srZ1mpGYbbD70ymc1fbDEdOL7Gs43L7/keEwvflPSyuLm8dMcHsQiAyqtjQj2GfHjYTlFp23WZZG3LDtmX903P7XnK7DdrA/HfubKjJ/53rbincQZkH6n34gaHkHna7afViYWeyqwzJww+H2mObu8pglhPltXp0vmMeWn83jyrLZd7NEptlO/7Np4TxB3w3ZYOCAC/5tEGcDIQ0cTPBvAslnnn5GPvLMR+Tpp03Qb74AfOTpj9j+0+ZLgAaYYuIp+6FrPmRtMGHjqWC7w7XY1Wk/GLBaw8F8gXDY5Y+epyP/tedR4TQ33S7cdLbX6tstMedQMQGwDeo1ANVzqp2mx34wrsNmYjBdvxSY4UcakLhAX4PzRyZY1eFHZliDHw3yH5qgXwMc7T/U4N/19VPZBv6me+IJDdjclwANzkzl6peJIPg3fRv8azD0gTwwffuJbvZfBT3zj/5vRjTY228CfQ3CnzB1td8ErfaLgOn2H3jC7sYjDdDMftgvAWHgbDpd332zzRpU39eA2wzboFuDNLPdtszNtoUBjUZBQW/KbHcQUD6+3wT82laeMONu+HET5GtAuc8E//oFZ8p+0Qm+DOh+mwILvlSZbTEbEembfTZlpcGiDRB1e2zwr8FiMC0I+k2Z2+3XfdGgMwg8g/Ix22yPHQ38wmF3LD32uNn+ME0jNTdsOhv873/SbLv58mLK8HEzbPtmXL/IPDTremDWoW3gAw12zbh+GdD1vmsC/vfee19+5vrvvmu+UOmXANO9b7b7PRPoa/B/XwN+U7bvm8BXpz948NAGpXrc6JdBG/RrZ7YrqNcn5CnzxerAU+ZLgAn2NeC3natbDfr1uNPg1gaybtx+GdC60WDXBf822A37NtjX9em+mzIwead0uhu2h4oWpj1ezGeG7Qds+Zv9D+pBy0P7QfvSfhDg676Ztqt9F9x/YMa1LnX4fdsPvgTcN+XyQOvYBv9a/7ocHQ7ap/a1rPWYD/5zdWkPCTOs/+m+aDvVVC1PHTZdM/jXca3jsGxNPlvWZlowr7brYB4z6MpB0800M58t4zCPzqtpptPt0HnNYNC3w7o9Ol23TLfRHqpWOB4IS9T03WCQpCNuQmSWcCScZOe157jW8pVdRziTMsN2S2w/mqAi4+GgXaaeG+2IG9deOINqn6eZZvq2pej/dlowPRy2Y5HpqhkTq+Zw2Ne9CS7y2nL8D4cPN+eO7nTITmuVcNs8WlmhpOFojujkoCojdFS3JJzstsrtYlOwP61p8eMqflo4f1jA2m9Ns5MSJCe28rXPkzRd7Upr9jrmjYzuSuuJK9j2nhloDgU6xjtSrdZWNDc62LbWqPkn3FrXb6aZATdsx6LTY9cWSE5xmjO4ltX6Z9cuBloT49OdmMTmFB1o7kvbYLxWpe+et1leHZLyuOmd02KXMSzRoulccbcy7VnrbGE/qIKh9qpx6+8slfZ53ZjpBUtxc4ezR8u09Y+bHAxrr62UO8cN+yHmPtCCYCT8gNMPzH0m8HhSnnxKrzY+JU/Zvo4Hw0EAYRfS3Ob2cbclrX861q7cjLsEex1Nt1PaZu/Ma8Yj67Ki4+Gwtj0tqGank+0/kWlaUuGwJgUXXoILMOGwBrG6rCAgshdr3JcGm2a/NDyyZREEBS5AMBNs0GGHddHBBZ1g2a1hDdiDT3O3nx27a5dj6ysIbmzwExkPlqXbF3a6O8GwriMInoO+Deh0nTquX4LMyux26z86rF/qdAPM/8EXAg2S3H60jWu+YNi2f52mywj7WqrBhnR0ul6T5oJJu03NbQuGg+028zTLKViWjlu6Pt3A6LD9X/8x/9r1B4Fba9xslwa/Wna2/CJ9274fM+s36wrXaeu7NW4DVPcFJBoI2/HosBsPA2Zdji0f04VtIiyzsDyDOg2+5IXBpw1AzXCY1/wf5AmXYcaDADYcD+onGO/Y986+llOEqZU2ZneD8o52+j3ZDYf1FNSf6+y+Bvuvw2E5BdN0PBi2x4CWreaxy9X8wXLbN8RsqxsKh+1+2tFgP5rTbGcT3PRg3JZHc9xMsOPhcoJpzXHThfM382nXMZ8OmH+baVZ7z9odhKvItOZg3HzdhetpnjLsIoKprW2IWa6WcUQwZv5tmxwZaSa1zRDUVShpmVGReTpSAiY9nD5lFh47DwAAAIDJEvwGDAAAAGDiEfwDAAAAniD4BwAAADxB8A8AAAB4guAfAAAA8ATBPwAAAOCJnl71+e6777qhZE899ZQbAgAAAFAkPQf/x44dc2O73bx5k+AfAAAAKChu+wEAAMBEaP7V4JSuaHSb/u7v/s6N7aZpeW33ngf/9eplqcyFhT8nlWq9OX0unD5XkctmcrUyZdJtckRdLs/N2fQ9VzfbOFWRXZs0clWpFHK7AAAA9pbe1NKtK6LXXntNZub+j9gvADpN03SePCQG/3qLT2c3qHq1IicuiCxeDSvgqiy+8YrUTVB9YuGOnAunX10UeaUu84tl2bjREdLWX5HrsiQvTrvxIWv7AjJ9Sm411mXejeYh/gsOAAAAfPEbv/Ebsn3r/931BSAM/DVN58lD1yv/en9/tBtMVS4uiJy7dUrmm4H7tMyfOiXTtTuyNfuclMLp0/Ny6pQZmV+U8saNtiva9Veuiyy9aHICAAAAk6HzC8AwAn+1d7f9VG/IRnkx/qq5Bvlby3LiclXa7+aZl8XyhrQu/tcliP1jQv+63k40J3O2C2+BCW6HuXx5zt5iZG8VqlbcPNH56maymzY1JXP2UnxdLptpCxsiGwtmeuWyztV+e01kndFbmFrrDdYVpLmkprjl6+SkZRrd0gAAADDWol8AhhH4qz0L/utv3JbZ50purNO8rDdqcu7OBSl1BLVtt/4k3vJjgu0Td2Tx6i25dUu76K05GybPVWk0bskpuSxzF56Tq3Ye050TWbBR+bTMr7tpZjuWbl8wXxSm5ZSZtlkWKW+a6eun2n9tMIH4XKm1zkZDF3Yi8izChtz51HqQVluS2xdccN8Us/xuy0xdHwAAQH6C5zPTO4yXnoN/fZ1nUtfN9Keel607NTcWJwjAGzUT1F4oyVwY1UZu/Um85ad6Q24vnY3cThRVlnN6C5HS24u2rssJd/V87oL5QiJv2KBcn0ew0+ZOyPLWlnTdVKXL0l8ymuucl7NrItdfCaPxsiyG30CmPyXPb92RtEV2XWbq+gAAAPITfUi2W4f8RG/1id4ClKeeg//O5wDCZwH0/f5d3/Ffek5mO+7fjzU9L+vnyrJ1/RV3pTy89Sf5lh/9VSGz8rngCn/Y6RV3E/iXbiw2fxHQq/FZJP+S0b9uyxzG+gAAADB6nff4dz4DkJe9u+d/+pScM0H8wlzn7S9G9bJcjtzqY4P55z/VvMJvb/25cCLxLT/TLy6JXL8oqbfAh19AOuYLb0kKFl2VGxt2oDuzLFmOrrMqF5OeR8iq2zKHsT4AAACMXNLDvcP4AtA1+O/ltp4s5tcbUlu6IyfsPWL60Krp65eB+RdFbpxo3jt24s6S1NYjjwbbB4K35PlzHffdh/QVnPZuIV3enFSSboQ3813dDOYLbvGZM186dPI5ef56yeadq7whz0Wu/OsXj9sL+hBwx5cWXacu64S7hWjugr7KSMI7jLJqW363Zea0PgAAgEkWxpNJXRF95jOf2RX4h8IvADpPHqYaPdys1e1d/11v+QEAAAAwcj0F/wAAAADG197d8w8AAABgpAj+AQAAAE8Q/AMAAACeIPgHAAAAPEHwDwAAAHiC4B8AAADwBME/AAAA4AmCfwAAAMATBP8AAACAJ6bu3bvHX/gFAAAAPMCVfwAAAMATBP8AAACAJwj+AQAAAE8Q/AMAAACeIPgHAAAAPEHwDwAAAHiC4B8AAADwBME/AAAA4AmCfwAAAMATBP8AAACAJ6bu3bvXcMOxDv3J/3RDGKV7f/jv3VA23/rWt9wQRunzn/+8G8qGeiuGXusNAHzGZ1cxZP3sIvgfE/0E/5/5zGfcGEbhtdde6yv4p95Gq596AwCf8dk1er18dmUP/v/kiPzgBz+QX/mVX6G/l/3/8jNb/AT/44fgfzwR/ANAb/jsGr2hBP8/+E8fkjc/8Qk7jL3x2akpkT+8a4cHCf6pt7317A9/aPuDBv/U294apN4AwGfRz65PvMln11764bO9f3ZlfuBXr0Rjb+mVfwAAACAvmYN/AtG9xxcuAAAA5Ikr/wXGFy4AAADkiSv/BcYXLgAAAOSJK/8FxhcuAAAA5GmEV/7r8tdzc/LXdTcqVfn61JR8vepGLZ1nSr54uTlTnzrXFdo9/a3qZfm6Wae+aeezU3NmezQxPv9bl+dy2LZkxf7CNW71Z8bNvF90Xft2TrLR11P7cZJUF7pdFXnVztPyaiXYVu13bl+YBgCYdHW5/MU5ufyWG81V92XXX70slS9OydRntZuTyqvBZ5FOnwunf7Fi81e/PmXSbXLEMLe9P4W58v9q5YK8uVaTr8y7Car+inxbZkWuvyJxZfZW3QQMJpDoDACSpqd5q1qRr10Q+a2rDflOQ7ur8ltvxK97L4zTlf+86u/VypwN2m1gWLncU9l3r79Z+dLVW/KNW0HXtp0eyfM4s0yZfzYmaO+u97p44exa+/bVL8u122vyu57WIwBg+OqvVuTENZHFrzak8R3trsrij16R+luX5cQf3JFz4fSvLops12X+t8qy8TedQekrcl2W5MWPufECKMQ9/3pl8Jqck2+cmnZTAm+9cl1k6aocf35ZvtlRlhokfvMVkV993k1wkqanq8o3F0SO3zolLzQ3Y1peOHVKRlVf43KrVX71V5UfPXfVBO1BUHhcluVrma9GF6/+iibP4yxgvhRcuC2fdmNDNf2ifM60h3D7Xr24LM+eo24BAMNSlYt/IHLuG6dkvvlhMy3zXzgl0//9jmx9+jkphdM/Ni+nvmA+W19YlPLNGyZnS33bfMZ+7kWTszhGf+X/lYp87fqSfHW98xJeXYLympaPPzcrN2+0RyUvrN+Sr5yal19246Gk6amqN+RmeVFecKNFMBZX/nOtv3n5QiQw1XyZFbD+CiXn40zprwi/evWcPOvGh2tavnCu7LavKn+zUZbf4qo/AOAtvS1nTuZMF70tRz/fql8Pps99dkrm2m8zCKZp2tdfkTtucptXb8jGsUUTmcTQIP+7y3Lir6tmLVHzsnhsQ240fw6vyyvfFlmaKVLoP/Ir/1vy58u346/gVS/Kn8uSaHl97MUl+fTGjR5vLejNW2/clk8/V3Jjccy2nmjdp6zd15a3XNpwFP/K/zDrryrfdEFpFr3VXyXm+YFJln892V8RnrsqeqGjXZbjpM+6mD8rX7p9Qb5ub106yxc9APCdCfzn/uMdWfzqLbn1jVvS+M45kT844e6vn5b5rwTTb32nJktvXgimax69ov+dRpD2uyK3v6vzt6v/6LbM/mpSXDEv62aZ5/7xgpTavnCYlOitPwW85UeN+Mr/rHxpc0nevBDzoN+NDfn00otBsKI/+c9uSOdtVHn62Keel+/eqbmxOO33KWv31bUerkz3ofhX/odUf/Yec72qfCsmuIzXW/2tZ17uZMi3nuyzFXd23z4UyHKc9FIXs9I6907LzJLIzY3n5XjsugEAXtHbb/TqfDO4npezXxK5vh0E43rPvr26/8UTsvzdLbnz383EMI+dw/jYi7IUc//q9C8/L1v/2C2uCL5cNP7KfOG4VpK58EpW5NafIt7yo0Z/z3/plHxDy20u+nCn/qwv8t3lkntrS0n+fMt86HfckpCr0nND/3WhV2Nxz3/O9aeB5RcvviG/awLDngL0AtZfoeRWT1X55oXbIrcvuCv3C3JTNuQP5np96LdTSX5113fpuvzIrCrK/jox+5x83I0DAPyWeHXeBP6lv1mUq3p133Sbx4LJ3a/oR3z8OZntuH8/1sfmZf14Wba+/Yq7BSi89aeYt/yo0d/zr+bX7cOG/7Hiiljv355dk7+yb2xxXW1tuMHd9Ck5XtYgprc3zAzTWNzzr/Kqv/pl+dqF5+Sr6308yFnA+iucXOppXr4Suar/jVubckzK8p9vrQ94G860/PLzt+Va9AFv+xai4JYkAAB2MQG6/PlFqTY/+Kty0QXcYZAffIRU5cZNOyDT+hOy5glGzZeEi3I95rYf+dgpOWeC+IUvXu64r9949bJcjtzqo+uSZz/VvMJvb/25dqKQt/yo0V/5d15Yr8mXbi/Yd3m33YoQcsFdW3DQk/Z7kb8es5wX1hvyV0t35GvuHfH2augIg8mxuPLv5FJ/tTvy3a1l+ZqrI9s1X/c5fvVXRMM/zvr3wvpV+dydE626P3FHjl/ljT4AALUly19zD/CarqK32ZgA/dZ/FrnQnH5BX/snp8wHx/QXzsnz3y7JlH2o9w15zl351zxXv2TyuAd+Kz9ajL3tR81/pSG1z92RE+4d/8E7/c2XgRdeFPmbE8G46U7845LUou+ttg8Eb8nzx08V7pYfNXXv3r2GG4516E/+ZzDwJ0fslUHsnWd/+EP5lf/yMzt87w//ve1n9a1vfUs+85nP2OE3P/EJ28fe0HpTr732mnz+85+3w1lRb6MzSL0BgM+in12feJPPrr30w2d7/+wqzJV/7DZOV/4BAABQfMW45x+x+MIFAACAPHHlv8D4wgUAAIA8ceW/wPjCBQAAgDxx5b/A+MIFAACAPHHlv8D4wgUAAIA8ZX7V5w/+04fsFwANSOnvXV/+8K4t/0Fe9YnRGPRVnxgNXvUJAL3hs2v0evnsyv6ef4wUwf/4IfgfTwT/ANAbPrtGj+B/AvUT/GP0+gn+MXoE/wCQHZ9dxZBb8A8AAABgMmR+4BcAAADAeCP4BwAAADxB8A8AAAB4guAfAAAA8ATBPwAAAOAJgn8AAADAEwT/AAAAgCcI/gEAAABPEPwDAAAAniD4BwAAADwxde/evYYb3uXQoUNuCAAAAECRmbjeDSVLDf5PnjzpxgAAAAAU0ZUrV/IL/i9duuSmFM+ZM2cKvX2+oT6KhfooFuqjWKiPYqE+ioX6KJYs9fHzP//z+Qb/Bw8edFOL5aWXXpKXX37ZjWHUqI9ioT6KhfooFuqjWKiPYqE+iiVLfUxNTWUK/nngFwAAAPAEwT8AAADgCYJ/AAAAwBME/wAAAIAnCP4BAAAATxD8AwAAAJ4g+AcAAAA8QfAPAAAAeMLL4L9amZKp2TWpu/GoenVNKrOz9g8lNDszXlmr2nSbd6oiwVinqlR0/kpnat0styKzs5Flmm521iyncyPqdbOOWZmNzBeuP257zcxtyww7XfaaWXgveZL3a0jsdszK2q4yWAv2PyzH2O01ZWTSY/fP8L6O+5FUH6G49H7yhPoqh37bi3aROg3nSWgjalcbil2u2d5dFdwSbWt9qZv2tqutdrSpuHLJWlZR3dJCGZdbX9NtTj6fxB6fmfc1kt7sYtbVa/tKk7TvoUHqIXa/YtpWOF8v7TYi7dzXLsM5LXa7s3z+dCnHrNKW0y19nM494Tq6dbuOpZz2rxdZyyjU5/EZf17uWG+vZay6Laejy/2zdwS48t+kHzxTUlq4LjtHl2Rzc7PZrR49KjvXX7cVPX92VWZkQ1ZijpL62opJKcvm+rybonS5JbPcHZGjq5HlrspRk/p6MFNAD5JSSRY2dNbo+kU2Ti9IKbEhz0g5Mn+w7B05vWDW2/nh2dSZR7uzUnKpo2PKq3RatsubUmsrx/btXS2bSRvdyiSOb3VcYH2XQ6ds7SXoYtr39mk5HlPPyaLLXZXyzLZphiUTpLnkpt1trWfmg2e2tGDa21FZbe6DWadJamtTmSWVVaB+87psz8zIzMZKj0FA9+Vm0tO+ZqjbDO1rdLK02W5ty+i53e5uj60yaZ37WnT+jOe0XM5NcTs5JON27pk+JufbltXqVmd0hhlZvbYs03ZmI7f9y0NCGe3VNvZ8nMTJo30X0L179xpJnUlunDx5svH22283ikq3r1ebZWnIzGqj5sYbZsgcRGZ/y43N1sRENr/O68YDmw3zQdWYWY0uoJflBvnbtyuittowx3lDyu1rNRtjlj/TaFttKMzTucxueQbUU33s2g5XXhm3t7Y6k7gf3texM1h9dIhL7ydPbuXQW3tp4+Ypl3toQ7HLddvQtq3JbSJ7fSTsW5y47cpaVk1BetlssPbb23hExuUGx2bn8dPSXrYD7usu2dqX2vvjI2FfY5ft5o22LTdfT+02XE7Gc19P83crk8yfP8H61NDrY1zPPXHctrYfq/ntnxrK53m/2+hkOi/3U8ZdlhOXP7F9D1GW+tC4PS6e7+y48m/U147L6W3z7bm2LvPNr8/J5tc3pdx5Zbh6w14RPr/cWkAvy61W9KpXxzf4qOlluWaOJOnlqpzJs2VauH77vbiHF1b6Va2UTHmVZXMroQw6TB/Wa1DZUMfFkVc59Npe4hw5e97U6LacHrTwdlpXTntta/Fqcnfb9I4e7nvfolLLqnrRpi+aDT62NCPb129muvKWRx3kv68Z29cI9FVekbYV6qXd9toe82m/RsZzU1gme2Fyzj11WTt+WrZnVuVa5PMoz/0bVFIZDeVzMEFu5/c4Gdt3URH8m4Po5nXzyVM+L5FjKMW8nDWNs/UBaQ7EFdOcV8+alFAvy63KjQ3TS5l3ejloyNdv9nBEzC+aPOY4ulHs1qn3CC9suA8cNy1N1RbaUTmcWr7UcXHkUw79tJd487KuJ/CNhfjbK1IFgevM0jH3QdZPW4szL4u2Ugf/AMxSVvZYKi/a9OljSzKzfV3SmmCedZDXvvbSvvZa7+XV2baisrbbXttjXu3XSTk3Rctk+Cbn3NP8gtYWQOe7f4NILqMhfg7GGvT8nmKsPnvbEfzXb4qe62aO9PZN1zbO8Bufu2oWvSLc03Lrr8uO6aXPW5Ij5pjcvltz41kEeeKuHhXGzYqUTm9LeXOr6wnh7s2qVKtBt1YJTi7lzQwnYOq4OPIoh4ztJbP5dQk+HyIP5WWiD6wFz4A020WfbS2O/fVpZltOl6a6PtzeVaayCj6Qy4vuSJo+Jku63m6Xs3Kug1z2VfXQvvZUz+UV07Y6ZWm3vbbHHNtvoMu5Ke/jOM2knHvqa3LcbMPM6rX2bch5//rWrYyG+jmYoO/zexZd2nfBEfw7RzsvH+sDKW1PeHc2nODK8MZKRSq7rgi37FpuF73MO7jgg7a1f6YbylfjNGY7TpvIY2ZVznaN4rftg0ALC0F3emdJNmtb0svzhf7VcT9i2kXY6dNZsXrP0385ZG8vvbTv8DavhdRjILrckizs6AOqu9tFXFvr3bysb9XMB9eMbOvD7VPpb8Jol7Gs3O1sYexvon97649s3Ej4sMxaB73oZV/T63Z4x1nMusOu2/HRc5tNbltRWdttXHvsdu4b/nkqrzbUe32M77lHxd/uEzX8/esm2zKG377a9VbGfiD4d3Ze7/iYiT5hr/efxQiuDG/IRucV4Yhdy+2il3l7tut+2pg3EpzN62pPL2bMB9yqzGyfllLXA1N/QmzoU2FSM1/jdf6VHn8S9K+O+xH3pgrXJZRRP3n6L4fs7aW39h180Uu/9aR9uatHd+T6QmnXh3tcW+vPtPng2pJGTQNjs3k9vQkjS1kFt7PJzBGJlo699cd8WMb/mp21DnqVdV/T63Z4x1l/x0c/bTapbbXL1m7j2mO3c1/u5Rfz+ZNPG+q9Psb33GPYX6DNdiTdL28Mf/+6ybaM4R2fSXoo437k9LzSXiL4nz5sX122++cl80E0Px90iQ+Wup983L2ybRKXGyPzvO4e0J5+kk3Oc+SY27+wmx5R8y25B2c2FmQ2w5E5Pb9uHwjaPn0824HscR33Y1e7SC2jHvLkUQ4Z20uv7Xt6+Zqs6q0nx7sH19HlLptgNdwW+1nXpa0NxGy7DYx1XeaDNfPr69LKyt3mocssRa9U6uv5zOTEe1l7PGZ7kmFfE+u2h/bVr36Oj37a7K62laBru+3SHmO3O3P5ZTX4cZwmc32M/bmnKpUF/QW643afUM7717duZZTHNvYp6/m9N/lv514h+DchXfCwWdJP3P3qZbnZ5g3eMT8jS8eyBxL95BkJE9DXbEBfyvRBED4QlO0pfuq4OHIqhx7bSzbTsnwtuGrV07uhS0fMloaG1dac+bP23d49BWddysq+298cSZu1mtQ6O11RtytlXZYbvIlrR+Iv8NXldb3xN+1qWT/72kP72nP9tNm2tpWkW7vttT3m2357OY6Hb7zPPfYtOV1u98l7/waSWEY5bWNf+jy/dzGc7dwbHgb/wcNt0TcohH/UaSHnP37Ry3JT53UP+fTyFgb964z64E3ilYKCmV7esj/36wkj/VfHbk/xU8dFllc59NZeMnKvmds+fVFuuEmpanftVfLQsNpaILjS1Kv4sgrf7LJor0xOd3b21p/ub9xIrAP7FoyEL+fu14bmA8aJ+tvXzO1rBHpusx1tK1GXdttre8yr/WY9N4VlshfG9txjylIfYSifT77dR+W5f4NKKqPBtnH3Z3tP+jm/JxjHz94oT4L/ulTX1oK3xMwG75ht+6bm3tdq71OzD5oF89purSKzek9sP7ouV//MeqV1VW3XvG4+0+mbbezP8OZbf9Jf0Iy+Ccdus/1rjmZPy5uyldAy2/K4rj7I2T4H8+s1e7VvYyHDnxp3VwY3VvQkQh2PjQHLIapbe+m3fQe/Km3IRkKT6Hzr1Kx+KkcfcEtoE73Rv7Da0Z6q2p7cO7L7eCJvV1nZ+4e7BOFmP87rh3fKO//j6yC8x3bB/Sl8tw/abl39tnah933tWrcZ29eoZG2zsW2ri8R2m9AebRd37us6f8c5zRn03KRlsicyto1inXuC231MYcqiGe5cru3Chee4f3mILaOetzHls71Haef3OIO270KK+8tfYWeS7V8UG/+/8Bv+xUL9a2zl+L/Wpmq1xmZ5JvirbWE3Y8bLqwl/6dAtN+Ev0TXVNhurncsVt1w3S1PcvGYb9C9vxrJ/gS4yr+26bbMRmyfo0nYlTT5/odH9BcDwL4R2+yt7bl/Cv0xq94M6bsqnPpy49H7yhPoqh7hlxbWXyDIjXbMaM223ybPrL0B2LtNs7+pm/F947GhrKnt9mH0yZdG5rtg6j9uXxP1rlVVZ/8JlWGZJOpeTYbnR5dXM/DPhcen2YXd59bqv0fla3a5DNKF9Bf2ynWV0x0eWNhtTVpm2weSN+6ujvZ77spzTEra767mpyz4MvT5CY3TuMXFy23Jiu87Gn9P+DeXzPJR5G1M+2+PW22MZW4nLcetudinte4iy1IduY1w839lN6T9m5liHDh0SszK5dOmSHDx40E0tlpdeeklefvllN4ZRoz6KhfooFuqjAOpVWbu4Yh+opT6KhfooFuqjWLLUh76wwcT1biwZD/wCAPwxHbxJBwB8RfAPAAAAeILgHwAAAPAEwT8AAADgCYJ/AAAAwBME/wAAAIAnCP4BAAAAT2R6zz8AAACA4rpy5Uqm9/xPxB/5uvKRM24Mo3byf1/ij4IUCH+kpVioj2KhPoqF+igW6qNYstQHf+QLAAAAQBuCfwAAAMATBP8AAACAJwj+AQAAAE8Q/AMAAACeIPgHAAAAPEHwDwAAAHii7+D/3Xfflffee08ePXrkphTNAVn7v56Vxh//B9M9K5u/fcBN7/CLB2Xz//6YlN1oy4D57XTNm5LfG3VZq8zad9BOTc1KZa3upodGne6botfHoOlOvSqV2YpU3WhxTdr+jLuM9YG9RfsviMHOV/VqRWZtXpe/2tv5PS1/fa0z3SU0pW3/sNPz1lpfVgNd+f/93/99+Zd/+Rd5+PChm1IcZRO4n5J/lrk/+p5MXf5nkc+ZAPzXXaJ1QMq//TGpnfolmX/aTYoYLL8J/M10+dabMpWY3y/VSklOy3mpNRrSqJ0XOV1qOyBHne6botfHoOl6MqzqB0BpQTa23aQCm7T9GXfp9YG9RfsvksHOV3WpvX5EztdMXpt/SXYWjks0Pu6+/LT8dbkpi3JN00xX2zwqGwvtX0DStn/Y6XmLri+rgYL/73//+/JHf/RH8q//+q8F+wJwUBY//W9S+cufypaO/tNP5cK335f5o62/Ujz7278kZ5+5Lxf/6z+bptJpwPy//nMy/5N/lgt//34wHpPfL1W5sVGWzfV5mdbR6Xk5uzojGzfCo2HU6b4pen0Mmm5O/2vHZeWu+YDYXJUZN624Jm1/xl16fWBv0f6LZNDz1bTMLy/LvM2so8tyvrwt12+GkVTa8tPyT8vyssurY/OLUpYdeb0ZqKUtf9jpeetYX0YD3/OvXwC+/OUvy/e+9z158OCBmzpiNvi+L7fdqNr68X2RZw7IbDj+396U0l/+RDZ+7CZEDZo/Rmd+r1RvyMbMESm5UTV9+KjIzuvBF6dRp/um6PUxaLqOL2/J1rr5gIjOVFSTtj/jLkN9YG/R/gsk9/NVXV7fETl62IWuPR9/Hfnb6C8QK7JTPi/LYXLa8oednreY9WWRywO/P/7xj+0vAG+88Ybcv2+C3CIywXf96f3yvBvtWS/5//7fpPr0v5Nzv+7u8//Fg7L2+Z8LhhEoHZGZ7btSc6O7jDrdN0Wvj0HTx82k7c+4oz6AZIMcH9WLcnq7LIvzbjxOt+XH5a+vuXv+S7Jyd0nOn+22cCNt+4edPgK5BP/qnXfesV8AfvrTnxbjF4D/9X5wy06/Bsr/U1nQ+/w/7x4Y/j9N4H/731yap44e7v6T1KjTfVP0+hg0fdxM2v6MO+oDSJbT8WEf3F3ZkdXaurSF5xmXn5h/elm29H57011bvCsrpdm2ZwpSlz/s9Lz1sb7cgv8Pf/jD8sd//Mdy8OBBeeKJJ9zUEeq8xeaj+2W641aergbN/08/kYU//V7wwO+fviXXZf/gX0jGWedPXrW7sh39qWrU6b4pen0Mmj5uJm1/xh31ASQb+PioS7UyK8dXjsi1ra3WLTmh1OWn5I+Ynl/veCbASFv+sNPz1rm+DHIJ/sPAv1Qqyf79JsgdtZhbdGZN8J45+B40/y4HZOn5A1Ld+akb90zMT1714Ca94NvqqNN9U/T6GDR93Eza/ow76gNIlsPxUa0cl5Uj12Rra3l3ngzL75o/Tdryh52et5j1ZTFw8P9rv/Zr8md/9mdy+PDhYgT+6p9+Ihe/+3NyNny3/i8elHOfE7n8/2QMvgfN30ZfCfpL9rWhF/7eTfKNfRp/Q1bC393qVbl4WmQ1vA9v1Om+KXp9DJo+biZtf8Yd9QEkG/T4qK/JysZROZ90uT5t+Wn5Tfpa5L3/emvQysaMLB1z86ctf9jp9nkEdxtS0nAvOteX0UDBvwb+esX/4x//uDz++ONuajFs/OWb8srz7p77U/9O5L/+D1n+J5eYwWD5D8ha5A98nX3m/5O5P/2Jv7f8GPPrNVm6Xgr+6EVpRWTzWttPdaNO903R62PQ9HEzafsz7qgPINngx8eGLGjeaDe71rx1JX35XfJPHxZZcXlNp9nP19pvDUpb/rDT8xZdX1ZT9+7dS/yrAIcOHZKTJ0/KpUuX7L38UfoXfvUh31/4hV+Qffv2ual776WXXpIrHznjxjBqJ//3JXn55ZfdGEZNjw/qozioj2KhPoqF+igW6qNYstSHfgEwcb0bS9b3lf+nnnpKPvKRj4w08AcAAACQXW5v+wEAAABQbAT/AAAAgCcI/gEAAABPEPwDAAAAnsj8tp8zZ3ijDgAAAFBEV65cyfS2n75f9VkUvIqqWKiPYqE+ioX6KBbqo1ioj2KhPoolS30M/VWfAAAAAMYLwT8AAADgCYJ/AAAAwBME/wAAAIAnCP4BAAAATxD8AwAAAJ4g+AcAAAA8McHBf13WKrP2nadTU7NSWau76R3qVanMVqTqRlsGzG+na96U/N5IK89Rp/um6PUxWHp9rSKzNs2l7z7ACyZtf53E8xXylbE+sLdo/wUx2PmqXu08P/d4fk/Jn37+T9v+YafnrbW+rCY2+K9WSnJazkut0ZBG7bzI6VJHA6hLVRtIaUE2tt2kiMHymwZvpsv5mjQS8/slrTxHne6botfHYOl1uSmLck3TTFfbPCobC8UOGNL2N+18hXyl1wf2Fu2/SAY7X9Wl9voREx4F5+dGbUl2Fo5LND5OO793z59+/k/b/mGn5y26vsz0L/wmdSa5cfLkycbbb79tyrCYdPt222yUpWz+bamtzjSk3Jqi4zPl1cbm5mpjpmPegfNvlhsys9owFdHUmX9S9Vcfo06fXONZH4Omd9L5Zxqr0QNyRIZzvkK/+q0PDEd8fdD+R2WvzlebZWnMNE/QvR9/7fk7dZ7/05Y/7PT+ZakPjdvj4vnObjKv/FdvyMbMESm5UTV9+KjIzuvmO6EbX96SrfVlmY/OFBo0f4zO/F5JK89Rp/um6PUxaHobvQK1Ijvl87I87SYVTYb96fV8gwH01L6wF2j/BZL7+aour++IHD3sTtA9H38d+dvEnP/Tlj/s9LzFrC8Lfx74LR2Rme27UnOjPesl//yilLdPy8XwPrR6VdZWNoJhBNLKc9Tpvil6ffSaXl9z93yWZOXukpw/O+8SxkTa/mJvUR9AskGOj+pFOb1dlsVup+huy4/L3+v5P237h50+ApMb/B89LANd6Bso/7ys11ZFVkrBAx/Hb4gslV2ap9LKc9Tpvil6fQyaPr0sW3q/pemuLd41h+Js2z2lhZO2P9hb1AeQLKfjwz64u7Ijq7V1EzVFZFx+Yv6083/a8oednrc+1je5wX/nTyy1u7Ldy08jg+Y3jW99K2h8ja11OSb2d6m9bRBFklaeo073TdHrY9D0iOn5dTlf3pbrN9tyFEsP+4M9QH0AyQY+PupSrczK8ZUjcm1ra/ctmanLT8kfEXv+T1v+sNPz1rm+DCYz+I/5iaUe3BSWLfgeNP8udbl5fVvKXX/XmmBp5TnqdN8UvT4GTR83k7Y/4476AJLlcHxUK8dl5cg12dpa3p0nw/K75k+Ttvxhp+ctZn2ZxD0FHHYm2T5dPH5v+2m0P/1d06ehE972UYt/Gn3Q/C21xqY+6d3x9p9J1W99jDp9Uo1rfQyUbo7J1c3WzLXNsjlG2/OPyrDOV+jPwPWBXCXVRxPtf08N5XyVoQ7Tzu9d85v0tPN/2vYPNd1uvxtPGk6QpT40bo+L5zu7iQ3+TUk2VmfE7oOYAi1HGkObxIY0SP5oXlMpZT8Cf9V/fYw6fTKNb30Mkr4ZSTPdjDk+O7OPyPDOV+jHwPWBXCXXh0P731NDOV/ZaWHeSNd2gbTL8lPzZzn/p23/ENPt9ucb/LevL1vwP6X/mJljHTp0SMzK5NKlS3Lw4EE3tVheeuklefnll90YRo36KBbqo1ioj2KhPoqF+igW6qNYstSHvmTGxPVuLJk/r/oEAAAAPEfwDwAAAHiC4B8AAADwBME/AAAA4AmCfwAAAMATmd/2c+bMGTcVAAAAQJFcuXIl09t+eNUnckV9FAv1USzUR7FQH8VCfRQL9VEsWeqDV30CAAAAaEPwDwAAAHiC4B8AAADwBME/AAAA4AmCfwAAAMATBP8AAACAJwj+AQAAAE9McPBfl7XKrH3n6dTUrFTW6m56h3pVKrMVqbrRlgHz2+maNyW/N9LKc9TpvhmT+uj7+My4/MIYtDyQr3FrP56g/RfEYOererUiszavy1/t7fydlr++1pnuEprStn/Y6XlrrS+riQ3+q5WSnJbzUms0pFE7L3K61NEA6lLVBlJakI1tNylisPymwZvpcr4mjcT8fkkrz1Gn+6b49THY8Zm+/GIZtDyQr3FrP5OP9l8kg52v6lJ7/YgJj0xem39JdhaOSzQ+7r78tPx1uSmLck3TTFfbPCobC+1fQNK2f9jpeYuuLzP9C79JnUlunDx5svH222+bMiwm3b7dNhtlKZt/W2qrMw0pt6bo+Ex5tbG5udqY6Zh34Pyb5YbMrDZMRTR15p9U/dXHqNMn17jWh473f3ymL39UhnO+Qr/6rQ8MR3x90P5HZa/OV5tlacyshhFT78dfe/5OuryZRis5bfnDTu9flvrQuD0unu/sJvPKf/WGbMwckZIbVdOHj4rsvG6+E7rx5S3ZWl+W+ehMoUHzx+jM75W08hx1um/GoD4GOj4zLL9QBi0P5Gvc2o8HaP8Fkvv5qi6v74gcPTwdjPZ8/HXkb6O/QKzITvm8LIfJacsfdnreYtaXhT8P/JaOyMz2Xam50Z71kn9+Ucrbp+VieB9avSprKxvBMAJp5TnqdN+Me30Me/l7bdy2d9JRH0CyQY6P6kU5vV2WxXk3Hqfb8uPy19fcPf8lWbm7JOfPdlu4kbb9w04fgckN/o8elrjvgZkNlH9e1murIiul4IGP4zdElsouzVNp5TnqdN+Me30Me/l7bdy2d9JRH0CynI4P++Duyo6s1tZN1BSRcfmJ+aeXZUvvtzfdtcW7JhSbbXumIHX5w07PWx/rm9zgv/Mnltpd2e7lp5FB85vGt74VNL7G1rocE/u71N42iCJJK89Rp/tm3Otj2Mvfa+O2vZOO+gCSDXx81KVamZXjK0fk2tZW65acUOryU/JHTM+vy/nytly/GVli2vKHnZ63zvVlMJnBf8xPLPXgprBswfeg+Xepy83r21Lu+rvWBEsrz1Gn+2bc62PYy99r47a9k476AJLlcHxUK8dl5cg12dpa3p0nw/K75k+Ttvxhp+ctZn2ZxD0FHHYm2T5dPH5v+2m0P/1d06eho097R9Tin0YfNH9LrbGpT3p3vP1nUvVbH6NOn1RjXx99Hp+Zl7/HhnW+Qn8Grg/kKqk+mmj/e2oo56sMddh1+Wn5TfrqZmtjaptlM3/79qVt/1DT7fa78aThBFnqQ+P2uHi+s5vY4N+UZGN1Ruw+iCnQcqQxtElsSIPkj+Y1lVL2I/BX/dfHqNMn09jXR9/HZ8bl77Hhna/Qj4HrA7lKrg+H9r+nhnK+stPCvJGu7QJpl+Wn5t+M5NXpZv27Ni9t+4eYbrc/3+C/fX3Zgv8p/cfMHOvQoUNiViaXLl2SgwcPuqnF8tJLL8nLL7/sxjBq1EexUB/FQn0UC/VRLNRHsVAfxZKlPvQlMyaud2PJ/HnVJwAAAOA5gn8AAADAEwT/AAAAgCcI/gEAAABPEPwDAAAAnsj8tp8zZ864qQAAAACK5MqVK5ne9sOrPpEr6qNYqI9ioT6KhfooFuqjWKiPYslSH7zqEwAAAEAbgn8AAADAEwT/AAAAgCcI/gEAAABPEPwDAAAAniD4BwAAADxB8A8AAAB4YoKD/7qsVWbtO0+npmalslZ30zvUq1KZrUjVjbYMmN9O17wp+b2RVp6jTvdMWvuc9PTCydg+7X7Fna+QL84XhUT7L4jBzlf1akVmbV6Xv9qZP7/P82rFzDO7ZnJEDbr8/LYvV6a8s5rY4L9aKclpOS+1RkMatfMip0umgblEqy7VNdMASwuyse0mRQyW3zR4M13O16SRmN8vaeU56nS/pLXPSU8vnvT22f18hXxxviga2n+RDHa+qkvt9SPm9Gzy2vxLsrNwXKLxcW6f5/U1WdlwwxGDLj+37ctNq7wz07/wm9SZ5MbJkycbb7/9tqmjYtLt222zUZay+beltjrTkHJrio7PlFcbm5urjZmOeQfOv1luyMxqw1R8U2f+SdVffYw6fXLF1kda+5z09BEazvkK/eq3PjAc8fVB+x+VvTpfbZalMbManrHz+zzfLM80yuXOz4NBl5/f9vUqy/GhcXtcPN/ZTeaV/+oN2Zg5IiU3qqYPHxXZed18P3Ljy1uytb4s89GZQoPmj9GZ3ytp5TnqdKSWx6Snj1SG9tnr+QYD4HxROLT/Asn9fFWX13dEjh6eDkbz+jyvVmRlZ0nOLrrx0KDLz2v7ctTP8eHPA7+lIzKzfVdqbrRnveSfX5Ty9mm5GN7HVq/KWtxvTz5LK89Rp0+ytPY56enjwOf2WUTUB5BskOOjelFOb5dlcd6Nx+n587wqlZUdWbq2LO4rRXc9L7/DoOkjMLnB/9HD2So9yUD552W9tiqyUgoe+Dh+Q2Sp7NI8lVaeo073Slr7nPT0AqJ9Fgv1ASTL6fiwD/6aIH21tm7O2hEDfp5XKyuys3RNlpNmGnD5A6cXwOQG/50/sdTuynbHTzFdDZp/elnWtxrBAy1b63JM7O9ahW8QQ5NWnqNO901a+5z09KKhfRYL9QEkG/j4qJsAfVaOrxyRa1tbu4P0AT7P62uzsiDnZSsx8jcGWL41aHoBTGbwH/MTSz24qSzbh/+g+Xepy83r21Lu+rvWBEsrz1Gney+tfU56+ojRPouF+gCS5XB8VCvHZeXINdnairktZ6DP8+BcLxsLwa++2i1siGyfltKUe+XoQMs3Bk0viringMPOJNuni8fvbT/6lHfk6fGaPn0902g+TB5Vi38afdD8LbXGpj7p3fH2kUnVb32MOn1SJdVHS1r7nPT0vTWs8xX6M3B9IFep5yva/54ayvkqQx3m+nke8/a3QZc/ULrdfzeeNJwgy/GhcXtcPN/ZTextP/PrNVm67u75La2IbHa5/yvGYPnrstb8A0MlWbm7JLW4b7geSSvPUaf7Ja19Tnp68dA+i4X6AJINfnxsyII9P0e6yB/iGvbn+aDLH/b27YUp/Qbghnc5dOiQmG8acunSJTl48KCbWiwvvfSSvPzyy24Mo0Z9FAv1USzUR7FQH8VCfRQL9VEsWepDv3CYuN6NJfPnVZ8AAACA5wj+AQAAAE8Q/AMAAACeIPgHAAAAPEHwDwAAAHgi89t+zpw546YCAAAAKJIrV65ketsPr/pErqiPYqE+ioX6KBbqo1ioj2KhPoolS33wqk8AAAAAbQj+AQAAAE8Q/AMAAACeIPgHAAAAPEHwDwAAAHiC4B8AAADwBME/AAAA4AmCfwAAAMATBP8AAACAJ3IL/t999922DgAAAECx5BL8h8H+l7/8ZdspvgAAAAAAxZJL8P+3f/u3cuzYMTcmdlinAQAAACiOgYN/vcL/zjvvyNGjR+X73/++7XRYp3H1HwAAACgOHvgFAAAAPDFw8P/UU0/Jhz/8YdnZ2bFX/LXTYZ2maQAAAACKIZcr/5/73Ofk5s2b8ju/8zu202GdBgAAAKA4crvtR6/y/+Zv/qbtuOIPAAAAFE+u9/xr0E/gDwAAABQTD/wCAAAAniD4BwAAADxB8A8AAAB4guAfAAAA8ATBPwAAAOCJqXv37jXc8C6HDh2SkydPyqVLl+TMmTNuKgAAAIAiuXLlipi43o0lSw3+/+Iv/sKNAQAAACii3/u938sU/HPbDwAAAOAJgn8AAADAEwT/AAAAgCcI/gEAAABPEPwDAAAAniD4BwAAADxB8A8AAAB4guAfAAAA8ATBPwAAAOAJgn8AAADAEwT/AAAAgCcI/gEAAABPEPwDAAAAniD4BwAAADxB8A8AAAB4guAfAAAA8ATBPwAAAOAJgn8AAADAEwT/AAAAgCcI/gEAAABPEPwDAAAAniD4BwAAADxB8A8AAAB4guAfAAAA8ATBPwAAAOAJgn8AAADAEwT/AAAAgCcI/gEAAABPEPwDAAAAniD4BwAAADxB8A8AAAB4guAfAAAA8ATBPwAAAOAJgn8AAADAEwT/AAAAgCcI/gEAAABPEPwDAAAAniD4BwAAADxB8A8AAAB4guAfAAAA8ATBPwAAAOAJgn8AAADAEwT/AAAAgCcI/gEAAABPEPwDAAAAniD4BwAAADxB8A8AAAB4guAfAAAA8ATBPwAAAOAJgn8AAADAEwT/AAAAgCcI/gEAAABPEPwDAAAAniD4BwAAADxB8A8AAAB4guAfAAAA8ATBPwAAAOAJgn8AAADAEwT/AAAAgCcI/gEAAABPEPwDAAAAniD4BwAAADxB8A8AAAB4guAfAAAA8ATBPwAAAOAJgn8AAADAEwT/AAAAgCcI/gEAAABPEPwDAAAAniD4BwAAADxB8A8AAAB4guAfAAAA8ATBPwAAAOAJgn8AAADAEwT/AAAAgCcI/gEAAABPEPwDAAAAniD4BwAAADxB8A8AAAB4guAfAAAA8ATBPwAAAOAJgn8AAADAEwT/AAAAgCcI/gEAAABPEPwDAAAAniD4BwAAADxB8A8AAAB4guAfAAAA8ATBPwAAAOAJgn8AAADAEwT/AAAAgCcI/gEAAABPEPwDAAAAniD4BwAAADxB8A8AAAB4guAfAAAA8ATBPwAAAOAJgn8AAADAEwT/AAAAgCcI/gEAAABPEPwDAAAAniD4BwAAADxB8A8AAAB4guAfAAAA8ATBPwAAAOAJgn8AAADAEwT/AAAAgCcI/gEAAABPEPwDAAAAniD4BwAAADxB8A8AAAB4guAfAAAA8ATBPwAAAOAJgn8AAADAEwT/AAAAgCcI/gEAAABPEPwDAAAAniD4BwAAADxB8A8AAAB4guAfAAAA8ATBPwAAAOAJgn8AAADAEwT/AAAAgCcI/gEAAABPEPwDAAAAniD4BwAAADxB8A8AAAB4guAfAAAA8ATBPwAAAOAJgn8AAADAEwT/AAAAgCcI/gEAAABPEPwDAAAAniD4BwAAADxB8A8AAAB4guAfAAAA8ATBPwAAAOAJgn8AAADAEwT/AAAAgCcI/gEAAABPEPwDAAAAniD4BwAAADxB8A8AAAB4guAfAAAA8ATBPwAAAOAJgn8AAADAEwT/AAAAgCcI/gEAAABPEPwDAAAAniD4BwAAADxB8A8AAAB4guAfAAAA8ATBPwAAAOAJgn8AAADAEwT/AAAAgCcI/gEAAABPEPwDAAAAniD4BwAAADxB8A8AAAB4guAfAAAA8ATBPwAAAOAJgn8AAADAEwT/AAAAgCcI/gEAAABPEPwDAAAAniD4BwAAADxB8A8AAAB4guAfAAAA8ATBPwAAAOAJgn8AAADAEwT/AAAAgCcI/gEAAABPEPwDAAAAniD4BwAAADxB8A8AAAB4guAfAAAA8ATBPwAAAOAJgn8AAADAEwT/AAAAgCcI/gEAAABPEPwDAAAAniD4BwAAADxB8A8AAAB4guAfAAAA8ATBPwAAAOAJgn8AAADAEwT/AAAAgCcI/gEAAABPEPwDAAAAniD4BwAAADxB8A8AAAB4guAfAAAA8ATBPwAAAOAJgn8AAADAEwT/AAAAgCcI/gEAAABPEPwDAAAAniD4BwAAADxB8A8AAAB4guAfAAAA8ATBPwAAAOAJgn8AAADAEwT/AAAAgCcI/gEAAABPEPwDAAAAniD4BwAAADxB8A8AAAB4guAfAAAA8ATBPwAAAOAJgn8AAADAEwT/AAAAgCcI/gEAAABPEPwDAAAAniD4BwAAADxB8A8AAAB4guAfAAAA8ATBPwAAAOAJgn8AAADAEwT/AAAAgCcI/gEAAABPEPwDAAAAniD4BwAAADxB8A8AAAB4guAfAAAA8ATBPwAAAOAJgn8AAADAEwT/AAAAgCcI/gEAAABPEPwDAAAAniD4BwAAADxB8A8AAAB4guAfAAAA8ATBPwAAAOAJgn8AAADAEwT/AAAAgCcI/gEAAABPEPwDAAAAniD4BwAAADxB8A8AAAB4guAfAAAA8ATBPwAAAOAJgn8AAADAEwT/AAAAgCcI/gEAAABPEPwDAAAAniD4BwAAADxB8A8AAAB4guAfAAAA8ATBPwAAAOAJgn8AAADAEwT/AAAAgCem7t2713DDuxw6dEgajcRkAAAAAAUwNTUlJq53Y8lSg/8sC0nzD//wD24I4+STn/ykGwIAAECRZY3bue0HAAAA8ATBPwAAAOAJgn8AAADAEwPf87+8vOyGRNbW1txQO+75H0/c8w8AADA6WeLs0J7c89/LBgEAAADILhpfR+PuQfQd/BP4AwAAAMOV9xeAvoJ/An8AAABgb+T5BaCv4H8YP0EAAAAA2C3PC+993/bDFwAAAABguPK+42agB375AgAAAAAMR96Bvxr4VZ9Z8KrP8cSrPgEAAMbDnrzqEwAAAMD4IPgHAAAAPEHwDwAAAHhiT+75BwAAADA8WeP21OAfAAAAQPENHPwDAAAAmBzc8w8AAAB4guAfAAAA8ATBPwAAAOAJgn8AAADAEwT/AAAAgBdE/n+RC7QQr+mwDQAAAABJRU5ErkJggg==;" vertex="1" parent="1">
          <mxGeometry x="21.71" y="1260" width="799.58" height="540" as="geometry" />
        </mxCell>
        <mxCell id="bXhEvjdw58ReICiHxhLh-7" value="" style="shape=image;verticalLabelPosition=bottom;labelBackgroundColor=default;verticalAlign=top;aspect=fixed;imageAspect=0;image=data:image/png,iVBORw0KGgoAAAANSUhEUgAAAwYAAAIFCAYAAABoJerOAAAAAXNSR0IArs4c6QAAAARnQU1BAACxjwv8YQUAAAAJcEhZcwAADsMAAA7DAcdvqGQAAEEQSURBVHhe7d0PdBz3fRj47y5AyZJthVKdNI1TxxSJ6mRbSVXZcUjVrl02aUHrYsZW2KZJpaSRwMuzY1GV1TQ+6e611DnNkxVSr8k1hJRepEsuPUWvT72jiDYOz05ckfVzHL0+ylZkgKJr161d2yTtRFYsAbs3v9lZYAEs9g+wIBacz4cc7Mxv/uzM/GZ257u/32+m8o63v70eUYmmykJvS2pDpWVko6+yePpsIP1r9jcX0JwvH1ekJa3DzfnmpcFszeaTU3/+Mt9TvGQ9S/pbp+k2fb2+0KX0Wr2Wv+ZpqWclS0YtmrbonU/rNpx0m2bpcNLSmywat6LGDk1ZkqZelietGZosGc6HlkySdl1Do6cxnK1N8zV/Wfya7+9Fr/nf4nUhfZHW9Vy6EksVo5vbt+hYW7qNmXZpuSJ9fuyiydqMa1nt5VuwOGXxJjYGFtIW9kXD0vFJa1rn/pV0HtvNop2xeHDximbjlky7BmlJrfma8i5Pa32P4v3n16IYbk7TmKd1GVliMfH8sddcRv6S/cn/N17zvqWvjZfmn+Jv471GR0aybjR/HRktXrNuy+iWePWrXxWvSt2rUvfqvD9Py4ZHs2mjmtYv66rFeqeVzfrzlc813ynrW/b+zWmaFobTdjeH8+0vhouU/O+CJcMLb9l40+J9Gy/ZZ2j2P3/Nx6Xh9Nro6vPpza4xXK/VopZ19dpc9jqXD+f9cwtpc3NpOI1rvKa09JqMjFSiWq1mr9XstRIj1bSPG/srLTeftniP+f5s2VHJ1qFpfjOLvZCWk+VByquUFyOjjfwbyfIy9adjpZZtW9qmWr4N2XDqT6/Ze8xm6zY3Nxuzs7P5us9m/ek1dc28TPs+fy3yOSWMZP3VfP2b21O8puMmTZcNV7PhNE8al7p8/iwtW4lif6f92uhv7PPG9tZa1iet21ze33jN1zubrpkXjS5tSzZ/vkOy90j/ivVc1J8doI3+9JofrEVaWtfsmM/2W3odyY75Rpf245Z8W/L1Kt5vbq7xfs33fvnl2Xg5W7e0zrOzc0V/ti+z15eL18bwQpemmcuW2dg3aR8199PCa56neb5m+zbLy9HU5cON/Z6mydd9fv5Gl7axuc9buzxP0mva5mLeNG16bZzDjXELR1uWL8Vxlk6Dxmtj29Nr41haOKbS63y+ZdvYPI5SWjoHmvtkNttfzf6Up43XbNq0P4v9nPZN4/wp8rZ4/2wtGz3zfek1rXvahPS60C0fbmxvM33htbkfsv60H9K/tC/z4WKetO9aX5fOkw6rPL2Rlv7la9dc3Uzem6bLhzLNnZpr6V+UvsSiUQsDLW+T9S8MLUpfttjW9yxei57GKrSOL9Jb/jakc7foTel5fzOtGNFMyweSlr4227o0bel83zf7YuSBwcf+4A/yBAAAoFz+2d97T3zPS38W1TYBBQAAUBKpZOqll2cbBdIAAEA5pWpGL88JDAAAoNTywKBWExgAAECZpZYFs3N1gQEAAJRZanOc2hkIDAAAoMTSTU/namssMXjxxRe7dgAAwPBKJQZz9VpU/sbb3l7/+B+u7jkG6cL/pptuKoaWO3r0aFx22WXFEAAAMGx+8b03xZavf0VgAADAxWlycrLo62xiYqLoGw5pvd/znvfEa17zmiJlsa997Wvxb/7NvxnYev/ie26K0RQYvP2vv63+B5/4wyK5P4MIDM6deTr++NOfitNn09BVsf2Hd8fubVfm6cez9LMp/art8Zbdu2PrH0/G81dPZOPTtE3n4unHj0fsvjmuv7JIulDOPR2P/+7ZuGFidyxapQ13Jo5PPh9XD916AQBcOOkCu9vFcy/TXGjpwv+Jf/tvY++7370sOOg0brX+SREYVPNKRT1othlo7dbq3Jnj2cV/xNW7J/IMmcguZK8+//k4l11wH/9odsHdTN99dcTnz8W2q7fH6efPFHMXzn0+Tsf2eP0FCgrOHJ+M481VuPL6uHnAF9+Llg8AQOmkC/504Z8CgBQINK1HUNBQiXrWVVMr5F6l0oHWbm3OxB9/NOKGm6+PbfMX9VfGtuuvjyvPn42zV10VW5vpV26L61NxwLarY/vp57M5F5z7/OmI7a/P5gQAgIvD0uBg/YKCxnMM8sCgj7hgsM48H6e3X93+1/YUAJz9VBx/+kycK5IatsXV20/HQqHBuWjEBW3CglTq8Pjj8XjeHS+CiVTF5ng8/fTjMTn5eDydFn7meDFN63TnsuQibXIyHs9/wj8XT2dpH83e7/RHs/TjT6ep8uUtrM7Ce6blHz/TXPvm+zbeqzGuGDWv3fJT8krLzHQaBwDAptYaHKxXUNBQiXollRj0WJVo0M6dPxdXXbW1GFpqW+ye+PG44eyn43eXXPAuqk60YjWi7EL8+Nm4evfNcfPNqWut7nM6+7c7JiZujuvj6Xj801fF7nyarLsh4qP5FfuVsa05b7Ye2899Ogsirozrs7Qf3p4FIj+cpe++fnEpRXaRntobNN9zYiJfWCP4yJ2Os1t3N8b9+PY49+niwn9em+V3WmbX9wMAGJxUF7+Xjs2nGQ1UF3pXJzUwXqnr5MqtV8bZs+eLoXYaF+cTP55d8H76d+Px5hVvS3WiFasRnXk+zm3/ay1VlFptjxuarZRTlaWzpxdKFj6dBStxPr9gT+0f8rTHj8enzmbTdVrVJC0rlYDMv+e2+GtvycKBzzev1LfH1c3o5MqtcWW2zG6L7LjMru8HADA4jfag3TsGp7X6UGu1osGr5N2aSwyWtjtotj247LLLOt+RaOtVcdWS9gJtXbktdt+wPc6e/nzxC3uzOtHK1YhSaUTPtt/QKBlodumX+iwo+N3nr54vSUi/4vdi5RKQ1eu0zPV4PwAANt7SNgVL2xwMUooG8jYGlUqKEDbAldfHDdkF/kcfX1qlJnPm6Xi6pfpQfqGffmUvhvPqRJ8+vuLdiK58fXYlf/qPo2uV+2ZwsmS6ZjWnxqLPxPNZANJVtqz4VOt7nok/XiFw6VmnZa7H+wEAsOFWami8bsFBHg9Uo/K2Xbvqf/jUU43EDla6PWmzhKBVqkbUsbSgxbmnj8fxT52Os5Fd6GZ/46q3xI/f/Pr4/PHj8anGww3iqu1vid2L6vSnxrwfjfjhpc80aJGqAn00W+5VV8X27btjd159KM23+P7++S1TU4vfbLpk+w03x/Xbsuke/2gWeGSBw5Xbs/DjU3G2+fyEYrmRr9PW+OPW5aVxn16IMq7MltVYv6Xvu3w95i1afqP0ov0yMz2/HwBA+fTa5mHYqkCl9b6QDzj74Hv3xui5r0Xl7TfeWP+D//AfiuT+dHqWQa+BAQAAsHE++N4fi9HzX19bVaJmO4J2HQAAsAnkbY+rG9jGAAAA2HCp4XFqZyAwAACAUhMYAAAAKRxQlQgAAMotf45BFhKs+QFnAADA5lXL4oFarS4wAACAMkvxwGytFtViGAAAKKG8xCDrlBgAAECJpaBgLpUYCAwAAKC8UvuCuXotKm+/8cb6//Pkk0UyAABQJv/4H/xkxPmz2hgAAECZzVclKoYBAIASqmVBwcuzswIDAAAos9naXLwkMAAAgHKbm1NiAAAApTenxAAAAEgNj1+afVlgAAAAZaYqEQAA0KhK9PLLnnwMAABllqoSKTEAAICSS4HB7OxcVN62a2f9/z02VSR3d/z48aKPjbR79+6irzdb//l/K/rYSOf/yV8q+nrjfBsO/Z5vAGXmu2s49PPdte9HdseXZ2ai8tezwOBon4HBm9/85mKIjfBHf/RHAoNNajWBgfNtY63mfAMoM99dG6/f7673/q2/Gf91+nNZYLDzh+pHp/5dkdydzN54awkM/vPPXZ6/cmF937/8Vv4qMNh8BAYA/fHdtfH6/e7a+zffEf/lc8+tLTA487rX5a9cGNu+8IX8da2BgXy7sFK+DSIwkG8X1lrON4Aya/3uet0Z310X0he2re6760ff8fb4z8/9SVTdkwgAAMqr2fi4GiE0AACAsspvVzqXBQb1msAAAADKqlqtRnVkxAPOAACgzCoj1RjZkgUGtXqtSAIAAMqmWh2J0dHRYapKNBOP33hjPD5TDMZUfKRSiY8sesRCmqYS73twfqJVWvpeTcvTvzT1YHwke893ZOvyjsqN2fqkke3n/9KDNw5g3TarzZZ/2XA27fuKbvF6Xsw2Pp8Wnycr5UVar/3xyXyaBZ/c31jX9Lp0/ZrjALjYzcSD77sxHvxSMThQnZc988kHY//7KlF5R+pujP2fbHwXpfQbm+nv25/PP/WRSjY+H91iPdd99VJVopE8MBjSqkSf3H9fnDk8HR8cLxKSmSfjY7Er4rEno93+/NJMdjGRXWQsvThYKb2bL03tjw/fF/G2R+rx8Ww/fbz+SLztc+3fm8UGlX+f3H9jfkGfXzTuf7Cvfd85/3bF+x95Kn7tqUa3aD1LZJDnWS7b5+9oc0HfWf958da7Dy9ev5kH49FnDsdPlDQfAVh/M5/cH7c+GrH3Q/Wofzx1j8TeLz4ZM196MG79hc/GPc30D+2NODkT42+biMlPLL0ofTIei33xrtcWw0OimqoSpcBgGKsSpV8UH4174tfu2FGkNHzpycci9j0St7zpQPzOkv2cLiB/58mI17+pSCislN7dVPzOnohbnroj3jq/GjvirXfcEUOWl0NncPk3FV98wyPZBX3jgvGWOBAf7vlXbPnXzSDPs4YsYLjvmXhjMbSudrwr3pkdD831++T9B2LbPfIWgPUyFff/QsQ9v3ZHjM9/2eyI8ZvviB3/5bNx4o1viLFm+mvH446bs+/Wt+6NiaNPZHMumDmZfce+813ZnMMlLzHYMowlBk/ujw8/ti8+dGTpT38z0diXO+J737Arjj6x+IrlrUeeig/eMR5/uRhuWim9q6kn4ujE3nhrMUiPBpp/43Fzy0Vrmq9n8q+zAZ9nSSp9eP0j98S2Ynh97Yib75ko1m8qPjE5EW9TWgDAl1JVnxvjxqxrreqTvt+mPtJIv/EdlbhxcfWERloa95En47NF8iKffCImb9qbXZm0kQKAzxyIWx+fyt6l1XjsvWkynpgvRp+JJz8WsW/nsIUFjcBgdHQkqsP1GIMT8asHnmn/y9/U/fGrsS/Svnztu/bFGyef6LO6Qn++9Lln4o1vGCuG2snW9daFetGp+/CBE8W4slrP/JuK3ykuWHvRX/7tb9Ne4WI2+HzKSx/e8EikH0gW6+U8WWVejN8d73/mvvhIXh3qbkEgQNllQcGNP/nZ2Puhp+KpX3sq6h+/J+IXbi3q8++I8Q820p/6+HTsO3NfIz3Nk0oCPl5vjPuJiGc+k6ZfbOaLz8Su1690XTEeR7Jl3vP5+2JsUTCSjWmtTjSk1YiS/K5EqSpRMTwkdsX7j+2LM/e1aXT4xGS8cd+7GhcyqRrBrslYWm1rkF77V94Un/nsdDHUzuJ60an70OE+ftG+KK1T/uV12tOv0U+1ufBsr7/8O9Lzci8Og82nvC3HZ5dXSWro5TzpJy92xcLn8o7YuS/i6OSb4pa27w1AqaQqPelX/fkL7/G4+/0Rj51sXKinNgJ5qcD7bo0DnzkRn/0vWWJznnyKzGvfFfva1Ind8ZffFCc+3+m6ohF41H87C0YeHYsbm79ytVQnGtZqREm6K9HIyNAFBpmxO+LX0j69sbWhaaoqEPGZA2PF3WXG4ldPZBcES6o5DNTYG9a9VOKiNOD8Sxed77v/c/ET2UVjXxfv8q+zgeXTVPzOfc9EPHNf8Yv/njgak/ELN/bbAHmpsXj9sjh7Jr6YvVWrvFRj1xvie4thAMptxV/1s6Bg7BN745FUKpB1x25qJHcuCWjxvW+IXUvaC7T12vE4cstEnPjYk0W1omZ1ouGtRpTkbQzSA86K4eEyfiRv+PiT+4vdn+qL7zocv53fWabopg+v74Xfjjvilol0gdPfnXDIDCr/Zh6MD9/3hvjQkVU0KpV/3Q0kn8bjgy2lAb/21LG4KSbil586ssaqPTviL7/pmXi0tbF5frekRjUnAFgmu3iPX70/pua/+Kfi/uJivBkANL5CpuKJo3lP7EhFz2mexmAWQNwfj7WpShSvvSPuyS7w97zvwSXtCDKffDAebKk+lN4rtv2V+ZKBvDrRo7cObTWipBEYDGOJQeGtR6bj/c/sye9Vvqh6Q1Nx4bfowqEvi+s+f6TNct56pB6/ve+z8eHiHvj5r6guNHsykPyb/mx85sSB+HCRR3k3f8tS+TcI63+erd5bjzwS7/zsrQt5f+tn45ZH3HkIgOREHPhw0Zg46/anqjvZxftTvxxx33z6fen2hHFH9sWx4+Z74k0fG4tK3sD4c/GGosQgzfPI+7N5isbH+7+4t21VomT8g/WYfudn49biGQaNZxZkgcJb3xXxiVsbw1l36+f3xXTrvbfzxskn4k233DGU1YiSZlWiyl/7ge+v/39/8IdFcnfHjx+PN7/5zXn/mde9Ln/lwtj2hS/kr3/0R38Uu3fvzvt7tfWf/7f89T//3OXy7QJL+fZ9//Jbef/5f/KX8tdeOd82zlrON4Aya/3uet0Z310X0he2re6766d/4u/G2f/+5eEtMQAAANbf/APO6sN1v1IAAOACqlSqUa0OcRsDAABg/c3NzcVLL72UBQYKDAAAoLRmZ5uBAQAAUFqzc7Px7RQYKDAAAIDympudi5dffikqf/X7r6t//A8/USR313oLKjbGWm9XyoU3iNuVsjHcrhSgP767Nl6/310/dtO74otnzmSBwXVZYPAJgcFmspbAgI0lMNh8BAYA/fHdtfH6/e760fG/HZ8/fXp1gQEbT2CwOa0mMGDjCQwAeue7azj0892154f/Vpye/lxUrv/+769/7A97f/IxAABw8UiBwcznPhfVSrVSJAEAAGVTqVSimsUEWeeOpQAAUFZ5YJCefqzEAAAAyqwSKSaoZooEAACgbFKJwUh1JFUlUmIAAABllQKDojqREgMAACirRuPjalRHBAYAAFBaeVCQqhKNbtlSJAEAAGWTgoItW0ajumV0tEgCAADKZmSkGqOjW5QYAABAmY2MpBKDLVF59//4rvoj/+dvF8mdbd26tegDAACG2fnz54u+zn5y39+Nr375v0XlvT/27vpv/B+PFMmdpcDgtttuK4YAAIBh9PDDD/ccGNzyE38/vvaVr0Tl7+27uf7rkw8XyZ01A4MHHnigSBk+d91111CvX9nIj+EiP4aL/Bgu8mO4yI/hIj+GSy/58R3f8R09BwY/81M/FWe/+rWo/NTf/3v1X/3ff71I7qw1MLjiiiuK1OFy++23x0MPPVQMsdHkx3CRH8NFfgwX+TFc5MdwkR/DpZf8SM8m6DUw+Nlbbo3zXz8b1VqtViQBAABlVK/XBQYAAFBmKShIMUF1bm62SAIAAMomBQb1RmCgxAAAAMoqBQZztXoKDOaKJAAAoGwaJQZzAgMAACgzJQYAAEBrGwOBAQAAlFUWFzTuSjQ7665EU/srUdl1OGaK4VYzU4dj/65d+UMi5rtseP/hqXx8Pm9lfzSGlpqK/Wn6/UvHzmTL3R+7drUsM+t27cqWs3QlZmay99gVu1qma75/u/XNJl60zGaXln04W3g/86y8XeskX49dcXjZPjjc2P7mfmy7vtk+ysa33b5M6fN4NVbKj6Z241czT9Oq9sNqj5fUteRpc5oVjpFk2THUdrnZ+i7L4AWtx9qqzGTH27Jjdckx1W6/9LqvWnUa19TjcmcOp3Ve+fOk7fnZ87a2jJ/v2rxXv8dXNz28dz/bvarPmYF8drQ5ZpvT9XM+tOj2mbrICtvQty750ff+Xe25llyg8yp3gc6TvvW7b1Z5fi47Dtu9b3P7+zmeOy1nSTfw796NkkUGtaxTYrCidLJVYmzPY3Hqun1x7Nix+e7QddfFqceeyw+C8bsPxc6YjIPLjv50/B/MxkzEsSPjRUqSljuWLfdUxHWHWpZ7KK7Lxj7XmKghnUBjY7FnMk3a+v4Rk3fuibEVD/KdMdEyfWPZp+LOPdn7Lv3AmLd0ntTdHWPF2I2T7a+xO+PkxLGYXrQfF6/voYksabLTPmmnbHk8xFa9H5bq7XhpdG2O75N3xi1t8nllrcs9FBM7T2aH4Vh2oVWMnrf8WOtb9qW0a2xPdrxdF4fmtyF7z2zUomOqZyvtq4aZo4/FyZ07Y+fkweVf7h11Xm5P+trWHvK2h+NrdXo8rnrQ9+fMQD47Oh2zmb7Ph+XH+cJ6LXymzuuwDauzcn70tX/XdK5dwPPqAp4ng7HCvhnY538XfR/P7Szdj5v8u7dFqkqUFxvcuPOH6ufPn++pS/Pddttt9W984xvZ/MMprV+/jk1EPXYeqk8Xw/Ws79DOLC0m6scWEleUz5+mLYYbjtWzk7O+81DrAvpZbmP+xevVYvpQfWcaP7H4XbOVyZa/s77obZua8yxdZqd51qiv/Fi2HsX+6nF9pw/tXHE7Sp/HhbXlxxLtxq9mnoHth/6Ol0WKaSYm+jiG2i63WIdF67ryMdF7fqywbe20W69e99W8xviJbIXT6+JjvEWPy22cm0vPnwWL9+0at3WZ3o6vZKDnR6a/7S6Ge/qcGeRnR7G/W6ctpuvrfGgup6fPvqTLNmQGnR+97d+1HH/d5m2MH8x5tZb1bGe982Ol9V3lsVxYdhy229Yibc2f7532Y5fv3vXQS36k6/Z21/Ptuj0//Lfr11/7xnrVA86Wmzl8S9x5cmccmj4S4zuKxA7GjxzLIvQlv0RMPZH/AnHvgYUF9LPcqf3pV4Bs2kcPRNtJdxyIR7OzLPr51SGb50R29Keo+f52vw4Nman9Y9n+mohjJ1bYB0vsuKb3nzXk8fAY1H7o93hp59q7781y9GTcudadd2rhl9F+j7X2puPZk9nLddesettadd1XU/fn4/dmK3zTvp1x8rGjPf1iN4g8GPy29nh8DYFeP2fW5bOj5Zht6ud86Pc477oN66C3/bv64+/CnlcX+DxZo5X2zbocyysY2Od7O5vwu3eZLI5IoUR1dlZVosVm4uhj2dk2cW+0fA53MR53Zwfuwkk+E4cPZof6obuzMU39LHcqnpjMXrpMu+NA4yB/7GgfZ8v43mye7Bx7YriP3FQ3d89k8SVTpHUzle+06+KarvtXHg+PweyH1Rwv7Y3HkfThPrmnfdWKrhpf1jv33VR8ya3mWGtnPPbmmbr2L8de9lV+Lk3szcfvuGlf7Dz5WHQ7BAeZB4Pa1n6Or+HQy+fMoD87lh6zrXo9H/o9znvbhsHrZf+u7vi78OfVhT9PVmvlbRj0sdzNWj/fu9hU373LpQKGej1vfCwwWGTmaKTPt53X9ldLND9wm5Fi8atA6y88fS135rk4lb10n3Ysrs0C6ZPPThfDvWjM0+7XoaFxdH+M3XkyJo6d6Phh8ezRqZiaanSH9zc+eCaO9XBRIo+HxyD2Q4/HS8/Gj0Tju6NNw7yOUuO5Rl3l+eNilcdaO/mvnTtPxp1jlY4N7TvqaV81vqwn9hZn0o6bYl96304/gw04DwayrUkfx9ew6P45M8jPjjbH7FK9nA/9Huc9b8Pgdd2/mb6Pvw06ry78ebIKnbZhoMdyj1b9+d6LTfTd20Ze7ygLDjQ+XsF1S392To1jFrVEX3pQNX6JmDy4P/Yv+wViwbLldtDPtGvX+HBZ2L6sW5eQuptsPe7MPj13Hoq7O17hn8wbJe3Z0+juPLUvjk2fiDZtvVZUvjxejTbHRbNLLcXa6n+e1e+H3o+Xfo7vZpWDPV3PgdbljsWeU6kR4PLjot2x1r/xOHJiOvtS2xknU0P7Sr931OlxXxVVK5rXL9kVTF7tISafWOGLtNc86Ec/29o9b9fvPOvvuOrN4D9nFuvtmG3V6/nQ7jjv9Jk6+HzpJT962b99Hn8bdl4N+3nS275Zv/Ozvd4/38slBQW19ICz7NigjVPPLTm1suj+3mYr9OxDpZ3GLxGTMdnmF4imZcvtoJ9p+7asXmKbOxbcfeF/zUnrcejYodh58s4Y63jSpmLJVOxVj+ks/E/TH+yzmLF8ebwa7e5kUXQr7KPVzLP6/dD78dLf8d24eOheTL94uYeuOxWP7Rlb9oXb7lhbnR3Zl9qJqE+ni4Fs9fq6Y0cv+6pRtSJ2XrvoN/S82kP2Rdq+hLzXPOhXr9vaPW/X7zzr97jqzaA/Zxbr7ZhdrLfzod1x3ukzdfD50lt+9LJ/+zn+Nva8GubzpLdtWL/zcyW9fr6v0oDafVxojapEWWBQrYoMFtlxTaQmrMuLrLKTb3y80a3YyLUoRirqEC6y4nLb6Hnaom5oX8V/K89z7U3F9jW7HRt0aI8VjXgm98SuHs7aHeNH8sZJJ++8pbeTvMR5vBrLjouu+6iPeQaxH3o8Xvo9vncceDQOpWL6WzpfeLcu90D2Bd1cl/x7sMOxtibZuucXA+m9si/dnm/B121fFVVC0jLHWn9ZTLcYzJJXrDvb5znblx62dcW87eP4Wq1+j6veDOJzprfP+mXH7Ao6ng8djvP5/dJ67ve8Df3rLT867N+lejnXhuG8uiDnySp02oYBHMur1evne38Gv54XUl5ikNoYpIOTVs0GPSsV761WP8vtbdrGvZd3xr6bev8iWs08GyK72J/OL/bHerrQyH8BSsWWneprzpPHw2NA+6HP46U3O+LAo41fu/q69/XYtdmaNq3XsVYYvzv7cuvzC73DvsrvsZ6dScemp2N6aZfeqNMvbB2W27hj2Klo/8PgTDyXKhp3+5VtNdvax/G1Hgay3cusw2fHomN2JZ3Oh36P83U+L9ZDt+NvA86rttbxPFm1FbdhHY7lnq3y872DzfXdu1wKCvIHnAkMGg2CWu/I0HwQyp5BPVSj0M9yu047czhuuTMLTfu4i0B6Em9qBLTz0KMDaSC43nYcOJEXjaYPk44lqblOdxuQx8NsUPuhv+OlR8Wt8k7eeX88USR1Nf1s/itg03odaw2NX6j61X5fNe8sszf/JXHH0i6v9tD5ziAr5kF+t44VAvfi19T5RpkrWt229nx8rYeBbPdyA//sWHLMrqjD+dDvcb6+58V66H78XfDzqq11Ok/WaKVtWNuxvPy7vS+r+XxfwWb87l1qvipROQODmZg6fLhxN5tdjXvoLorwivvR5vXi8sY8jWnz7vD+2JXqCq5Gx+WmR8jvX/jVYNm0xXRZl+7AkxdB7jy04pNFW+/Yk69z/jTKbEsnjsWJFY7aRfMU3cwGf2KPH5nOf/2Y3NPm0epLFb+UTB5MHzDyeNNY435o1el4We3x3SiNmozJFQ6JpXfH2pUaWLc2tlvhmOhPeqLskuNpKh1PxT3AV9Hqd9m+yu/Q0uFCNduOe9MXe5d7r7fPg2ad3j3ZcZqdA81tSMdtkb8Lm9D/tnbM2x6Pr/XRz3b3YYCfHW2P2Q5WPB9WOM7zrt1napdt2DhrO9cu3Hl1Yc+TQWj72dD3sdzlu71P3T7f21m0Hzfzd+8SqbQglRrEW274q22fgNauy+bLn7S2+Z98XDyBL9ueLCfbP8UumZ6uH5vY2XiaXbPbmQ1PHFrhyY7Fcld4Qt+86WP1Q0uXG8Vyi0nmtZs2W4f05MS28ifztUybd53WOdN2nkbXbVO6GcyTK4snIzafWNnp6YPFtjSfLJlvhzyeN5j8KLQbv5p5mla1H9otq93x0rLMlm4+G3ta72yeZU/GXLrMbH0PHWv/5Mslx1rSe35k25Tti6Xv1TbP223Litu3sK8m2j4Vdomly+lhua3Lm86m39k8L4ttWL6/+t3W1ukWumWn6ArHV+N1Ip9koOdHi962u9UaPmdW8dmxbF26bVtzOe2e8trvZ+oK25CsV3503r9rPNdyF+K8urDnSbIu3+dNPR/LXb7b273viutSaO6fnp58XLz3fLfCPr8AesmPtI7trufbdX/jr7+tvv1131ev/OCbr6//3u9/LJu3u61bt0a2IvHAAw/EFVdcUaQOl9tvvz0eeuihYoiNJj+Gi/wYLvJjCMxMxeH7D+aNcOXHcJEfw0V+DJde8iPVCsou+ouhzn50z7vii1/4ojYGAJTYjsadeQDKLC9eSG0MGoMAAEAZNepGCQwAAKDcmnclKgYBAIASSiUGteyPNgYAAFBySgwAAKDkUvuCer0mMAAAgLJLJQaVH/rBG+r/7veOF0mdNZ9jAAAADK+HH3645+cYjP+d8Xj++dOrCwyG/QFnD7/mrmKIjXbb1x7wQJQh4gE1w0V+DBf5MVzkx3CRH8Oll/zo5wFn43/n78Tp089HtfHEZAAAoIzmH3AmMAAAgPJK8UAtNT4WGAAAQLnlJQZFPwAAUEIpKEj/lBgAAECJpWiglkoMBAYAAFBm6QFnqhIBAECp5QUFgwwMXnzxxfjzP//zqNVqRcqwuTQO/9S2qP/S/5B12+LYj1xapC/x3VfEsX/02pgoBhescf48Pc3bZf7SmInD+3fl99itVHbF/sMzRXrTRo8vm2HPj7WOL8xMxf5d+2OqGBxeF9v2bHbyY7jIj+GytvyYmdofu/J5i/mnls7fefnd5p85vHR8MWJet/Vf7/GDtvB+/cjbGGSxwUBLDH7+538+zp49G3Nzc0XK8JjILurviK/Hjb/4J1F58OsR78wuzn+gGJm7NCZ+5LUxfcf3xPh3Fkkt1jZ/FhRk6XH8TFRWnL9cpvaPxZ1xb0ynA3H63og7xxadrBs9vmyGPT/WOj59UE6lL4exPTF5skgaYhfb9mx28mO4yI/hsrb8mInp566Ne6ezefP598WpPbdE67Vz5+V3m38mjsbeeDSNy7rpY9fF5J7FwUm39V/v8YPW+n79SJNna5gCg/4iik6ef/75+MVf/MU4d+7ckAUHV8TeN/5p7P+tb8aJNPjlb8Z9H/t2jF+38PTmXT/yPXH3d70U9//rr2eH0VJrnP8HXh3jX/163Pefvt0YbjN/uUzFE5MTcezIeOxIgzvG4+5DO2PyieaZstHjy2bY82Ot47OvhsO3xMFnsy+PY4diZ5E2vC627dns5MdwkR/DZa35sSPGDxyI8XzmNHgg7p04GY8dbV5JdVt+t/l3xIEDxbxpaHxvTMSpeG7+Qq3b8td7/KAteb9+pMClVht8G4MUHHzgAx+IP/mTP4mXX365SN1g+YX5S/FMMZic+MpLEd91aexqDv/emRj7ra/G5FeKhFZrnb+NpfOXytQTMbnz2hgrBpMd11wXceq5RlC10ePLZtjzY63j0/CBE3HiSPbl0TrRsLrYtmezkx/DRX4Ml4Hnx0w8dyriumuKy9oelr/YkvkXSSUXB+PUxL1xoDm62/LXe/ygtXm/Xg28jUGrr3zlK3nJwec+97l46aXsAngYZRfmM995SbypGOxbP/P/pz+Nqe/8C3HPDxTtCr77iji8+9WNfhrGro2dJ5+N6WJwmY0eXzbDnh9rHb/ZXGzbs9nJj+EiP4bLWvJj6v648+RE7B0vhtvptPx2888cLtoYjMXBZ/fFvXd3Wnim2/qv9/gNsi5tDFq98MILeXDwzW9+czhKDv77txvVgFZrTfN/M/akdgW7i8bLfz8LCp7502JcSV13Tediro0eXzbDnh9rHb/ZXGzbs9nJj+EiP4bLgPIjb0R88FQcmj4Siy7de1z+ivPvOBAn8oveejy699k4OLZrURuGrstf7/GDtsr3S+0L0t9qn42We/bKV74yfumXfimuuOKK2LJlS5G6gZZW2/mLl8SOJdWDOlrr/F/+auz5lT9pND7+lS/FY3HJ2oOVzWxpMdr0s3Gytfhro8eXzbDnx1rHbzYX2/ZsdvJjuMiP4bLm/JiJqf274paD18ajJ04sVPNp6rr8LvO32DF+ZEkbhEy35a/3+EFb+n49GqmOxJbRLYNtfNzUDArGxsbikkuyC+CN1qbaz67swr7nC/O1zr/MpbHvTZfG1KlvFsMl06YYbaZRKbAR5W70+LIZ9vxY6/jN5mLbns1OfgwX+TFcBpAfU/tviYPXPhonThxYPk8Py+84fzfdlr/e4wetzfv16vLLXhFbv+OKwVcluvrqq+Nf/It/Eddcc81wBAXJl78a93/m1XF389kB331F3PPOiAd/v8cL87XOv0i6ren35Lc+ve8/FUllk981YDIONsvyZqbi/jsjDjXr/W30+LIZ9vxY6/jN5mLbns1OfgwX+TFc1pofM4fj4OR1ce9KP/N3W363+bPxh1uea5CqGx2c3Bn7biqm77b89R6ft38oqjat1N+Ppe/Xh8tecVley6c6yPKCFBSkkoLv/d7vjdHR0SJ1OEz+1pl48k1FHf87/kLEv/6vceDLxcgerG3+S+Nwy8PN7v6uP4sbf+Wr5a1GlBk/Mh37HhtrPPBj7GDEsUcXFf9t9PiyGfb8WOv4zeZi257NTn4MF/kxXNaeH5OxJ83b2u06PF8dpvvyO8y/45qIg8W8WZdmv3d6cXWjbstf7/GD1vp+/bjsslfEd3zHFVF5yw3X1z96/GNFcmdbt26N2267LR544IE8qmiVnnycGhxfeeWVMTIyUqReeLfffns8/Jq7iiE22m1feyAeeuihYoiNls4P+TE85MdwkR/DRX4MF/kxXHrJjxQcnD9/vhjqbP9tPxsv/OmfDq4q0WWXXRavec1rNjQoAAAA+pOu41OJQbWyDo2PAQCAzSGvSpTaGBTDAABACaXGx3mJgQIDAAAor2q1EtVKdX2eYwAAAGwOeVCQ7pz0g2++of57v3+8SO6s9a5Ed93lzj8AADCMHn744Z7vSvRL/+yfxqWjI1F5axYY/PtVBAZLb1c6LNxOa7jIj+EiP4aL/Bgu8mO4yI/hIj+GSy/50c/tSn/5voNxyaiqRAAAUGopiEhhgbsSAQBAiaXGx5XUALkYBgAASqhSND4WGAAAQInV6/WYm6sLDAAAoMzmZudidvZlgQEAAJTZ3NxcvDw7KzAAAIAym80Cg9mXs8CgXiRc/Gbi8P5d+e2YKpVdsf/wTJG+xMxU7N+1P6aKwQVrnD9PT/N2mb80uu3PjR5fNpskP1Z9fva4/KGx1v3BYMmP4SI/hsva8mNman/syuct5p9aOn/n5Xebf+bw0vHFiHnd1n+9xw/awvv1o6XEoByhwdT+sbgz7o3pej3q0/dG3Dm25OCYial08IzticmTRVKLtc2fnQxZetw7nTfuaD9/uXTbnxs9vmyGPz/Wdn52X/5wWev+YLDkx3CRH8NlbfkxE9PPXZtdHmXz5vPvi1N7bonWa+fOy+82/0wcjb3xaBqXddPHrovJPYuDk27rv97jB631/fqRBwYvvxzxg2++oX7+/Pmeumy++m233Vb/xje+ke3f4ZTWb7lj9YmYyP4umD60sx4TCylpeOfEofqxY4fqO5dMu+b5j03UY+ehepZJ85bOf7FaXX5s9PiL12bNjzS8+vOz+/I3yvp8XrFa8mO4yI/hcqHy49hE1Hceal4x9f/5vXj+pdLydtYXRndb/nqPX71e8iNdt7e7nm/X/U8/e1t94h/cUq+WosBg6omY3HltjBWDyY5rros49VwWSxbDB07EiSMHYrx1oqa1zt/G0vlLpdv+3OjxZbMJ8mNN52cPyx8qa90fDJb8GC7yY7gMPD9m4rlTEddds6Mx2Pfn95L5F0klFwfj1MS9caA5utvy13v8oLV5v16lEoOXUhuDYrh8xq6NnSefjelisG/9zD++NyZO3hn3N+u9zUzF4YOTjX4auu3PjR5fNps9P9Z7+RfaZlvfi538GC7yY7isJT+m7o87T07E3vFiuJ1Oy283/8zhoo3BWBx8dl/ce3enhWe6rf96j98gjapEL5UoMLjummgXP/ZsTfOPx5HpQxEHxxqNT255ImLfRDGupLrtz40eXzabPT/We/kX2mZb34ud/Bgu8mO4DCg/8kbEB0/Foekj2VVTix6Xv+L8Ow7EiVS/P+se3ftsdim2a1Ebhq7LX+/xg7bK95udm41vv1Sm5xgsLbaZfjZO9lPcstb5swPzyInGgVk/cSRuirys68IeLMOk2/7c6PFls9nzY72Xf6FttvW92MmP4SI/hsua82MmpvbvilsOXhuPnjixUM2nqevyu8zfYsf4kbh34mQ8drRlid2Wv97jB23p+/VodnYuXnrppZLcrrRNsc1MoxJabxfma51/mZk4+tjJmOhYVnYR67Y/N3p82Wz2/Fjv5V9om219L3byY7jIj+EygPyY2n9LHLz20Thx4sDyeXpYfsf5u+m2/PUeP2ht3q9XqSrRt7PAIN5yQxnuSlRf3Ep9OrXabm2V3mK6fav5tc6/YLp+LLVIX3KXoovVavNjo8dfrDZ9fqzy/Ox5+RfYen1esTryY7jIj+GyLvnRQx51XH63+bPxh44trMz0sYls+sXr123913V8vv7F8Er9K+glP9J1e7vr+Xbde/f+WP2dN769XpqqRONHpmPfY0Ud/7GDEcce7VjctNTa5p+Jw/MPN2s0fpleTWR7Eem2Pzd6fNls9vxY7+VfaJttfS928mO4yI/hsvb8mIw9ad7Wbtfh+eow3ZffYf4d1yy078y6NPu904urG3Vb/nqPH7TW9+tH465EL0UllRh89PjxIrmzrVu3RhahxAMPPBBXXHFFkTpcbr/99njooYeKITaa/Bgu8mO4yI/hIj+Gi/wYLvJjuPSSHyk4OH/+fDHU2U/9xE/GV/7rl0t8u1IAACCX6h4JDAAAoMRS6cLIyEhU+6uBBAAAXEwqlWpUqtXI/goNAACgrOZLDIphAACghFJgUE2lBm9985vr//73f79I7qz1rkR33XVXkQoAAAyThx9+uOe7Ev3MLT8TZ79+dvWBgduV0gv5MVzkx3CRH8NFfgwX+TFc5Mdw6SU/+rld6T+89R/GubPnU6mB2kQAAFBW1ZGRGB3dkl5HiiQAAKBsLtlySVx66SuiOiowAACA0tpyySXxildkgcHI6GiRBAAAlM0leWBwmapEAABQZlu2bGmUGKhKBAAA5dUoMUhViQQGAABQWqmNwaXaGAAAQLnNtzF45eWXF0kAAEDZpDYGl132iiwweNWriqTBevHFFxd1AADA8GkEBqnE4JWvLJIGpxkIfOADH8i7RHAAAADDpxEYXB7VV61DicF//I//MW666aZiKPL+lAYAAAyX9OTjyy5fhxKDVDLwwgsvxHXXXRfPP/983qX+lKbUAAAAhksqMbg8b3y8DlWJAACAzSGvSpRKDAZdlSg1XEjBxqlTp/KSgtSl/pSWxgEAAMNjvo1Bum/poL3zne+Mo0ePxrvf/e68S/0pDQAAGC7pgcdbLtkS1WJ44FLpwA/90A/lnZICAAAYTpVKJaqVWL/AIEkBgaAAAACGVxYXRDWLDNY1MAAAAIZbo8RAYAAAAKWWSgzy4KAYBgAASqiS/VOVCAAASq5RYrDOjY8BAIDh1gwMKo/8q39Vf/d73lMkd7Z169a47bbb4oEHHoi77rqrSAUAAIbJww8/HOfPny+GOvv3T/67uHrb1VH5jYceqr/3x3+8SO4sBQa/+Zu/WQwBAADD6Kd/+qf7CAymYtu2bVGdm50tkgAAgPKpR9TqUZ2dmysSAACAsqlncUH6o8QAAABKLYsMUmCgxAAAAEosCwrq9ZoSAwAAKL1UYvDiiy8WQwAAQPmkRgYR1T974YW8BwAAKKdKFhxUX3jhz4pBAACgbFJQkEoNqi/8mRIDAAAotywwUJUIAADKrF5UJfozVYkAAKCsKsVr9QUlBgAAUGJFicGLf+52pQAAUFb1Wj3r5qJaqTQLDwAAgLKZm305Xv72nwsMAACgzFJg8O1vvygwAACAMpubnVViAAAAZZdKDF7KA4P5GxQBAABlsxAYKDEAAIDSmptTlQgAAEpPiQEAABAvfuvF+Ob5b0RVEwMAACivb33rW3Hu3DklBgAAUGbfeuFbcf7ceXclAgCAMssDg7MpMFBiAAAApZWqEuUlBgoMAACgvL71wgtxLq9KpMQAAABKa6HEoF6kAAAApZMecDb78ktRrdVqRRIAAFA2l16yJV71ylcIDAAAoMwuvWQ0XvWqFBjUBQYAAFBWl146Gq9WYgAAAOWWVyXKSwxqWh8DAEBZpapEr24EBkoMAACgrC69NDU+viyqdYEBAACU1nyJQXjAGQAAlNaWS7bEZZdngYGwAAAAyuuSSy6Jyy+7TIkBAACU2SWXbIlXXJ4FBuICAAAorxQYXN6oSiQyAACAstqyZUtcpioRAACUW3rA2eXpdqXiAgAAKK90V6JXXJaqEokMAACgtFJJwUjWCQwAAKDE6rW5mJt9WWAAAABlVssCg9rsSwIDAAAos3qtlgUGSgwAAKDU6nNzMfdyHhhUiyQAAKBsUhuD+uysEgMAACiz1MZA42MAACi5+TYGWWRQJAEAAGVTS4FBvZYFBlVtDAAAoKzqWVBQm5uLakVgAAAApVWv1YsSA1WJAACgtFJQUJ/LAgMlBgAAUF4LJQYCAwAAKK35NgaqEgEAQHnN35WoVq8XSQAAQNnUs3hgLrUxSBECAABQTikemEtVidIjkAEAgHKq1VKJQR4YKDEAAICySu0LBAYAAFByeVWimsAAAABKrVGVKG98rI0BAACU1XxVonR7IgAAoJzyJx/XauGxxwAAUGL19K9eFxgAAEDZCQwAAKDs6ikwiBQYaGMAAABllVclyv4pMQAAgDJL5QSqEgEAQLlpfAwAAORSoUE1NTQAAADKaWRkJLZs2aLEAAAAymxUYAAAAIyMjAoMAACg7EZGR+KSS0YFBgAAUGaNqkSXCAwAAKDMUomBqkQAAFByjTYGl0Q1PdAAAAAop5FqNUZHR5QYAABAmVUqEdXsj8AAAABKrJIFBZVqVWAAAABllgKDkYrAAAAASq1RYqAqEQAAlFoKDKpKDAAAoNzyhsd5iYG7lQIAQIlVGqUGxRAAAFBC9XotanM1gQEAAJRZrVaLudqcwAAAAMqsXqtnwUEWGNQ1MgAAgNKqqUoEAACoSgQAAES9Xo/anMAAAABKLS8xyAMDTQwAAKD0lBgAAAACAwAAKLNK0QkMAACg5CpZZOA5BgAAgBIDAAAos1RaoCoRAACQc7tSAABAiQEAACAwAACAcks1iOr1dFciAACgrNJdSuspMCiGAQCAEhMYAABAmdUbtYkEBgAAUGopMlCVCAAAyAgMAACgxGq1etTm5gQGAABQZumORLVaTWAAAABlVq/XBAYAAFB2SgwAAICoa2MAAADkVYncrhQAAMotr0qUSgzq+XPOAACAMkqBQeqq4gIAACix/MHHWWCgxAAAAMorjwbywCD7AwAAlFSzKpGwAAAAyi2VFVTzvwAAQDmlcECJAQAAlFtqc1zclUhoAAAApZWFA43AAAAAKD2BAQAAlFjz8QUCAwAAKLNm4+PGEAAAUFYpNhAYAABA2WWRgcAAAABKLN2RKBEYAAAAAgMAACizSqWSdQIDAAAouUpUK1WBAQAAlFkqLagIDAAAoNxSVaJqVWAAAACl1mhjIDAAAIBSa5QYZF0xDAAAlFAlNT6ujggMAACgzBpViZQYAABAqVVSw+MRJQYAAFBqeWmBEgMAACi3PDAYcVciAAAotUaJgcAAAABKLb9VqRIDAAAot/zhZkoMAACg3PLbleYlBlkPAABQTvX0r15XYgAAAGWWxQRRrwkMAACg1FJpwVytJjAAAIAyS4FBXWAAAADllgKDmjYGAABQcnmJgcAAAABKLS8xUJUIAADKLVUjmpsTGAAAQKnVsqBgdnZWYAAAAGU2V5sTGAAAQNkpMQAAAPKGxwIDAAAoudTwWGAAAAAlV5tvY1ApUgAAgNJpVCWaU2IAAABllh5wVq97jgEAAJRaFhfkwYHAAAAASiwFBbWawAAAAEouFRmEwAAAAMosr0oU2hgAAECpqUoEAADkgUGj8XG9SAEAAMqnUsn+V5QYAABAmaWgoFKtRjU1NgAAAMopLy1IXapPBAAAlFNeYjAyoioRAACU2XyJgcbHAABQXvNtDIphAACgjJqBgTYGAABQXnmJQV6VKL6nSAIAAMpm/snHte++tkgCAADKJlUgqmV/qj/37tcUSQAAQNmkoKBWq0X113/9/y6SAACAsqln/+ZSiUG14sZEAABQVqkqUT2VGFSqlSIJAAAom9T4eC41Ph6pjhRJAABA2eR3JUpViSKUGAAAQFmlh5uNjIx48jEAAJRZCgpGt2wRGAAAQJlVR6pZYDAamh4DAECJpTbHW0aVGAAAQKlVVSUCAABSG4MtAgMAACi3RhuDFBjUixQAAKB0qm5XCgAAVNK/SkVgAAAAZIGBmkQAAFBilVRiEEoMAACgzNJzzVJ1IoEBAACUmjYGAABQeqkaUfojMAAAgFLL70skMAAAADQ+BgAAMgIDAAAosebjCwQGAABQZvV6FhzUBQYAAIASAwAAICMwAAAAotpsbAAAAJRQpRKVqucYAABAqVWr1RgdGRUYAABAmaXAYGRkRGAAAABllgcGo0oMAACg1JQYAAAAjTYGowIDAAAotUZgoCoRAACUmqpEAABAVNJzDCpVgQEAAJRZIzDwgDMAACi1PCjw5GMAACg3VYkAAICMwAAAAEpPGwMAAKARFFTzEoN6kQQAAJRRigiUGAAAQKnVo16rCwwAAKDM6vXUCQwAAKD0BAYAAFBy9eKfwAAAAEosVSWqKTEAAAAajY/drRQAAEpPiQEAAJSdJx8DAEC5pScfVxpPPgYAAMqsknVZYKCRAQAAlFUqMahWVSUCAIByS8UFFVWJAACg1Crpn8bHAABQcpVUncjtSgEAoNTyuxKpSgQAAGWXbleqKhEAAJRaKjFIwUEWGwAAAGWm8TEAAJRco42BwAAAAMpNYAAAAGRhQRYYuCsRAACUWj119XoKDFIvAABQRvV6LWq1mhIDAAAos1RakIKDavZSJAEAAGWTAoO5WqpKJC4AAIDSqmdBQb02p40BAACU2UKJAQAAUFp5GwONjwEAoNxqeYmBwAAAAEotBQZuVwoAACWXqhHNzWWBQaVIAAAAyqdRYpDflQgAACir1Pi4NpfuSqTIAAAASiuvSlSfU5UIAADKLK9KlNoYFMMAAEAJNR5wJjAAAIBSS7cqdbtSAAAouXq9ERxoYwAAAKVWz4MDJQYAAFBi+e1K66kqkSIDAAAorTwwUJUIAADKLQUG9Vp6wBkAAFBaC1WJAACA0looMagXKQAAQGlVsxih6AUAAMomRQOpq9bFBQAAUF5FZKDEAAAASq6e/auGIgMAACitPBpolBgAAABlloIDJQYAAEBUhQUAAIASAwAAQIkBAACgxAAAAMgoMQAAAJQYAAAASgwAAIBMtVqpFL0AAEDZpIKC1FVHR0fzBAAAoLwEBgAAQAoMRopeAACgdIpGx0oMAACAqG4RGAAAQLnVlRgAAAAZbQwAAID0gDOPOAMAgNKqZxFB1lVTDwAAUG7Veq1W9AIAAGWlxAAAAEqsEQ3Uo1qvKzEAAICyywIDJQYAAFB2qhIBAABRrVYrRS8AAFBW1S1bPOAMAADKzpOPAQCAqG4RGAAAQOkpMQAAgDJLTY4rFSUGAACAqkQAAECmcuc/fG/9f/2V3ygGO9u6dWt4IBoAAAy3SqUS58+fL4Y6mzz4gbii8kJUPnj7vvo9908WyZ2lwKDXN+jk9OnTRR9cONu3by/6AAAubv1ctzcDg+rISLVIAgAASqdSifSvOiowAACAcqtEKjHQ+BgAAMoq3a00GXhVogMHDsx3AADAYKzfdXYlb6w80BKD1pU8fPhw0QcAAKxV6/X1QIODSmpmkAcGgykxEBQAAMD6WrfgIFNt1ilaC0EBAABcGIMODvLSgko1BlJcsJ6RCwAAsGDQP8qnwKBSzYKDQT3HWHAAAADraz1q6uQlBtWRqEZ9UKGB4AAAANbLegQFSaVSbZQa/NI//tn6z33ogSK5s34erdzJ6dOniz64cLZv3170AQBc3Pq5bv/NX/7H8Rcu+fbgqhIBAACbT6Mq0YAaHwMAAJtTXo0ovyvRANsYAAAAm0ujxCALDv63D/5M/X33HCqSOxtUGwMAAGD99HPd/lsPfCi+8xVzUbnvrp+uv//e3lo1pzcAAACGX6+BwW8f+p/juy7LAoOD/+jW+s//Lw8WyQAAQJn8X4fvib94eS2qdW0MAACgtObvSiQwAACA8srvSJSefCwsAACA8lp4joESAwAAKK0UGIyoSgQAAOSlBkU/AABQUpWoxP8PDmJ0cTAARi0AAAAASUVORK5CYII=;" vertex="1" parent="1">
          <mxGeometry x="24" y="1940" width="793.46" height="530" as="geometry" />
        </mxCell>
        <mxCell id="bXhEvjdw58ReICiHxhLh-8" value="" style="shape=image;verticalLabelPosition=bottom;labelBackgroundColor=default;verticalAlign=top;aspect=fixed;imageAspect=0;image=data:image/png,iVBORw0KGgoAAAANSUhEUgAAAwUAAAIICAYAAAA/jEITAAAAAXNSR0IArs4c6QAAAARnQU1BAACxjwv8YQUAAAAJcEhZcwAADsMAAA7DAcdvqGQAAD7XSURBVHhe7d1tkBznfSD2/zRIgNQLBb3LliyJ1q54pIj4g1WRAcQp65S4biGmjFxcODt3R7hS1G5dSRaAo1G2FeITWLKvIB6Asp0LlvxgIvbJxrkquATE3smRpZxDwErksyVQpKhdW7Zk+aSzZEPy6SSSwk66e3p2Z2fndXdmd8Dn9wN6p1+me3qep1+e/zxPd9fe/rapem1HFrX834rOvSvKcbXVKa3vqbWO79LfOkfr6DXrUCgG69VroegvX6qeSr0cXB3XebjQeVzz/fVqZPG6Oq4c1UX3iavzrX1Pt/GFddNWXtre2zK4btpQqoRd+5L3rPQ1tA23TS2trsXKSjfWbXUw/9Nc2+p1ZVreU/WXQ63jO35aQ/cplZU3VFvW6p91X7FhdWTn6ZUOE1fGFD0r32VNb2ermb7+vSvp1abbPNX49nEdlzEurUnT/sG90nRoq0eL4tjS6M9fO3x+e6qsfW81lL80llK9u/n21jRd/VONbvQXL2tSuX04V6xjlmWxo+x2RJYfcxvDO2LHjh1x+223xW23591tt8ft5Wsx3OjP8unluuZ/muu8drhak9U/bZ9eqN64TuNbt04vx6x5e/u8+XDLZ5Vah5v9xbZXJNRKV4wu/7SMK1Kq2V9MWs578zHLxWuz/0beFctajuVifN4tF9PK/nxaMf7GcpkWtSxP51qRtkXaNNK80V8sur46X77cZv9yPj5qxYdX37Pt65bLKfOryKvGa+twY1nF+jW74us0+ovPWM7X8Ua+fsVrsf43is8shus3iqU31rv4U/Rn5d/iT/49Gutffqfie6wZLuZr9JfbfzGuWEbztUjVxoq0dcXn5tNu5OtUfvd8nVbWrdHfWO/8PSvp1FhWMVwqPq9Ywdb+8n/xJ/9bfn6+bsXrynC+Xvl2XKZdmX4tr+X2neWfn39W8zPL/F4dLtLvRrHOzdd8/Mpwa381XHyPYlyxnDJ98q65TTTTrJmejTytNV7zrrGPNvqb8+b/G/M0l5EPF9vZSvoX21zxWg63fff21yKdWuS5skb+dRvp3drlSd/sb+ZTI/+qrvyuje9f9DfTqTGuGG70l/tAkbbFPOVyi/kby127Ivm6Vn3N/vJ7loON77EyruzKCdX4xnCZHivD+YhyuLmcxriV4bxrvn9lvqJre1/Rk/9dmVZa+1KqrUvVQsu4ld5O7+ut+Tkrh4xyEY2xq+vQYblFGrdoDOV/14xuGViZtOYNjbxq6rbMVi3vaZvSkE9vHV97+w/+YL12yy3x+WefrUYBAAApyfIgEQAASFhR99mlTgEAAEhBIygAAACSlVWvAABAojL1BAAAkDY1BQAAkLg8KNhcXcF3vvOdvh0AADC5am9781vqt+zaFZ//wsaeU1AU+u+7775qaL1Lly7F7bffXg0BAACTRvMhAABetFaektynmzTFOv3hH/5hNbReMW2U652Vj3rf5gcVLC2cjbn9zUzZH3MLSyvj9zfH75+Ls/nohblaPr2c3GIpzu7fX07fckv5OtbmYt0qbbuFmJvI9QIA2Fr1el7a7dFNok9/+tOxd/9/1TEwKMYV04r3jEpWJsSAadF+rUDRbdbSwlwcfjji4OPNjHk8Dn7hiVjKC9uHDzwdDzXHP34w4omlmDk4G/MX24q6S0/EhTgU752qhsdsTWAydSSerJ+LmWpwFDoHPgAApOKHf/iH4+qT/8+6wKAZEBTTiveMSiMoGKKmoLh+oLXbnIU4dSDioSePxMxKgX4qZo4cianFp+PKvntiujl+aiaOHMkHZg7G7PzFNb+ALz1xIeLQe/M5AQDgxaE9MBhXQFAog4JtqzRZuBjzswc7/8peFP6vHI3DZxdibaugmTg4Ox+rlQVL0YgJOoQES0WzpP2xv+yaTWkazWrOnt1fNlUqmxwtzFXvaX3fUj66Glerxf7yp/ulOJuPOzAfMX8gHz93tnjX2mY6LZ/Z2hRq9XMbn9WYVk1a0Wn5xehuy8z1mgYAwE2tNTAYV0BQyOrLRfOh7QkLlr7wVOy7Z7oaajcT5+qL8dDTD8d0W2F3TROirk2H8kL44afj4ONPxpNPFl1rE5/5fJ7H86/9ZByJs7H/4Xvi8fI9efdQxIGytD4VM+eqcfl6HHrq4TyAmIoj+bjLsxGzl/Px546srZ3IC+j7p1c/s14vFna45VqH+Xj67eca0xYPxVMPV4X+FR2W32uZfT8PAGB0Gtd/9u+4+WT1+nLVu3HFbUe7db1Mvf3euPL0YjXUSaNgXl/MC7sPT8f+Zmm3pQlR16ZDCxfjqUPHW5oltZqNh4qmSIWimdKVC3G4+rV9/8N5oBJfKAvrxfUO5bj9h+PolSvRc1ULxbKKmo+Vz5yJ42ciLjzRLKXPxsFmZDL19rj3ytPRb5E9l9n38wAARqdx/Wf/jtFpbTLU2pRo1Mpbkm4289qvM2hea1A8n6DnMwqm74l9bdcHdDQ1E+cemo0rF56ofllvNiHq3nSoqIUY2OxDjRqBZlf8Qp8HBNMXD67UIBS/3g+ie83HxvVa5jg+DwCA7dd+DUH7NQajVAYF21bNM3UkHsoL9wf2tzejyS2cjbMtTYbKQv69b1+pESibED18uOtdh6beeyjiwqno28S+GZi0va/ZtKmx6IW4OF/29JYvK462fuZCnOp2vcOgei1zHJ8HAMC263ZR8bgCgyxX9Q5mmOZBg5g5V4/FQ0/H4bINWnGxbP5aBAkz7424eHilbdrhpw/F4rmWS5LLC5GvxL0PtbXrbypuFVq2OiqWtz/mujW0z9/3+OXG+xpNhfbnwUgx+qG498J0Oe/+uS/EPS01BUVA8tSB4uLjtmCm+MxiWYerpkj7Hy5urRTNlkqDWrP8Xssc0ecBALyYNcuT3bpJ9M53vnNdQNDUDAyK94xK7a1vfGN95+23x7OLfVu3d9TrWQU9mw4BAAATIdtshNS8bqBTBwAATL6hmw8BAAAvLtmOHTsmti0VAAAwfptuPgQAANzcyqAAAABIV+apcwAAkLYyKBAYAABAutQUAABA4tQUAABA4tQUAABA4mp3vulN9Vtvuy3+309/uhoFAACkxOOMAQAgcYICAABInKAAAAASJygAAIDECQoAACBxggIAAEicoAAAABInKAAAgMR5ojEAACSuCgoEBgAAkKram7//++q7bn9J/H9/+IfVqP4+/vGPV31sp/e85z1V32Dk22QYNt92//J/qPrYTtd/4fuqPgD6UeaYDMOUOWo/8H2vr9/2kpcNHRS8853vrIbYDp/+9Kc3FBTIt+21kXwTFEwGQQHA4JQ5tt+wZY7am97w+vrtL31pHhT8+2pUfzJ6+wkKbk6bCgp++e748z//83jLW97idStf/8V/LpNfUAAwOGWO7Td8UPD619Vvf1lRU7CxoOCLb35z+crWuPNLXypfNxsUyLettZl8awYFf/5PXiLfttiP1WoRv/BM2S8oABhca5njzV907tpKX7pzY2WOrLjI2GXGMPmKX67ZWkVNAQCkIBMSwM1BAXXrCcQASEV248ZyeFYBTD4F1K0nEAMgFVl9eTnyqKAaBCaVAurWE4gBkIrsxvINNQVwE1BA3XoCMQBSkS1PVPOhpfid/fvjd5aqwViIj9Rq8ZGFarBUvKcW7z+78qYNav+spvXjv7JwNj6Sf2ZxJ5Ifq+3P16eY2Hn+r5zdP4J1u1ndbPmXD+fvfX/VrV3PyTO6Aur259Pa/aRbXhTrNRefKt+z6lNzjXUtXtvXrzltVARiAJNqKc6+f3+c/Uo1OFK9l730qbMx9/5a1H6s6PbH3Kca56Ji/P7m+PfPlfMvfKSWTy8ntxjnum9ctlyf3GsKPjX3cHzxzGL83Ew1orD0RHwi9kVceCI6peVXlvKCRF7AaC8YdBvfz1cW5uLDD0f86OP1+GSeTp+sPx4/+oXOn81ao8q/T83tLwvzZYFx7uxQad87//bFBx5/Mn7tyUa3Zj0n0LgKqKPcz0p5mv9Yh8J8b8PnxbuOn1m7fktn4/xTZ+KnR5iPagoAaLX0qbk4fD7i4IfqUf9k0T0eB7/8RCx95Wwc/vmn46Hm+A8djLi6FDM/Ohvzv99eKH0iLsSheO8bq+EJMbEXGhe/JJ6Ph+LXjkxVYxq+8sSFiEOPx/33Ho2PtqVxUXj86BMRb723GlHpNr6/hfjogYj7nzwS71pZjal415EjMWH5OHFGl38L8eV7Hs8L843C4v1xND488K/XL678G0cBdZT7WUMeLDz8VLyjGhqrqffGu/Ptobl+nzp1NO58aLR5q6YAgFULcernIx76tSMxs3KymYqZnzwSU3/xdFx5xz0x3Rz/xpk48pP5ufVdB2P20sV8zlVLV/Nz7Lvfm885WbL6JNYUPDEXH75wKD50rv0nv6VopONUvOmefXHp4trSyrvOPRk/d2QmfqAabuo2vq+Fi3Fp9mC8qxpkQCPNv5n4yZYCazHfwF5k+TfyAuqI97NCUevw1scfijur4fGaip98aLZav4X4/fnZ+NER1hIU1BQA3IS+UjTv2R/78661eU9xflv4SGP8/h+rxf61zRIa44ppH3kinq5Gr/GpizF/38G8ZNJBUfj/3NE4/DsL+ae0momD983HxZXq86V44hMRh/ZOWkhQBgWTVktwJX716FOdf/FbOBW/GoeiSMc3vvdQvGP+4pBNFIbzlS88Fe+4Z7oa6iRf18Or7aCL7sNHr1TTUjXO/FuIj1aF1UEMl39zHa5PmCyjLaCOPp/KWod7Ho/ih5G1BtlPNpgXM8fjA089HB8pm0AdH3kAqKYA4CaTBwT7/+HTcfBDT8aTv/Zk1D/5UMTPH67a70/FzM81xj/5ycU49MWHG+OLeYoagE/WG9N+OuKpzxXvX2vpy0/Fvrd2K1fMxLl8mQ/92cMxvSYQyae0NiGa0KZDhax6nSD74gOXD8UXH+5wgeHF+XjHofc2CjFF04F989HeTGuU3vj2e+NzTy9WQ52sbQdddB86M8Qv2S9KY8q/sg178Sv0kx0KnZ0Nl3/nBl7udhltAXW0+VReu/H0+mZIDYPsJ8Pkxb5YPSZPxd5DEZfm7437O3725qgpALjJFM14il/zVwrdM3H8AxEXrjYK6cU1AWVtwPsPx9HPXYmn/yIf2ZynfEfuje+NQx3awU79wL1x5c96lSsaQUf9N/NA5Px07G/+wtXShGhSmw4VJjAoyE0fiV8r0nN/60WlRfOAiM8dna7uIjMdv3olLwy0NW0Yqel7xl4b8aI04vwrCpzvP/WF+Om8wDhUwf1Fln8jL6COLJ8W4qMPPxXx1MPVL/0H4lLMx8/vH/Zi43bT8dZ1MfZSfDn/qFZlbca+e+JN1fAoqSkAuPl0/TU/Dwimf/9gPF7UBuTd5fsao3vXALR40z2xr+36gI7eOBPn7p+NK594ompK1GxCNLlNhwqTGRQUZs6VFzn+w7kq6Yv24fvOxG+Wd5CpusUz4y30TR2J+2eLws1wd7whN6r8WzobH374nvjQuQ1cQPoiy7+xFFBHkk8z8XMttQC/9uTluC9m4589eW6TzXmm4gfufSrOt15YXt4VqdG0aSuoKQC4yeQF9/jVU7GwcuJfiFNVQbxZ+G+cQhbi4qWyJ6aKKudinsZgHjycigsdmg/FG4/EQ3nh/sD7z7ZdN5D71Nk429JkqPisuPPtKzUCZROi84cntulQYXKDgty7zi3GB546UN6LfE2Thqaq0Lem0DCUtW2dP9JhOe86V4/fPPR0fLi6x33566kgYSAjyb/Fp+NzV47Gh6s8KruV25KmlX/jKqCOfz/buHedezze/fTh1bw//HTc//ho7zDUi5oCgEl2JY5+uLpwOO/miuY6ecH9yX8W8fDK+IeL2xDGkfzEMfWTD8W9n5iOWnkx8RfinqqmoJjn8Q/k81QXGs99+WDH5kOFmZ+rx+K7n47D1TMKGs8kyIOEd7034vcPN4bz7vCfHYrF1vtrlxciX4l77z8ykU2HCrWX7rql/urXvj4+2+mKii4+/vGPxzvf+c6y/4tvfnP5yta480tfKl8//elPx3ve856yf1DybftsJt92//J/aPT88t3lL/dsnSLf3vIv/nPZf/0Xvq98BaC/1jLHm7+ozLGVvnTnxsocE11TAKzSlGXrqSkAIBXlLUn99giTTwF16wnEAEiFmgK4SSigbj2BGACpyMomyqoKYOIpoG49gRgAqVBTADcJBdStJxADIBWNmgJVBTDxFFC3nkAMgFTUbrtlR/21r399XPvc09Wo/lpvM8X22OwtSdkem7kl6Z//k5eUgUFRUPW6da/xC8+U6e+WpACDU+bYfsOWOWq37dhRf80bXh9PCQpuKoKCm9NmggK2l6AAYHDKHNtvy4ICtt9GggK2n6Dg5iQoABicMsdkGCooeMnOW+uvfu3r4trnBn+iMQAA8OKR7dixI2q1WjUIAACkJrv1llsEBQAAkLBsxy1qCgAAIGXZLbfcElkmKAAAgFSVQYGaAgAASFd2iwuNAQAgadmtt94atSyrBgEAgNRkO2/bFcVtSQEAgDRlt+3aKSgAAICEZTt33SYoAACAhNX+7n+9r379W9+O3/vk/12N6m337t1VHwAAMMmuX79e9fVWm/lv/2796399PX73479XjeqtCAoeeOCBaggAAJhEjz322OBBwcH/bqb+1a99Pf7Nx363GtVbMyh45JFHqjGT58EHH5zo9UuN/Jgs8mOyyI/JIj8mi/yYLPJjsgySH694xSsGDwr+wf/wE/W/+MuvxRML/6Ya1VtrUHDHHXdUYyfL+973vnj00UerIbab/Jgs8mOyyI/JIj8mi/yYLPJjsgySH8WzyAYNCrLv3bgRy/V6NQgAAKQme+GFF6K+vFwNAgAAqcleeP75WBYUAABAssqaAkEBAACkS1AAAACJy57XfAgAAJKmpgAAABKXPZ8HBTcEBQAAkKyq+dCNajBBC3NRq+2LM0vVcNPSmdhXq0VtbqEaUVlaymfZ15jW7Pbti7kzC9G+iFYLc8X7zqy+p9PnluPa3tdmqOW0dfv2zcWZhaWe6zkRlhZiLk/TNeufr3u+6qu6fMdaLX9f9ZbB0ybPvzULz/VZfpkPHac3u8bnLp0pvkfLOrVZl5+TZqj0Giyt9+X71Nq3tb+nvauW2+kzWg28DkPsC92OA7nGenfL23wb7jLfhjXXpVfXvi0Ne7zqlsZt6bCZ7Xpp4UyH/buxTh31yIMVA25r6wyy7F66bF9rjxPDbSNd024Uedlc3x7HnNbPH2r9B1h2U2P7yffD1pXrkJZD6/SdW/WbPvC21n8fWbGRMsOGz4FdtvlO69xx/jGUEwb+LhvMtw2WyQoDHYuGTuf1751rX/FO36fjvFtfbsuee/6FWL6hpmCtfCOePhZXZy/H4rmZalyu2Omnp+PAfMSe05fj8uVGd3pPxPyxAzE9wMFwIFePxf1d945B7Y3ZlnW8fPl07IlrcezAdL6ebTvkJMl3jH3TB2I+X9vTLes+m096tvGOFu3fseiOx3Q1tbvW+fJl770a83m6rD8PdF/+zLnFWFxsdpfL9dubv3d13Pk4OlUu5EVg0PTqZG0ani4San7tvjL+tGzPx8H3haVLF+Lq3r2xd/7kuhPSzPHT+ZLn42SHfXXpzMl8ymxcbj1+bNbUfXFi5Tus7U7vLd6wN06fPxorSTWy41WX4+HQisJBLaYPXIhrew6tXf89eY5ceLbj+vTKg7X6b2vtBl92Lz2OE6PaRkZ97hnwHLOh9b96IS71XPRCnDp2tepvtzYtt9rGt4cRlhk2cQ4cZJtfa+PHxoEM9V02YMP7xbDHomHSef17549ND/jDw5jzYxBvesPr6lNv+8H69evXB+ryWeoPPPBA/Zvf/GZ9UhXrN7DLs/l32ls/vVgN1xfr+Qm2npdK8r5Wl+t53nYYX1k8Xc/Py/WYvVyNWOvybNu86z43V42bnd27flplmOV0mn9lPbt9jzEYPD+6pX0Hvb5j08BpU31ua94NsvwVjW1jb4c3L54u8nI2f0dn6/JzC2xu/ygMmF5d0rCRJt3Stnta9s2TIdah1HdfaHzP2cuN107rVObfuvzt8R06GCo/Oqm+x9rP2+Dxal16dd4nh9+uq+UU83RcoW7650FpQ9ta52Vvfv9Ya9htZH3ajSovc9W4Yc4xA69/tey8TN31PFho5knxvk7zt6/TSPOj5/SNbmuN96/Pn43kW7dlddDlu3Tc5ju9t1da9Dg2bsv5vOP0De4XzfUa9Fi02XTOrXtvp/f1SoNN5kdRbu9Unu/UZc8XNQUpNx9qszA3HceuzsblKy2/uOUW5opot+2XuFZTR+N8vqXFpn5xarj7+Ik8kr4ax04N9FPscPL1vJIf5Ytfisax+M1ZjGeKH5D23NU5jcftWudfKulig+k1ddeeqm+b9dsXFk6Vx4KDM1Nx36G9cfXCpXXfd+ZcUbPR9kvqwsXyF9QTW1JVtBRn7j8WV/eejvMtnzeq41W34+Gwls7cny8nX5/Fc5En5+AGyINeem5rHZY9DpvdRsZx7hnmHDPc+u+JEyfyfarruizFpQtX87LNodjTrbJgu2xwWxttmWHz58CRHF9HUk4Y7/l8o/vFho9FbYZJ56n7DuVrejWeWaxGDGsk+TGY7LkXno8bmg+VinaOB+arjaUa17AQF+fzl9kTPZsxTB1tHGgv9K47HcBMnCs2gPkDAzbRGNLMwXw988VfHPPWNbSZOFiu2OAnt9FoHLz2HrpvLAevF5/NpddCuTPtibsmIbF77Avles4eLI8F5UG9Y7OImTien3hWCxB5If1kfqo6fbztGDIeKye4NSfG0Ryvuh8Ph9UoCPZbn04Gy4Puem1rnZY9HpvZRsZ17hnmHDPk+pf7VJd1KQvee+PQfXdVIybHRra10ZcZNn8O7LXND2XT5YRxns83mr4bPxa1G1k6D2qLym3Z888975qCwqW5mD52NWYvX1m/sSw9G9fyl71392utPh1354Hp1Q2Hgy1mzkXjmD2Xb/6j1ljPSfxlvPxVau/VODZd63+R4EgUFyk12sZuzS+7N7vh0+uZSwuxsNDozsw1TqKzlzdb0ByVbvtC46Qze7Bay6n74lCxXXb4maY88TR/wal+bdySbWnpTNyfH7P2nm675mIUx6tex8NhLV2K4jzcf33aDZ4HTYNva52XPS4b3kbGee4Z4hwz3PpXQcSxU23LbQQToyiQjd7w29q4ygzDngPHd3zdfDlhbOfzjabvho9Fm0vn8lqV2Bsb+NgWm8+PQZS3JPWcgnyjPZYfEfaejuM9cnjPFv+02ay2PTCW6oJJNRPnrizmJ6v8pFJcyFNeud/tYNI42DSv0i+7gdKqdb7pOHCtuAiq069eG13+i82g6dXJ1fKCrwMHGt2xa4fi8uKV2Pj1qh3ypNkVV5uNStU8ollGyEsJZZOCmL/YoQDVKATNn5yLuS2rJejcbKjVxo9XeRoPcDwc1rr1KS4SXJOHbYXTofKgMMS21m3ZGzLIcWJz28i4zj2Dn2OGW/9Gc4n5WPOjZlkg2xunR7lRdbSBY8QGtrXxlRmGOweO9vg6aps8n/fJt43uF0MfizaRzksLc+WPN5MZDK+XZVktYgN3/npxyQ9Ul0/H3qvHYrrHwfHas+OMzzppHIjHU/2W2662+31N5SerK1FfLA4m+dfveheB9iv18+74IKH42vlO77kWFw50ujvARpf/YjNoenVSVK3Xo7jWaTHPzGIfOzlwE4dOOuRJsyv2lY1asy9Uv2juvTtac7tjQafS+CV1Pua3qpagaobRtT1tbuPHq8GOh8Natz6td1Nal3fD58Hg21r3ZW/MYMeJzWwj4zv3DH6OGWr9p45G49KC1eP2wqkiiD0U94199xj2GLHBbW2sZYbBz4GjPb52sOlywibO5z3zbePpO9yxqDBMOq8NbqaLgGbTd25rMeZyW7ajlpUrnrzp6kKOPJpdc+/kwtRdUVxS0r9qtmprvbk6ojWmjp6P00X12/2ddqKNGv16jsVUdTAp8iXfCTvdQu/u+2ZiZqaly+cZROt8R/PPaOZ9+/F9o8t/sRk0vXqZmjlXXvh19dj9mwpy1+VJs9vQBXYd9oWqirnY5qZXfjnKu+KWg/nozm06q6rdqk3yeC3EXH6iWddsqGkUx6tex8NhdV2ffP/ulncbyoNVPbe1HsveqMGOExvYRrbg3DP4OWa49S9vZ7rSLr9qnnOiexA7SkMdIza6rW1FmWGAc2DTqI6vq0ZcTtjI+bxbvm00fTdyLGrTP51bgpviltp5IHElDwg2v92POD+6yGo7GjsAuTyzF8vMnm7byZsXzHSrSmxo3Le5uIhqlIe9qTh6vvGLxOafXdAwnvUco5nj5X3Y+x8ANmH67jxFRq9xh4Jr0fkHjaV4tmgYObE1Nj1sML3KXxuLX1J6tdXdQp32hUb7z9nGAb29KzbELb8Qfq3yrhs9mg2N7HjV9Xg47HY92Pq0GkUedNvWei178mzFuWf055hSS7v8xvq1Ns+ZHJva1raqzDDgOXCUx9fNbVM9jOR8vtH0Hf5Y1Em/dF4JbvJAaFSpN7b8aFPVFFRD5Jl9paziKnby1l9Bmw9xOdDtYRjVRX+d2401fiXZ8N1tqltrFRduXaxGbVTRvq24OKrrr4wTqREhj9XiM/kuPgbVnTg6HjyqX6hWLm67mWw4vcZ8Z60hdN4XmnenONg4oLd3ZZOCYe7yMmL5Ope10X1+cd3c8WpVt+PhsNt13/VZY1R50Glb673s7bf+XDGqvOxphOeYVXmwUd2e9P48zbfmWpthbX5bG0+Zod2g58DRHF/HW04Yzfl8o+k73LGom609j21lua1RU+CigjWKJ6wWkez8gZbHUFf3iS3bEFYXy7ReiV5WNe493dJubCkWzpxpTN/XuJ/uZiK8RmQ6H/P5CWNQrVfLL5yZi33lE/zyNZm9HFfGvWVtSPGUwSJtG+nW6IrHkFf3I+5wRdea71h1SwPs6e13EthXlLQ6XDS20eWvarbZPVA9rrxaTpEf1TYz9uvuRmDQ9BpI9UtRa3vjcRt4Xyjb6hdlhC5frGorPeg9zEer0WwoX+k4mPevfJ/WrrlxDn286q7j8XDY7Xrd+rTs48U8RZvuplHmQfu21m/Z26LPuWKEednLRs4xfVXB49XyNqSDnXNa99WxG9G2NpoyQ2H4c+A6Qx5fBz42Dm0E36WXje4X6+brcSzqZUznsfHlx4B2v/y2+lvf/AMdn2zWqctnKZ+g9uJ9onFT9bS89ic5Ll6un57d23i6XLPbu7d8CuJazafmFdNn1y9/2CfaFcrpxfJanmrXdTnVZ690+TrPnh7yaaKjMXh+5Gmep+VA693xOza6lQcYDpE2s6cvr31S4CDLX9Hh6Z5tFvPllU/6XFlOh8/cIsPvH63r3WXdu6Z1l+25Wu5QadlreYWu67B+/bvtC/m5Ip/e/vTWNh3Xo9rf13+hvgbNj8a69enaP3/g41Wlaxp3Ph4OvV0vLuYfsX59WvNjQ3nQdb1z5bTGtjbIskdz/uik2zbS51zRNIq87Le+VVqtOces6LONl/OuT9vF4mmu6+bpsJ83P7ulK4w0P9qmj3Zb67yPDJdv+TKGOgd2+a7ltI2dC/uVE8Z3Pu/yXQq9pg+7XzQNcCwq9frsKg17pnMnnd5XLWttN5r8KJbVqTzfqau96hUvqb9i96vjjz5TNALtb/fu3ZGvRDzyyCNxxx13VGMny/ve97549NFHqyG2m/yYLPJjssiPySI/Jov8mCzyY7IMkh/FdcN5gb8a6i0rLzJ2UQEAACQrq14BAIBElTUF6gkAACBdagoAACBx1TUF1RAAAJCcrBEPiAoAACBVmg8BAEDiaq971cvrL3vFq+Lf/9FnqlG9NZ9TAAAATK7HHnts4OcU1F6bBwUvf8Ur86Dgs9Wo3m6Wh5c99poHqyG22wNff8TDTiaIh89MFvkxWeTHZJEfk0V+TJZB8mOoh5ctL9ejfAgyAACQpKxeXw5RAQAApCurFzUF1QAAAJCerAwJ1BQAAECyGtcUVAMAAEB6snpRS6CmAAAAkuXhZQAAkLiRBgXf+c534rvf/W4sLy9XYybNrjjzj+6M+i/9nby7My7/+K5qfJs33BGX/+kbY7YabNr3Q2+MxXLeav4fap+/9/L7zb/vx9unVxNW9Fv/cU8fg6WFmNtXK++jW3RzC9V4ttzSwlzsq/KhVtuX58VSNaVpKc7M7Vudfmbt9H7zb3b5rRbm8vfsO5PP0Wqz80+och+Zi/Zdo396Mkpj3z/OtE+vJqwYcPvusr1sfv4JteHvO/jxgkG8SLevm9Zqfgxj5DUFP/uzPxt//dd/HTdu3KjGTI7ZvMB7JL4R+3/x81E7+42Id7cXvHfFbFEwP/L9MfPaatSKXXHv65+PU2fzecv5/1NM/9T3x5k3VJNzvZffb/5dcSj+Ng4X0/Ju/289HzM/tTYw6bf+454+cktnYt/0ybj7xGIUzdiK7txMNY0tthSLz94dJxYb+VBfPBTXDtwfrcf1hbnpOBYnYrGcfiLi2HRLwaXf/Jtdfot8uzk5X/W32Oz8k2cpFoqC4vSBmL9ajVrRPz0ZpfHvH5fiYJwvpuXd4uU9MX9gbcGp//bda3vZ/PyTZ3Pfd+DjBQN58W1fN7fW/BhGlsd0+ctwkUQvf/qnfxq/+Iu/GH/zN38zYYHBHXHwHX8bc7/xrbhSDH71W/HwJ56LmT2rT2Xe9+PfH8dflxfcf+sb+ebb7rmY/9hfxfxXq8Gv/lWc+tyueO9/0fw1vd/y+83/XBz9WDVv7spn/jY/IeyMe1aChn7LH/f00Vs4dSzi9Pk4OjNVjWH7TMXM0aOxkhVTR+PE7NW4cKm5JyzExfnZuJxHbeVbpmbi+Om9MX+xedTvN/9ml79q4dSF2DPbXo+32fknz9KZ++PkM3lB8vLp2FuNW9UvPRmt8e8fR49W8xZDMwdjNq7FsyvZ2X/77r29bHb+ybO57zv48YJBvPi2r5tbW34MYSzXFBSBwQc/+MH4/Oc/Hy+88EI1dpv90Mtj5q+ej6eqwcKVrz0f8bpdsa85/LEvxvRv5AX3r1UjetoV97wuYvFrzzUGB1j+Wm3zr1HUWLw6pj/3jTjaDCL6LX/c00eu2Gj3xqH7ht1k2RpL8ey1iD13VfmzcDHm994d042h0tRdeyKuPdshgC60zb/OBpe/MBcnrx2K4wer4abNzj+Bpo5eiSvn8oJk65fqql96M1rj3D+KX1RPxrXZE3G0OXmA5ffcXjY7/wTa1PcdOr/o6UW4fd3UOuTHoMZ2ofHXvva1ssbgC1/4Qjz/fF64nER5oXfptTvj3mpwKD/0mjjy2r+Ni5+phjvptfxO87/htdU1BXfG8df9pzj1f32rmtBFv/Uf9/TNWHo2rkV+0Lg0t9KOdt/cTdLGOwULp+LY1dk42Ks51/TdsffqM7FYDa7Rb/4NLX8h5k5ei0Pnjw7268dm57+ZDJKejM449o+iOWV5LJyOk88cihPH+2Rmr+UPYrPz32z6fd/U0mPcpOdNaax3H/r2t79dBgbf+ta3JqPG4D8+t9I8ZzPKC4bfszPOnv1KrGmaPODyu87/1b+K6aI9f94dvrYzjh+5c801C32XP+7pIzcfF1ba0S7GiTgW0xp1brvygsi88Hx68VysKZbsuWugwnTX+SsbXf7C3Mm4duj86q+n7TY7/02qX3ozWmPbP6aOxpXyWFiP8wefiZPT+9ZeIzLg8rva7Pw3m37fN7X0GDfpOVk2mB9Z8QvtCC8pWOOlL31p/NIv/VLccccdceutt1Zjt1F7U5jX74yptiYzve0qL8Z9/D3Px+F//sXVpj1NfZffZ/4WVz7zlbZrDnL9lj/u6SM3GydW2tFOxczx07F3/mIIC7bLUl5w3hf3n7w7zl+5sr7w3F61vvhMXF1TRdln/k0sf+nMvjiQh41XepXoNzv/TadfejNa494/Vk3NnFt/jUjf5fex2flvNv2+b2rpMW7Sc7K058eA8qCg6huxZkAwPT0dO3furMZuow5NYfblhd5hfh2f/UffH8f/41/G9D//q/XzDLD8nvP302/5454+alN3FY2HmCALc/fHybvPx5UrHZrXdKgKXmo0il55b8/5cxtf/lJcunA1Yv5Adbu7vDswH3H1WEzXqju0bHb+m1C/9Ga0xr1/9DTA8nva7Pw3m37fN7X0GDfpOVk65MegGjUFI/aDP/iD8Su/8itx1113TUZAUCjv9vPyON689/4b7oiH3h1xtl+7/aY3vDaOv+P5OPWxThcG5/otv9/8+fQzLc8tKJoYHX/Hc/HEZ6v391v+uKeX1ztUzZm69Q9lJg7OzseBuYUqml2Kxt2IjudT2HLlbTr3xIluP1+Wd0uZj5PN9gxLC9HIriq3+s2/qeVPxdErjWYVK93l2Yi9p2OxXjXB2Oz8N5t+6clobcH+cabluQVFE6OTrTdi6Lf8fjY7/82m3/dNLT3GTXpOlvb8GEJWiyxqI2w/VAQERQ3Bm970prjllluqsZNh/je+GE/cWz2c68irI37rL3s24Vnv5XGuvBC4pfunr11pctN/+T3m/2pe+H9P88FhfyeefE/EqbNrmxj1W/64p4/azLnFuBwnY7r89XY677sc5xVytlEepDV/SW92LQ/4KvLr0IXpxvjpkxGX29vn955/88vvbbPz33z6pTejNcb9Y+quiJPVvHlXzH5icW0TI/vHcPp93/SOF+MlPSdLa34Mo/aqO15Wv2P3K+OPP3utGtXb7t2744EHHohHHnmkvFagVfFE4+Li4le+8pWxY8eOauzWe9/73hePvebBaojt9sDXH4lHH320GmK7FfuH/Jgc8mOyyI/JIj8mi/yYLIPkRxEYXL9+vRrqbaTNh26//fZ4zWtes60BAQAAMJzyQuNRBgYAAMDNJcsjgqoXAABI0VjuPgQAANw8xvpEYwAAYPLVXvuq3fWXvfyO+KPPfLYa1Vvr3YcefNAdfgAAYBI99thjA999qAoKXpEHBZ+pRvXW65akk8ItsyaL/Jgs8mOyyI/JIj8mi/yYLPJjsgySH0PdkjR/e9ULAACkyDUFAACQOEEBAAAkLot61QcAACQpq9dFBQAAkDJBAQAAJE5QAAAAicsiqaBgKc7M7Svv2Vqr7Yu5M0vV+DZLCzG3by4WqsGmpYW52FfOW82/0D5/7+X3m3/pTPv0asKKfus/7uljUKZ18XmNbv13ZqtM/PadL78xbXUZa9+y2fknS//0qnQ5XjFa9o8J1XX77/N9+05nOAOmp+PVFlnNj2FkKYUEC3PTcSxOxGIeCNUXT0Qcm2478C7FQnFgnj4Q81erUSuWYvHZu+PEYj5vOf+huHbg/jUHzd7L7zf/UlyKg3G+mJZ3i5f3xPyBtTtOv/Uf9/SRWzqTp/XJuPvEYiNN8u7cTDWNLTb52/fSs9di7+nVbaVevxJHp6qJuc3OP1n6p1fxnu7HK0bL/jF5em///b5vv+kMp396Ol5tpdb8GMrul720fudb3lK/fv36QF0+S/2BBx6of/Ob38yPG5OpWL/1LtdnYzb/u2rx9N56zK6OKYb3zp6uX758ur637b2dXJ6Nen4QbQ71XX67tfO3K5a3t746ud/yxz194zrnR/6JPb8/49ItP9pN1vbdGO69vM3Mv30Gy4/29Kq+zxDHKwZj/5gs3fKjXN+u23+/7zt8ftHQOT8G3L4cr0ZukPwoyu2dyvOduuo5BQnUFyxcjPm9d8d0NViYumtPxLVn8/i1Gj56Ja6cOxozrW/qaimevRax567qp5QBlr9W2/xrFBH1ybg2e2L1l5p+yx/39JFbiIvze+PQfRP9U1TCJmz7zi0+0+Pnpc3OP9E6pFduuOMVo2X/2G49t/9+33fo/KKnAdLT8WoLdciPQaX98LLpu2Pv1WdisRocysKpOHZ1Ng72au7Sa/md5i+a05Tt8abj5DOH4sTxPm1p+q3/uKdvxtKzcS3yg8al1Xa0++bOOCBPigndvq8emy63lbLN6ro23W02O/92Gza92Dr2j5tPr/wo9JvOcKTnTSmtoGDPXdHpd5lhlReMnbwWpxfPxZrD9oDL7zr/1NG4UrTHy7vzB5+Jk9NtF3r1W/64p4/cfFxYaUe7GCfiWExr1LntJnX7njnXmLfoFi8XbbLb2qxudv5J0y+92Bb2j5tEv/wYML8YkPScLBvMj7SCgvaqwcVn4upQVSxLsTC3L+4/eXecv9LhIqy+y+8zf4upmXNxYvZqXLjUssR+yx/39JGbjRNHZ6oNdypmjp+OvfMX2y6mZOtM+PbdYmrmaJw/vTfmL7ZsLZudf4J1TC+2mP3jptLv+w6RHgxAek6W9vwYUBkU1FO4BVGHqqzibgvDRFMLc/fHybvPx5UrR9fPM8Dye87fT7/lj3v6qE3dVTQeYoJM9PbdQdEGeu/d1Slns/NDH/aPm0i/77uB9KAH6TlZOuTHwIq7D731zW/ueBVypy6fpbza+ea7+1B97d0eFours9fezWPFYoer4zuNa9Nz+f3mz6efvry6MouXZ/P3r12/fus/1unl+lfD3fq76JUfxd0JGrMurv18xqZjfvTbPnP9t49xbt/59nG6ua0Uk9dvd5udf7t0y49+6bVigLxjcPaPzvNvl27njxVd0rb39+0/nc56nc8HSk/Hq5EaJD+Kcnun8nynLqnmQzPnFuPQhepCqumTEZfP96zCXW8+DpQXYbV0+1Yvju2//B7zT90VcbJ5kVctitlPLK6tYu63/HFPH7Xi8y7HyZguPq+4uC4fOj/OD6SPyd6+45nmtlLM/0wcGvH8E2WA9GKr2T9uJv2+b//8YhjSc7K05scwakVNwe5XvTr++LOfrUb1tnv37sgjk3jkkUfijjvuqMZOlve9733x6KOPVkNsN/kxWeTHZJEfk0V+TBb5MVnkx2QZJD+KwOD69evVUG9Z/vaqFwAASFE2bNUCAADw4pIVIYHAAAAA0pVpPQQAAGlzTQEAACSu9upX3FG/Y/cr448+85lqVG+tdx968MEHq7EAAMAkeeyxxwa++1DtNbtfUX/5K3ZvKChwS1IGIT8mi/yYLPJjssiPySI/Jov8mCyD5MdQtyTdke2IWpbUM8wAAIAW2a233hqZoAAAAJKV7dy5M3YICgAAIFllUKCmAAAA0iUoAACAxDWCgh07qkEAACA1rikAAIDEufsQAAAkLnvVq14Vu3btqgYBAIDUZK9+zWvitttuqwZH6zvf+c6aDgAAmDzZq4uagjEEBc0g4IMf/GDZFQQGAAAwecZWU/AHf/AHcd9991VDUfYX4wAAgMmSverVr47bRnxNQVEj8O1vfzv27NkTf/qnf1p2RX8xTm0BAABMlrFeUwAAAEy+7DVjuKbg9ttvj5e+9KVx7dq1soag6Ir+YlwxDQAAmBzZ7S95Sdx6yy3V4Oi8+93vjkuXLsVP/MRPlF3RX4wDAAAmSxb1etU7ekWtwI/8yI+UnRoCAACYTFl9jEFBoQgGBAQAADC5suoVAABIVDbeegIAAGDSjfWaAgAAYPKN/ZoCAABgsgkKAAAgcbXf/8Qn6h/97d+OD//yL1ejetu9e3c88MAD8cgjj8SDDz5YjQUAACbJY489FtevX6+Geqv93sc+Vv/tf/Wv4p+dOlWN6q0ICn7913+9GgIAACbRz/zMzwwcFGTPP/98LC8vV4MAAEBqshdeeCFuCAoAACBZZVCwfONGNQgAAKSmERSoKQAAgGRpPgQAAInLvvnNb8bzzz1XDQIAAKnJvv71r8d3BQUAAJCs7Bvf+EY8993vVoMAAEBqyqDgu4ICAABIlqAAAAAS17imQFAAAADJyr6RBwXPudAYAACSlX3zW9+K559/vhoEAABSk+WiVquGAACA5JRBgagAAADSldXygKD4BwAApKlqPiQoAACAVDWaDwEAAMlqNB9SUwAAAMlq1BSICQAAIFllUOBCYwAASFfZfEhMAAAA6VJTAAAAiSuDAjEBAACky8PLAAAgcWoKAAAgcVmmpgAAAJLmccYAAJC47Hvf+14s15erQQAAIDXZ9258L+rL9WoQAABITXbjxo2o1wUFAACQquzG9wQFAACQsrL50LKgAAAAktWoKVh2oTEAAKTKNQUAAJA4zykAAIDEZcXDjGs1TzQGAIBUZQICAABIWyMoEBcAAECyyqCg+AcAAKSpqikQFAAAQKoy9QQAAJC2rJaHBWoKAAAgXVlOTAAAAAnLslrxqAJRAQAApCrLdmSaDwEAQMKyPCoQEwAAQMI8pwAAABKX7dhR1BQICgAAIFVZVgQEggIAAEhWlqkpAACApGU7sqy4sKAaBAAAUqOmAAAAEudCYwAASJygAAAAEpflBAUAAJAwNQUAAJC47MaNG1Gv16tBAAAgNdnysqAAAABSlt343o1Yri9XgwAAQGqy7914IerLagoAACBV1TUFagoAACBVVfMhNQUAAJCq7Hs3vhf1ZTUFAACQqsbdh/J/AABAmrLqFQAASJSgAAAAEicoAACAxOVBgesJAAAgZWoKAAAgcYICAABInKAAAAASl5XPKHBZAQAAJEtNAQAAJE5QAAAAicuKlkNaDwEAQLrUFAAAQOIEBQAAkDhBAQAAJC6rlxcUuKoAAABSpaYAAAASJygAAIDECQoAACBxggIAAEicoAAAABInKAAAgMRl9cY9SQEAgESpKQAAgMQJCgAAIHGCAgAASFwW9XrxHwAASJSaAgAASJygAAAAEicoAACAxFXPKXBRAQAApEpNAQAAJE5QAAAAiRMUAABA4qprCgAAgFSpKQAAgMQJCgAAIHFZPfJ/WhABAECy1BQAAEDiBAUAAJC4TMshAABIm5oCAABInJoCAABInJoCAABInKAAAAASJygAAIDECQoAACBxggIAAEicoAAAABInKAAAgMQJCgAAIHGCAgAASFwW9cj/e64xAACkKqvXBQQAAJCybDkPCgQGAACQrqxeX656AQCAFJXNh1xTAAAA6crKcEBMAAAAyapqCgAAgFQ17j7kQmMAAEiWh5cBAEDiBAUAAJA4QQEAACROUAAAAIkTFAAAQOIEBQAAkDhBAQAAJE5QAAAAiRMUAABA4gQFAACQOEEBAAAkTlAAAACJExQAAEDiBAUAAJA4QQEAACROUAAAAIkTFAAAQOIEBQAAkDhBAQAAJE5QAAAAiRMUAABA4gQFAACQuKxWq0UUHQAAkCQ1BQAAkDhBAQAAJE5QAAAAiRMUAABA4gQFAACQOEEBAAAkLgt3IwUAgKSpKQAAgMQJCgAAIHGCAgAASJygAAAAEicoAACAxAkKAAAgcXlQUCv/AwAAaVJTAAAAiRMUAABA4gQFAACQOEEBAAAkTlAAAACJExQAAEDiBAUAAJC4RlBQL/8CAAAJyup1EQEAAKQsqy/nQYG4AAAAklXWFBT/AACANGVlPCAmAACAZGVqCQAAIG1uSQoAAInL6ssRbkAEAADpqm5J+srGEAAAkJzsxo3lqL/yTdUgAACQmuzixX8df++/vKMaBAAAUpP9/b//38e//bdPVoMAAEBqsh3Zjqjl/wAAgDRlWREU1AQFAACQquyWW28tIoNqEAAASE1Wq6slAACAlKkiAACAxAkKAAAgcVnjzkOaEAEAQKrUFAAAQOIEBQAAkDhBAQAAJC6Lev636AAAgCSpKQAAgMQJCgAAIHGZlkMAAJA2NQUAAJA4NQUAAJA4NQUAAJA4QQEAACROUAAAAIkTFAAAQOIEBQAAkDhBAQAAJE5QAAAAiRMUAABA4gQFAACQuCzq9Sj+AQAAaVJTAAAAiRMUAABA4gQFAACQOEEBAAAkTlAAAACJExQAAEDiBAUAAJA4QQEAACROUAAAAIkTFAAAQOIEBQAAkDhBAQAAJE5QAAAAiRMUAABA4rJ61KteAAAgRWoKAAAgcYICAABInKAAAAASJygAAIDECQoAACBxggIAAEhcFnW3JAUAgJSpKQAAgMQJCgAAIHGCAgAASFwVFLiuAAAAUqWmAAAAEicoAACAxAkKAAAgcYICAABIXFaregAAgDSpKQAAgMRlUYviPwAAkCg1BQAAkDjXFAAAQOLUFAAAQOIEBQAAkLgs6vX8pegAAIAUZfUiIBATAABAsrKoL4sJAAAgYY2aAmEBAAAkKxMPAABA2rJ6eaExAACQqkzTIQAASJvnFAAAQOKyWtUDAACkKavlUYHAAAAA0qX5EAAAJC5TTQAAAGlzTQEAACRO8yEAAEhcVov8n+oCAABIluZDAACQOBcaAwBA4tQUAABA4gQFAACQuLL5kMAAAADS5ZakAACQOEEBAAAkLot6veoFAABS1AgKBAYAAJCsLI8I8n8AAECqqmsKhAUAAJCqqvlQNQQAACQnDwqqPgAAIEnV3YdEBgAAkKqsrvkQAAAkrQwKxAQAAJCurBESCAsAACBVmg8BAEDiyrsPiQkAACBdjZoCYQEAACSrvCVpGRcAAABJyrIdWWS1WjUIAACkJtu1c2cUgQEAAJCmbOeunbFjx45qEAAASE22a+cuQQEAACQsu62oKcg0HwIAgFRlO3feqqYAAAASlu3aVTQfUlMAAACpyoOCncV9SatBAAAgNVm9vpy/eHoZAACkKqsv50GBRxoDAECysuXlG3lMICgAAIBUaT4EAACJy0JNAQAAJC1bXs4DAkEBAAAkK6vXb+QvggIAAEhVdsuOLGq1WjUIAACkJrtt162eaAwAAAnLdgkKAAAgadltu3YKCgAAIGFlTUFxXQEAAJCm7Padt8aObEc1CAAApCbbdZtrCgAAIGW14//4v6k/9aVvxkf/9e9Wo3rbvXu3JyADAMCEKx47cP369Wqot9r//D/9vfoff/Gv4zf/949Vo3orgoJBF97Ln/zJn1R9AKTubW97W9UHwKgMU27Pbr11R2SZ5kMAAJCqbOctt8SOzBONAQAgVdmtt96ipgAAABI2lqDg6NGjKx0AADAa4ypnZ7feMtqgoHUFz5w5U/UBAACb1Vq+HmVgUF1oPJprCgQEAAAwXuMIDLLi/qWjICAAAICtMerAYGTthsZVlQEAAKw16h/ks1E+nVhgAAAA4zWOFjpZjDAoKAgMAABgPMYREBRq8yf+cf33/vjL8b/+bxerUb0N87jkXv7kT/6k6gMgdW9729uqPgBGZZhye1ZUFIyyCREAAHBz8ShjAABIXFYPtQQAAJCy2v/yof+x/snP/EXM/+b/UY3qbVTXFAAAAOMzTLm99qu/8FP1f/fZv4z5fzl4UAAAAEy+gYOCX/n5f1D/d9f+Mh79l/9nNQoAAEhJtrxc3n6oGgQAAFKT1evLbkkKAAAJy+rL7j8EAAApa9ySVE0BAAAkKxMQAABA2rKImuZDAACQsKxWExIAAEDKslrUQlUBAACkK6vV8qAAAABIVMT/D9tR3F1Ue+T/AAAAAElFTkSuQmCC;" vertex="1" parent="1">
          <mxGeometry x="21.71" y="2570" width="802.73" height="540" as="geometry" />
        </mxCell>
        <mxCell id="bXhEvjdw58ReICiHxhLh-9" value="" style="shape=image;verticalLabelPosition=bottom;labelBackgroundColor=default;verticalAlign=top;aspect=fixed;imageAspect=0;image=data:image/png,iVBORw0KGgoAAAANSUhEUgAAAyMAAAHiCAYAAAD7+BP9AAAAAXNSR0IArs4c6QAAAARnQU1BAACxjwv8YQUAAAAJcEhZcwAADsMAAA7DAcdvqGQAADxDSURBVHhe7d1vbBzpfSf4X0tjH7wGJlpg73C7dv44Jj3QZPRiE+fGbMVZ+3ybAzW6DQ+X5a2RAxXcaUgs7FjUjYUkxuiVBk4WskAKibEgZ15kiA1yEPKCLzQicICRALkhY8B5NeNRZti2E2eNvWD3EiWAd3zji/qeqq4mu5tNskk1u4rU5yOV2FVdXV3dvy6xv/08T3WtmQQAAMAI/Y+fnIhTxWUAAICRyVpEhBEAAGDkajVhBAAAKEEtpRFhBAAAGD1hBAAAKMOhWkbefffdfScAAIC9ZGHkwKf2zcLGxYsXi7md7t69Gx/4wAeKOQAAgJ3+5Wd+XjctAAAYpvwT/wGmqsn26U//9E+LuZ2y64a632lbpYSRxtrtmDvfLsT5mFtrbC0/315+fi5up8Vrc7V0fX51h0bcPn8+v37kGmkfa3OxY5dKtxZzldwvAIDHT9b5aK+pir7xjW/ExPmf6xtIsmXZddk6w5Le8e8dRnrHgmTTo2qszcWllyKmXm0X49WYeue1aKQ3+ZcuvBUvtpe/OhXxWiMmp2ZjebXnLXbjtbgT0/HcWDF/xLoC0diVeL25FJPF7DD0D1wAADA6P/MzPxMbr/9fOwJJO4hk12XrDM0g3zOSjQ/pnB7NWty8EPHi61dicitIjMXklSsxtvlWrNefjvH28rHJuHIlzUxOxezyatcn/o3X7kRMP5duCQAADEtvIDmyIJLs2zIydGursTw71b9VIQsd6/Nx6fZadPe+moyp2eXYbhxpRCuL9Ikijaz71/k4n0/tLkut7ku3b5/Pu4TlXbvW5op1OtdrpMXFslotzudNFY24nZZdWI5YvpCWz93O1uruDtVxn51dzrbvt3VfreuKq7b02362eLdtJntdBwAAj6gzkBxVEMmNesxI4503o/70eDHXazKWmpvx4lsvxXjPm+yurlq7dtFKb/4vvRVTr74er7+eTZ1dqZbTbV6NZvP1uBK34/xLT8er+TppejHiQp4SxmJyqViW9mP6zZdScBmLK2nZvdmI2Xtp+dKV7taYFAzOj2/fZ7OZbexSx1iW5XjrY0ut6zan482XirCxpc/299rmvvcHAHCytMYY7z9x/GRlO1QYyU7fu9u0l7GPPRPrb20Wc/20AkFzM73Jfmk8zrffZXd01dq1i9baarw5fa2j+1en2Xgx6/KVybqDrd+JS0XrwvmXUkCKd/KQkI1nyZedvxTz6+ux565msm1lLT1b9zkZ1xYj7rzWTgezMdVORGMfi2fW34r9NrnnNve9PwCAk6Vz0PdeE8PT2TWrs8vW8B2yZaR3HEl7LEn2/SJ7fsfI+NNR7xn/0dfYZCy9OBvrd14rWhLaXbV276KVtboMbPbFVgtIe8paJFIQGV+d2moxyVorBrF7S8/h7bXNo7g/AADI9I4R6R1DMkyHbhk5tLEr8WIKFRfO93ZXStZux+2Orll5uHjmY1stIHlXrZcu7XoWrbHnpiPu3Ix9h1C0A1HPeu0uZK1Nr8Xqcn5hb2lbMd95n2txc7fxLIPaa5tHcX8AAJDsNlj96ALJAC0jB+mGNYjJpWZsTr8Vl/L+fdkg7PQzCyeTz0WsXmrNp+nSW9OxudQx1D0f4L4ez7zYM26jLTvlbt67K9ve+ZjbbSBFWu/Ve631Wl2yzqcQlC1+MZ65M57f9vzcO/F0R8tIFoTevJANau8JUdl9Ztu6VHT5Ov9SdqqwaPcIG1TX9vfa5pDuDwCAo9V+T7vbVEUf//jHdwSRtnYgydYZplrzgJ3s9vqukT27aAEAABQ+O/nPD95Nqz0upN8EAAAwqNGOGQEAAEiyzmrCCAAAUIJRfwM7AABAZuSn9gUAAMhpGQEAAEqQneJYGAEAAEaudkoYAQAAyqBlBAAAKINuWgAAQCmyMFJ78OBBs5gHAAAYiV/9lf9FywgAADB6umkBAAClaDabwggAADB6D4URAACgDA8fPhRGAACA0dMyAgAAlOLhQ2EEAAAoQbOpmxYAAFACLSMAAEAp/r+//3thBAAAGL33fvhe1B48eNAs5nf1ta99rbhEmT7zmc8UlwajbtWgbsfTQesGQLnO/NZ/KC5Rpge//o+LS/v7nyZ/YfAw8vGPf7yYowzf+MY3DvWmVt3KpW7H02HqBkC5hJFqOEgY+R/+u08JI8eFN7XHk7odT8IIwPGzFUZ+62z8xV/8Rfz4j/+4n6P8+W//c/70HySM/Pc/f/7gYeQ7P/Zj+U9G4yPf/W7+81Hf1KrbaKnb8fQodQOgXO0w8hf/+h/Ej33H789Rqn2qFvHr9/PLBwkjn574WQPYAQA4ObJP6hmtrGXkMN577z1hBACAk+Owb4w5vMMGwPd++ENhBACAk0PLyOg9SgAURgAAODG0jIzeYQNgrVYTRgAAODm0jIze4QNg6WGkEX9w/nz8QaOYjbX4SkpIX1krZnPZOrX43O2tlQ6p977adi7/3trt+Eq6z0+lfflU7Xzan+zK/rf/3u3zQ9i34+q41S/Np3U/V0zd+3mSlV+n7uNkt1pk+zUXX8/X2fb1uda+Zj979699HQC0HV3LSCNuf+583P5eMTtUe2+78fXbMfe5Wn7Wqtqnzsfc11u/D7Pl59vLPzeX337tK7V0fX51h6Pc9xPUMvL1uZfiO4ub8cXJYkGm8Vr8YdQj7rwW/Z6/7zXSG5j0xqb3Dcluy/fzvbW5+PJLEZ98tRl/1MymV+OT7/S/b7oNq35fnzufh4j8jerc7QM993vXrx6ff/X1+OrrralrPx8jwzzOcuk5/1SfELG3g9fi2WuL3fvXuB0rby7GZx/TOgLQ30lrGWl8fS4urURMfakZzT/Kpldj6i9fi8b3bselX3srXmwv/9JUxEYjJj85G8t/3PvG+LW4E9Px3IeK+SE7dACsUhjJPjldiRfjq1fGiiUt33vtTsT0qzHzzHz8fs/zmr1p/f3XIn7imWJBYbfl+1uL378QMfP6lXh2azfG4tkrV+KIandiDK9+a/GXT7+aQkTrTepMzMeXB/60Xv32M8zjrCWFlJfejJ8q5o7U2HPx6fR6aO/f12/Ox0deVFsAup2sMSNrcfPXIl786pWY3PqFNxaTv3Qlxv79W7H+U0/HeHv5hybjyi+l3+/PTsXs3dV0y22NjfR7/tPPpVsejePfMvLaXHz5znR8aan3I85GtJ67sfjw0/W4u9r9LunZpdfji1cm40eL+bbdlu9rbTXuzk7Fs8UsAxpq/SbjlzreKGe3G5j67W3Ix1kma2X5iVdfjI8U80drLH7pxdli/9bij5dn45NaRQDoUUrLyPeyblTn43yaOrtRZb9j177SWn7+U7U4390VpLUsu+4rr8VbxeIuX1+N5YtT6d1RH1no+OZ8XPqDtXQvnSZj6uJyrG51WWjEa38YMT1xVFHk2LeMrMfvzL/Z/xPOtZvxOzEd2XP3oeem46eWVw/YFeRgvvfOm/FTT48Xc/2kfb203c89m748v15c97g6yvqtxe8Xb5IHcbD6zfUZf3KSDb9OeSvL069G9iFMt0GOk0PWYvJafP7Nl+IreVeza4InADuMvGUkBZHzv/xWTH3p9Xj9q69H849ejPi1S8X4jLGY/GJr+et/tBnT33mptTy7Tdbi8UfN1nWfjXjzm9n63Rp/+WbUf2K39zaTsZS2+eKfvxTjXQEoXdPZVeuIu2hljnnLSD0+f286vvNSn4Grq8vxU9PPtd48ZV006svR2wVumD70sWfim29tFnP9dPdzz6YvLR7gk/sT6Yjql49RyD51f73Pm93+Dla/pYG3ezIMt0752Jy3dnb3ahnkODlILeqx/f/wWExMR9xdfiZm+t43AI+7kbeMZN2lstaLrTf7k3Ht8xF3NlrhIBvzkbd+fO5SzH9zPd7692lh+zb5GsmHnovpPn2ex370mVj/873e27TCTvP3UgBaGY/z7U/3OrpqHXUXrcxhA+Cp2qmKdNMavxJfzZ7D852DlbNuGBHfnB8vzoo0Hr+znt6E9HQhGarxp4+89eVEGnL9sje6n7v5Tnw2vVE9UGBQv70NrU5r8fsvvRnx5ktFy8aFuBvL8WvnDzqIvdd4/MSObN+Iv0x31Slvvak/HR8u5gGgUxljRnZtvUhBZPyPp+LVrPUjTfcuthbv3eLR4cNPR71n/EdfH5qMpZnZWP/D14ouW+2uWkffRStz6JaRU1UJI5nJpXzw7C/PFU931v+/vhi/l58RqZg2F4/2zebYlZiZzd5UHewMTiTDql/jdnz5pafjS0uHGJisfvsbSp0m44sdrR5fff1eXIzZ+DevLz1it6mx+NFn3oyVzhMW5Gf5anUhA4BBjLxlJAWG+J2bsbb15mMtbhYBoB06Wr/G1mL1bn4hxrJm/uw2rdkUWm7GnT7dtOJDV+LFFCoufO52z7iQ5Ou343ZH16zsvuIjH9tqAcm7aq1cOvIuWpnDBsDaqYqd2vfZpc34/JsX8u8S6Oo60la82ex6s3Ig3X3Zv9JnO88uNeP3pt+KL+efEmenmM2+D8Gb20EMpX6bb8U31+fjy0WN8mnr9L7qNwxHf5wd3rNLr8an37q0XftLb8XMq86YBcDgjrZlZD3mv1wMSE/TXNYtKgWG1/9NxEtby1/KTu0ZV9Ivr7FfejGe+cPxqOWD1N+Jp4uWkew2r34+3aYYwD73l1N9u2llJr/YjM1PvxWXiu8YaX2nSAonzz4X8ceXWvNpuvTn07HZea78fID7ejwzc+VIu2hlDhsAs25atQcPHjSL+V197Wtfi49//OP55e/82I/lPxmNj3z3u/nPb3zjG/GZz3wmvzwodSuPuh1Pj1I3AMp15rf+Q+vCb53Nv3eD0fnuR74bP/5v/3N++cGv/+P85yA+/XMT1WoZAQCAR1HGmJHH3eHPplWlMSMAAPCIRj5mhMOPGalVbMwIAAA8Ci0jo3fYAJh1phNGAAA4MbSMjN5hA2Cz2RRGAAA4ObSMjN6hA6AwAgDASaJlZPQO3zISBz+1L+V41FPEUg51O56c2hfg+Gmf2vcv/vU/yANJ9gbZz9H9jF+/nz//Bzm17z+rTwgjx4U3tceTuh1PwgjA8bP1PSOU6iBh5OcnPjF4GKF8h3lTS/nU7XgSRgCOF2GkGg4SRj75iWcHCyMAAADDlIURA9gBAIAS+NJDAACgDDVfeggAAJQgZRFhBAAAKIcwAgAAlMCYEQAAoCTCCAAAUAphBAAAKIUwAgAAjF5TGAEAAErQTH9qDx48SJlkd2fOnCkuAQAA7C3li+LS3j75iU8MFkYuX75czAEAAPT3yiuvHE0YuXXrVrGkel544YVK79/jRj2qRT2qRT2qRT2qRT2qRT2q5bjU40d+5EcGDyPPPnuwMPLkk08WS6vl+eefj5dffrmYo2zqUS3qUS3qUS3qUS3qUS3qUS3HpR61Wm3gMPJzKYwYwA4AAIxczTewAwAApag5tS8AAFACLSMAAEA5asIIAABQglqahBEAAGDksjNvCSMAAMDoGcB+zK3NpURZj8VGMc+x0lisR62+GMoHAPTTfq9wYjUfxzCSv4Gv9Uz1qM+tnYw3he3Ht8eb3LW5va8fqV3qMfc4Jqwq1K5iAXct+0+4NhdrxfwjOY7HvnpUi3pUi3pUU6ORdj/ta+e+17Pf6xXf9+P8nPdTseNjNw+bzce1ZWQiZhfuxb17rWlhNi1avhDjVXmDPgwbV2Om6q/ALTvrsXx1PGrpP4DH0rGq3XHzGBz7x4p6VIt6VMsxrEdjMerj43FhOeJc576fy36vH4fXkmNg1JoPHz6+3bTOXpyMycnWNL+0HisLE+lN4J24eyJebelgmp1I72lnKp+I23rrsZnVY/nGsdn/4Tl+tTtKk/Pr0WwuxWQxPwwn+9g/WupRLepRLeqxFnPjV2NjYiE2m+uxNN+9783NhZjYuBrjFf+g0TEwWo9xy8hOY0+l2H6CnL12PWZjI67ePJ6tC2MXp9Pb8o24v1kseIwc99odNyft2D/u1KNa1KNaqlyPtbkLsZx+cy+szMdYsazL2Hzrjf0x+6DRMXC0msLItrXV5fTvuXiq9whqpKRf3+4/WK8vxlrvQZTWWZzL+op29DHsPNL6Xd+nD+LWgObGYnGfHX39evdjbr8mw8lYujebNy/u9yFEPg6hz0q9y7f3r3Nf6mn7rT1pLM7lP4/MPrXY/flr7Hj+2/u85cA1SuvXt9ffsW6xvc4+s4P3Ox1+7R7FwI8501uj7HXap9/qgV9zvfMdNa5nPzvW2Zb2JduHfX7rHf7Y3/t1NcwadFKP1qQeHffdO68e6jHyeqxFvmuz12O+d986jM23Pmy709HMMOjzm9vncZ6E5/zRa7G7UR4fg3r4OHfTun93LdbWWlP2YrmwPBGz95a6m1fTi7k+niX9hbi3uRmbm/fSy/FqXBjvHKCWipXWufrGuVi4l62TpnvTab3iI/1iG9n1rW1k16eUvWsfxDsxMxMxtdJMaXG9dVDv2I/NuJ6tl3XK3MvkUrTe0w5pQF0u27/VOLuS7ce9WJjYSNufibn0HM7cOVus8+gad++k/64m4ux4e8Egtcj0Pn/pP4P6eNfzfy/rvPp2sXrmUDW6EfevrxTbm4iNtG7XOI/N1bTWdFzfek20wsXAY0GOpHaPYoDHfNjX6YF113j9enqi+jShNxZvpH2Zjes9vxmHc+wP8Lo6UuqhHrtRD/UooR6Nt+ON9GNi65f2bsbjbNbr6TDdHvZ9nG2Ogb1V6fhotYzEgwcPmntN2XqXL19u/u3f/m1av5qy/RvYvdn8MXVNEwvNe5vF9Vs2m6k++XXdV91rppd1c2KhtTS9YUzbmE1L+9ltG8nmQjMdj83ZjhtuLkykbU00i00Xdt9G3/Xzx9e5rLW/6Ugq5ot97thePt+5I4Xe5f33r9h+x/YOXo/ubaY37vlzs33fg9Vir/3r8/AKh6nRzu31Pqf99K6Tb6vzNkdUu0eux0CPeffnMV+vZ5uD7Hem9znqX+Pivru212dZ/tiyfemY0rYPd+zv97ra/TGqR0E9curRTT0Kx60efX5f9rfzsQ72/A7yOLPdOP7P+W6vq8xxOT6y++iXKfpN4x/5SPOxPZtWeiLzNJZ9Yp0NqLrRG5ljM+5vpDWnL/b0fexM9a1myYmFa92Jectu20jGLsZ02s7yanee39kUuPs2BuvHOBnX0qtqeH00e/ev9XzEuaf69xEdyEZcHd9uChzPkvfsvdhcaj+rg9Sirf/+LV+ox2J3+2nhMDWajamego+3diRtbVveDDo3F3P1VjPxwT9QGHbtHsV+j3n353FyKv2XPFS9NR6Li61CbX861rgbdzbScX6t98gc1rG/3+vqqKmHeuxGPdQjU0493nj7qLY/yONscwzsrUrHR8tjP2ZkbHIpH1C14+xFRZPjRnaK2eJNcmsaj6upSLlinXPdr/pt+13fz8TZ9BLucJht9BibX8m7U12d6dfl6IB696+wf9PsXia2T6WXNQem/wTWUxDZesSD1KJtx/6Nxfz6Zt7l6eqF7Pb17nOdD6NGfWTnWB8fvxB30uWz16/H9ZVWU+hBDbV2j2K/xzyE1+nA+uxL64QHy9HOjXk3v4npuLjH7jzSsb/f6+qoqYd67EY91KOMeow9lSJA2o+uUNBP8Ub3oO8ZBnqcBcfA3qp0fBQMYE/aA6r6nb1odqHVV27HtPWp/f6fBBzdJwWDSgfFSuuUel19Aitk61R6Y2Npb/sbpBb9jcVkdlrBZlr33rl4IzvXec9gq6HWqLEYN5Y3slbLFKqWYr54XAf8r7dQ/dpVwth8ZN2CW61Yjbh7Z6Pvpzq9Hu3Y3/919dhSj2pRj2o5kfWYjPxD887Whz5a4zQmYnqvFLCHQ78PcAxUmjCS63P2onYXnZTyx7I3yL1Txzobd+6ml3Yfe12fNxGmF3NvW1mvXbsKRXGGhwGlA7GV8G/GarGoy47/QIozY1TBILUYSFp3cin/Dymlj1ZNhlGjgbT+8zuU41C7w7xOh7zfefNxts21m3F1Y+egxP4Oeex3Sct6X1dt+/xiPjLqoR491KODehxJPSavLeStDxf6nvglaSzGTNZ00O+MW/s9vwd+nDsdj+f80V5XQzGU4+NghJG2yWuR3u/F8o32QTQW89krJ70As9OZrTUa0cimtex0cWm+vU7xqfV4fa5jnbmoL2Zr7HF99sVAs/divzDffz9aZ3i48Uba4QNoJfzlWO55LeUHaPYfSHbatmL7c/UbccDNH6FBarGb7LHM5X02W49tsXWgb41xGUaNehTN1cs32ttL9arPxJ303/RhVb92B3udHsl+T07lz9GNG29kCTL9ChnQoY79/V5X/R/j6KiHevRQjw7qcST1GJuP9fTGPf99WnRL6jwrVa39hYg9v1QHe34HeZz7OAbP+SO/robi0Y+Pg8hGuz+mZ9PqPdNCoTiTQudJATbvLTRns7MKtJ6vZkxMNGcX7nWfYWDzXlqndYaCrXU6T7/Qe326/x3bSHrPxNFpM+1begl03D6t1e+x7PX4MsVj7L2fru2nfU27l1ZNl/uc0aF7062zLrTPZJEZWj167FeL3fev+7mfSI9px909Yo1aZ6joOKvaZue+pm2l10PvbXds64hqN5SzbwzymJOufcmfw3SrXR7Xfvud2fc569Hap13OYLLLfuTy6w5y7A/2uup9jBn1KOyyH7n8OvVQj3302Wf12N7HkdejLf0+XZhN97F1f63ttX7Opudu54Ma5PnN7P040/XH/Dnf63WVOS7HR/azX6boN4195CPNxy+McOTUo1pKr8cu/3kdhfw/8T1+EVWBelSLelSLelTLUOtRhJTWG9b0xreEB34cnvO9HJfj46BhRDct4IRo9bUdZFAio6Ae1aIe1fIY1mNsMubzAd3NaK4vxeTIH7hjoJpqxowAx1/en7WefVvsoIMSOUrqUS3qUS3qMXqe8+qq1QxgB465xmLrO12upl8y9zaXBh+UyJFQj2pRj2pRj9HznFdb9h0twghwtCaXotlc33kqxyEZmy+z2f8YUo9qUY9qUY8Tx3M+REdxfAgjAABAGbSMAAAApTBmBAAAKEdKI7XsHL/FbF9nzpyJy5cvF3MAAAD9vfLKK9n3GBZze5t49tnBw8itW7fiySefLJZWy/PPPx+v/KMXijnKdvk/3YqXX365mKNs2fGhHtWhHtWiHtWiHtWiHtVyXOqRjQMZNIw8+9/8rG5aAADA6D1sNoURAABg9JoPHwojAADA6GkZAQAASvFQywgAAFCGh01hBAAATpS1uVrMrRUzB9BYrEd9sVHM7a173UY00sXsfg+i+VA3LUqRXrBrc1Gv1/LTv+VTvZ4OmrS8WINRUo9qUY9qUY9qUY9qUY/SNRaj3n7uO6YLyxHLF3Yur9XqsV/WOPfUWHFpf1vrrt2MmZtZ+plozR/AI4WRd999N37wgx/k/b0q7b9+Mu797x+K2WKWMq3FXH0mZlanYmWlGc1mMa2sxNRqWl6fS2swOupRLepRLepRLepRLepRCWPzsd5+7jumzYWJmL23c3mzuR7zeX5I9dsRVGoxfnVjlxCzXc+s9aN73XrUb0RcX5os1jiYR24Z+dVf/dX467/+6/j7v//7YkmV/Bcx+wsfis0r/yQm/8tiESVqxOLcapxdWY/19IId6wzeaWZyKS1fmYrVuUWfqIyEelSLelSLelSLelSLelRNOyC0p76hoqvf1mQs7Qgqe01L6RbFLZday9qB597suZheaV0/fvZca6UDeOQw8u1vfzt+4zd+I/7mb/6mcoGk/gv/JK79V+/Fzf/j/3EwVMHazbg/tVQk8l2MpYPjWsTNAfsr8gjUo1rUo1rUo1rUo1rUo4ImYmFzOzzsaBm5NxsTZ8eLdTv1byHZnnpauDq6hbUDz4Xl5bg6npYdZpBKMpQxI1kg+cIXvhB/9md/Fj/84Q+LpeVb/z+/E+P/7j/G8l8VCyhRIxbfPhvXBmnBG7sYZ+OuAHmk1KNa1KNa1KNa1KNa1KOaNlqBoCcobIWKbBDJbiYWYrMdWrqmzUiZpltnt7DNhZjovO3SIC+KnYY2gP2v/uqv8haSd955J957771iKbRtpuli7PUhyraxtGbrFhwV9agW9agW9agW9agW9aim/VtGhik/ccHM/bi+Pj/ga2F3Qwsjme9///t5IPm7v/u7SrWQAAAAfWxcjfF2C0rXNB5XN4p1tjRiba4e4xeWY2NjOS60160ffnzQUMPIBz/4wfjN3/zNePLJJ+N973tfsRQyWT/FQZtqG2nN1i04KupRLepRLepRLepRLepRTft309q436+NarJrIHvWojKxsLndotIxcD3X2Iy3p1bi3mxnS8xmLBx83HpLbYhhpB1ExsfH4/3vf3+xFNqyptr7kZ+Cej+Nu2nNQZuAORz1qBb1qBb1qBb1qBb1qKL2Ga62AkX2ZyLrqtURLHYZ07HbFx32XT42GfOTWUU7w894XH2jdfVBnUppZChh5Cd/8ifjt3/7t+Opp54SRNjV2Py1OLs6F2t7fZzSWIu5mxHX9jxFB8OgHtWiHtWiHtWiHtWiHlXViMW5eszESqwsZKfbbX3nS31ubdeWrCxwzNyZjpU+dRqbX4/r99Pt+54RrX/LyOb9g6WSLMw8chjJgkjWIvLhD384nnjiiWIp9DMW80tTsTqTknZ2YHS+ttNM1gexPrMaU0uPPhiKQahHtahHtahHtahHtahHtaTnfDH7Jvws/a3H+lawaH3ny8rU23Gz3lurVp3yILLHIPTJpZVWINkxJmRILSOnhhBGsiDyD//hP4zTp08XSyro//6PMf4b34s9TmrGyEzG0npK7FOrMTPTfhGnaWYmVqfS8vWevokcMfWoFvWoFvWoFvWoFvWogvysVimEvP3UtVhPz3k7h2zeX472EJGxyflUqyKUpFq1WjpSULm2km5TBJHi+0PGr0ZMP9UZTYpAs9Lb3W44Y0bSKyZqDx48aBbzfZ05cyYuX74ct27dygemV9Hzzz8fr/yjF4o5ynb5P92Kl19+uZijbNnxoR7VoR7Voh7Voh7Voh7VclzqkYXSlC+Kub19/Kf/6fAGsAMAAAwqCy7CCAAAMHKnhBEAAKAMzeaQv/QQAABgMM2DDWB/4QWDxAEAgP5eeeWVgQew/+xP//TJOZuWsz1Uh3pUi3pUi3pUi3pUi3pUi3pUy3Gpx4HOpvVPnU0LAAAoQ7MpjAAAAKOXfWmiMAIAAIycMAIAAJTClx4CAAClOHX6tDACAAAnydpcLebWipkDaCzWo77YKOb21r1uIxrpYna/B3Hq1ClhhDKkF+zaXNTrtbx5Lp/q9XTQpOXFGoySelSLelSLelSLelSLepSusRj19nPfMV1Yjli+sHN5rVaP/bLGuafGikv721p37WbM3MzSz0RrfkCnT3oYyQ+Qjic/Ozgo21rM1WdiZnUqVlaa+cClfFpZianVtLw+l9ZgdNSjWtSjWtSjWtSjWtSjEsbmY7393HdMmwsTMXtv5/Jmcz3m8/yQ6tcVUlrT+NWNXULMdj2z1o/udetRvxFxfWmyWGNwJ7xlpBGbb5+N65vFk785HW9cmNk3DXKUGrE4txpnV9ZjPb1gxzqDd5qZXErLV6ZidW7RJyojoR7Voh7Voh7Voh7Voh5V0w4I7alvqOjqtzUZSzuCyl7TUrpFccul1rJ24Lk3ey6mV1rXj58911ppQKdOnegxI+lgmJ+PyfYBkpLj9dmNuHPXYVGatZtxf2qpSOS7GEsHx7WIm1Lj0VOPalGPalGPalGPalGPCpqIhfYH8B1BYStM3JuNibPjxbqd+reQbE89LVwd3cLagefC8nJcHU/LDjFI5TEbM9KIt984WD84hqkRi2+fjWuDtOCNXYyzcdenKUdKPapFPapFPapFPapFPappoxUIeoLCVqjIBpHsZmIhNtuhpWvajJRpunV2C9tciInO2y4N8qLodur04xRGUoq/ujEbUwd/nhiKzTRdjMGi4Fhas3ULjop6VIt6VIt6VIt6VIt6VNP+LSPDlI/Lnrkf19fnB3wt9Hf69BOPRxjJn7Abb6Qibfd3AwCAx97G1Rhvt6B0TeNxdaNYZ0sj1ubqMX5hOTY2luNCe9364cYHnT753zPSesJmbpyNlfX22QMoR9ZPcdCm2kZas3ULjop6VIt6VIt6VIt6VIt6VNP+3bQ27vdro5rsGsietahMLGxut6h0DFzPNTbj7amVuDfb2RKzGQsHG7e+5YmTHkbW5mbixtmVWH/EJiSGIWuqvR/5Kaj307ib1hy0CZjDUY9qUY9qUY9qUY9qUY8qap/haitQZH8msq5aHcFilzEdu33RYd/lY5Mxn58dqjP8jMfVN1pXH9TpJ05yGGksxo3lc3Fdc0hljM1fi7Orc7Hn17001mLuZsQ1dTty6lEt6lEt6lEt6lEt6lFVjVjMegTFSqwsZKfbbX3nS31ubdeWrCxwzNyZjpU+dRqbX4/r99Pt+54RrX/LyOb9g6WSx2DMSEdftvZ0yD5tDMNYzC9NxepMStrZgdFZiDSTdamrz6zG1JKWrNFQj2pRj2pRj2pRj2pRj2pJz/li9k34Wfpbj/WtYNH6zpeVqbfjZr23Vq065UFkjx5Ek0srrUCy4/3zkFpGTnQ3rV2+kbKpy1bJJmNpPSX2qdWYmekIiTMzsTqVlq87ycBoqUe1qEe1qEe1qEe1qEcV5CdpSiHk7aeuxXp6zts5ZPP+crSHiIxNzqdaFaEk1arV0pGCyrWOoQzF94eMX42Y7voajCLQrPR2txvOmJGsZaT24MGDZjHf15kzZ+Ly5ctx69atePLJJ4ul1fL888/Hyy+/XMxRNvWoFvWoFvWoFvWoFvWoFvWoluNSjyyUpnxRzO3tX/3L6ZPeTQsAAKiihw+bwggAADB6Dx8+FEYAAIDRe9gURgAAgBJk3bQONID9hRdeKJYCAAB0e+WVVwYewP6LF/+Fs2kxfOpRLepRLepRLepRLepRLepRLcelHgc5m9bFCxd10wIAAEYv+54SYQQAABg5YQQAACiFMAIAAJRCGAEAAEqRsogwAgAAJ8naXC3m1oqZA2gs1qO+2Cjm9ta9biMa6WJ2vwfRTH+EEUqQXrBrc1Gv1/LTv+VTvZ4OmrS8WINRUo9qUY9qUY9qUY9qUY/SNRaj3n7uO6YLyxHLF3Yur9XqsV/WOPfUWHFpf1vrrt2MmZtZ+plozQ/oxHfTaiymA6TjyT9MQmTY1mKuPhMzq1OxspLycHoR5tPKSkytpuX1ubQGo6Me1aIe1aIe1aIe1aIelTA2H+vt575j2lyYiNl7O5c3m+sxn+eHVL+ukNKaxq9u7BJituuZtX50r1uP+o2I60uTxRoHkPbpBIeRRtyNdIAUT/7mvXPpCXNglKsRi3OrcXZlPdbTC3asM3inmcmltHxlKlbnFn2iMhLqUS3qUS3qUS3qUS3qUTXtgNCe+oaKrk/lJ2NpK6AMMi2lWxS3XGotaweee7PnYnqldf342XOtlQZWO8lhZCzm59MB0p6bnIrZeCPedlSUZ+1m3J9aKhL5LsbSwXEt4uaA/RV5BOpRLepRLepRLepRLepRQROxsLkdHna0jNybjYmz48W6nfq3kGxPPR/kd3QLaweeC8vLcXU8LTtMF6TaYzOAvRFrizfijdnrex84HKFGLL59Nq4N0oI3djHOxl2fphwp9agW9agW9agW9agW9aimjVYg6AkKW6EiG0Sym4mF2GyHlq5pM1Km6dbZLWxzISY6b7s0yIuiWzbc/WSHka30Nh437k/H9YGOHI7GZpoubrVU7W0srdm6BUdFPapFPapFPapFPapFPapp/5aRYcpPXDBzP66vzw/4WtjNie6mlXSkt5Wp+3FjfP8zCAAAwGNj42qMt1tQuqbxuLpRrLOlEWtz9Ri/sBwbG8txob1u/ZDjgx6fblopl0wuxfXZjbhzVxopR9ZPcdCm2uzkA61bcFTUo1rUo1rUo1rUo1rUo5r276a1cb9fG9Vk10D2rEVlYmFzu0WlY+B6rrEZb0+txL3ZzpaYzVg46Lj1QtqzxyeMULasqfZ+5Keg3k/jblpz0CZgDkc9qkU9qkU9qkU9qkU9qqh9hqutQJH9mci6anUEi13GdOz2RYd9l49NxvxkVtHO8DMeV99oXX0YJzeMNBZjcW37Ccz6tt1Ynojpiw6JsozNX4uzq3PRUZadGmsxdzPimjMNHDn1qBb1qBb1qBb1qBb1qKpGLM7VYyZWYmUhO91u6ztf6nNru7ZkZYFj5s50rPSp09j8ely/n27fd4xD/5aRzfsHTyUnN4yMPRVxY3yreWo8+zKWzfYXvVCOsZhfmorVmZS0swOj87WdZrI+iPWZ1ZhaetTBUAxGPapFPapFPapFPapFPaolPefZF33Xs/S3Hutbb3Zb3/myMvV23Kz31qpVpzyI7DEIfXJppRVIdowJGU7LyMOHD09yN63JmF9vJ7Y0rS9F3qpEySZjaT0l9qnVmJlpv4jTNDMTq1NpeVanYk1GQT2qRT2qRT2qRT2qRT2qID+rVQohbz91LdbTc97OIZv3l6M9RGRscj7VqgglqVatlo4UVK6tpNsUQaQ4A+341YjppzrfMBeBZqW3u91wxoxkt689ePCgWcz3debMmbh8+XLcunUrnnzyyWJptTz//PPx8ssvF3OUTT2qRT2qRT2qRT2qRT2qRT2q5bjUIwulKV8Uc3v7bz/1GQPYAQCA0Ws2T3Q3LQAAoKoePmwKIwAAwOhpGQEAAErx8KAD2F944YViKQAAQLdXXnll4AHsnzz/SWfTYvjUo1rUo1rUo1rUo1rUo1rUo1qOSz0OcjatLIzopgUAAIxcyi3CCAAAMHq19EcYAQAARk/LCAAAUIaURYQRAABg9HTTAgCAE2ZtrhZza8XMATQW61FfbBRze+tetxGNdDG734PxDeyUIr1g1+aiXk95uFZM9Xo6aNLyYg1GST2qRT2qRT2qRT2qRT1K11iMevu575guLEcsX9i5vFarx35Z49xTY8Wl/W2tu3YzZm5m6WeiNT+g7PtFHpswkiW1Wn3RwVG6tZirz8TM6lSsrDSj2SymlZWYWk3L63NpDUZHPapFPapFPapFPapFPSphbD7W2899x7S5MBGz93YubzbXYz7PD6l+O4JKLcavbuwSYrbrmb+n7lq3HvUbEdeXJos1DiDt0+MRRlJqvJESImVrxOLcapxdWY/19IId6wzeaWZyKS1fmYrVOaFxNNSjWtSjWtSjWtSjWtSjatoBoT31DRVd/bYmY2lHUNlrWkq3KG651FrWDjz3Zs/F9Err+vGz51orDeixaRlZu3knzs3OFnOUZu1m3J9aKhL5LsbSwXEt4uaA/RV5BOpRLepRLepRLepRLepRQROxsLkdHna0jNybjYmz48W6nfq3kGxPPS1cHd3C2oHnwvJyXB1Pyw4zSCXt28kPI2tzceON6bg2VcxTkkYsvn02rg3Sgjd2Mc7GXZ+mHCn1qBb1qBb1qBb1qBb1qKaNViDoCQpboSIbRLKbiYXYbIeWrmkzUqbp1tktbHMhJjpvuzTIi6JbdrsTHkZS2rvxRkyvzMde4Z1R2EzTxQHrMJbWbN2Co6Ie1aIe1aIe1aIe1aIe1bR/y8gw5ScumLkf19cf/T32iQ4ja3M34o3plb2bEQEA4HG1cTXG2y0oXdN4XN0o1tnSSO+v6zF+YTk2NpbjQnvdQ58k6gS3jGTnPr4Q12NdEqmIrJ/ioE21jbRm6xYcFfWoFvWoFvWoFvWoFvWopv27aW3c79dGNdk1kD1rUZlY2NxuUekYuJ5rbMbbUytxb7azJWYzFg42br3LCQ0j6cV/J0W55QtdRWglP6eaK0fWVHs/8lNQ76dxN605aBMwh6Me1aIe1aIe1aIe1aIeVdQ+w9VWoMj+TGRdtTqCxS5jOnb7osO+y8cmY34yq2hn+BmPq2+0rj6MExpGxmJ+fbso+ZT1lcsH2fQkPEZmbP5anF1NYXCvj1MaazF3M+KaFq0jpx7Voh7Voh7Voh7Voh5V1YjFuXrMxEqsLGSn221950t9bm3XlqwscMzcmY6VPnUam1+P6/fT7fueEa1/y8jm/YOmEt/AzkilkLg0FaszKWlnB0bnazvNZH0Q6zOrMbXkhAOjoR7Voh7Voh7Voh7Voh7Vkp7zxeyb8LP0t94xRKH1nS8rU2/HzXpvrVp1yoPIHoPQJ5dWWoFkx5iQ4bSM1NL0+ISRyaVoDmHEP49qMpbWU2KfWo2ZmfaLOE0zM7E6lZava7kaLfWoFvWoFvWoFvWoFvWogvysVimEvP3UtVhPz3k7h2zeX472EJGxyflUqyKUpFq1WjpSULm2km5TvDcuvj9k/GrE9FOd75aLQLPS291ueGNGag8ePMi+/HBXZ86cicuXL8etW7fiySefLJZWy/PPPx8vv/xyMUfZ1KNa1KNa1KNa1KNa1KNa1KNajks9slCa8kUxt7dP1Sd00wIAAMohjAAAACP3eI0ZAQAAKqN2qiaMAAAAo3cqO+nBQQawv/DCC8VSAACAbq+88srAA9j/+c//nLNpMXzqUS3qUS3qUS3qUS3qUS3qUS3HpR4HOZvWL/yzT+qmBQAAjF4WXIQRAABg5LIxI8IIAAAwejWn9gUAAMrQbAojAABAOYQRAACgBFpGAACAMjS1jAAAAKXQMgIAAJRiyGHk3Xff7ZoAAAD6GmY3rXb4+MIXvpBPGYEEAADYzdDCyJ/8yZ/ExYsXi7nIL2fLAAAAdhpSN62sBeT73/9+nDt3Lr797W/nU3Y5W6Z1BAAA6McAdgAAYORqaRpKGPnABz4QH/zgB+ONN97IW0SyKbucLcuuAwAA6DbEs2l9+tOfjrt378Yv/uIv5lN2OVsGAADQz1C7aWWtIJ/4xCfySYsIAACwl6GPGclCiCACAADsxwB2AACgBEP+BnYAAICBDPMb2AEAAA5CGAEAAEohjAAAACVoRu3BgwfNYq6vM2fOxOXLl+PWrVvxwgsvFEsBAAC6vfLKK5HyRTG3tws//+xgYeR3f/d3izkAAID+fuVXfmXgMPJcCiO6aQEAACN36vRpYQQAABi906dPCSMAAMDonToljAAAACU4rZsWAABQBi0jAABAKYwZAQAASnFaywgAAFCGmjACAACU4dSpmjACAACM3qmalhEAAKAENS0jAABAGZzaFwAAKMWpmpYRAACgBM6mBQAAlMLZtAAAgFLU0iSMAAAAI1czZgQAACiDMAIAAJRCGAEAAEqRsogwAgAAjJ6WEQAAoBTCCAAAUIpmsymMAAAAoyeMAAAA5RBGAACAMmgZAQAASiGMAAAApRBGAACAkggjAABACR4+FEYAAIASNJsPhREAAGD0mg+FEQAAoAQPtYwAAABlaBozAgAAlMGYEQAAoBTOpgUAAJRCywgAAFCOZggjAABAGXTTAgAASiGMAAAAZdBNCwAAKIeWEQAAoCTCCAAAMHpNLSMAAEAJaqdOCSMAAMDonRZGAACAMpw6fVoYAQAARk/LCAAAUIrTp4URAACgBLppAQAApdBNCwAAKMUpYQQAAChDrVYTRgAAgNGrpUkYAQAARk7LCAAAUIqURYQRAABg9LSMAAAApailP8IIAAAwcrppAQAApWimP8IIAAAwek1hBAAAKEHKIsIIAABQAi0jAABAGYwZAQAAStHUMgIAAJRBGAEAAEoijAAAACURRgAAgFIIIwAAQCmEEQAAYORqaRJGAACAUggjAABAKYQRAABg9JrCCAAAUIKURYQRAACgBL6BHQAAKIOWEQAAoBxaRgAAgDJoGQEAAEqiZQQAAChB06l9AQCAsggjAADAyNXSJIwAAACjl9KIMAIAAJSgJowAAACjV6sJIwAAQEmEEQAAYOQMYAcAAMqhmxYAAFAWYQQAABg53bQAAIBy6KYFAACURRgBAABGruZLDwEAgFLUtIwAAAAlMIAdAAAoRTNNwggAAFAKYQQAABi5ZlMYAQAASiKMAAAAI9dsNoURAACgHMIIAAAwcs6mBQAAlEYYAQAASiGMAAAApRBGAACAUggjAABACWrCCAAAUA5hBAAAKIUwAgAAjF5NGAEAAEpQM2YEAAAoRU0YAQAASlATRgAAgDKkLCKMAAAAo2fMCAAAUA7dtAAAgDIYMwIAAJSiliZhBAAAGD0tIwAAQFmEEQAAYOScTQsAACiNMAIAAIycLz0EAABKopsWAABQEmEEAAAohTACAACMXLPZFEYAAIASNLWMAAAAJWimP8IIAAAwelpGAACAcmgZAQAAStDUMgIAAJRFGAEAAEohjAAAAKUQRgAAgFIIIwAAQCmEEQAAoBTCCAAAUAphBAAAKIUwAgAAjFyz6RvYAQCAEggjAABAKYQRAACgFM00CSMAAMDoaRkBAADKoJsWAABQCt20AACAcmgZAQAAyiKMAAAApRBGAACAUggjAABAKYQRAABg5JpNYQQAACiJMAIAAJRCGAEAAEauVhNGAACAUtSEEQAAoARaRgAAgHJoGQEAAEpgzAgAAFAaYQQAACiBbloAAEApmsIIAAAwes2mbloAAEBJhBEAAGDkmk3dtAAAgJIIIwAAwMhpGQEAAEojjAAAACPXTJMwAgAAjJ5uWgAAQFmEEQAAYOQMYAcAAEojjAAAACNnADsAAFAO3bQAAIAyaBkBAABKUUt/hBEAAGD0alpGAACAUmgZAQAASlDTMgIAAJRDywgAAFACLSMAAEBJtIwAAACl8KWHAABACZq+gR0AAChDyiLCCAAAMHpN3bQAAIAyNB8KIwAAQCmEEQAAoAQGsAMAAKUQRgAAgFIIIwAAQCkeCiMAAEAZtIwAAAClcGpfAACgFFpGAACAUhgzAgAAlELLCAAAUBphBAAAKIUwAgAAjJxuWgAAQGmEEQAAoBTCCAAAUAphBAAAGLlmmoQRAABg5GrpjzACAACMXO2UMAIAAJTgVO2UMAIAAIyelhEAAKAUWkYAAIBS1GpaRgAAgBKcOnUqag8ePMhO8burM2fORLO55yoAAAB5a0fKF8Xc3j732X8xWBgZdIN7+da3vlVcAgbx0Y9+tLgEAHA8HCQ7fP6Xp3TTAgAARu+UMSMAAEAZaqecTQsAACjB0M6mNT8/vzUBAAAnx1G91z81jC897NypxcXF4hIAAHASdL7HH2YgqT3qlx4KIgAAcPIdRSCpPUrLiCACAACPj2EHklr6c+gwclTNNQAAQPUcRWPEI3XTEkgAAODkO6peUY88gF0gAQCAk+uogkim9uDBg2Zxua+DfKX7Xr71rW8Vl4BBfPSjHy0uAQAcDwfJDtcuf/bRW0YAAAAOQxgBAABKIYwAAAClGNmYEQAA4GQ7SHb44v/2rwYLIwAAAIMYahgBAAAYthf+1//ZmBEAAGD0shYRYQQAABi9ZlMYAQAARk/LCAAAUA4tIwAAQBm0jAAAAOXQMgIAAJRBywgAAFAaYQQAABi9ZjNqP/30x9KPbvl8LbtQy/7u1LWsNdO9qN+N+kj3nN9X+md7H9KyYqZZXNj7Z2v9fEvZ3/Z1xXx+uVjWnu/e2STN73gU+bJiftDH07a1D4eU3V3PjTsfX+fjzy9t/cz/FnefrVc8omL/s3/bD6X7IXXN5HZc3/rboWMuv7g9371ef/ku9lNcUTyiLcVD3qFrvXSxNVcs6/5RinQEFZcKgzw5fe12w+JVWvzTb61dH3/XFa2Z3Z7nA0k70dqPYm86dmrHHvau27a1fFu+a9v/bO9rutD6k13OZov5dDnbxuknTscTTzwRT5x+Ik6fLi6nZafT/Pve9754//vfl36+P7/8vnT5/cXlbL1sA6fSwVDrnLI/6WfrPlr302w+LH62lr33w/fiB+/+IN599918+sEPWj/fTcv+3x/8oOfBZVss5BeKufwBdetdb2t+61LrRtm+FX9bc9mFtEpr37PL+aXWsvzygFo3aSkubN16oI209mhba773pu3jpv2cZ5+a1U619rm9LP3tqE37cnbb9Ceteyqbaqfi9KlTrcv5z9aULTt9uvNyej0Uy7a2n+9A/jffZvtytmut57dV62zKL+fXpX/z9fI1txWztbQ/7e2nf4rLrWXtdbJNtHVcTIo65jovZ7fZnum8nOudL3QvTXPFgs7lrW217mv7seZLti9ny3vn82X5BrK/+fWdl7Of+9muQfE8FZfbsmXZdjoW5Vr3kV9q3U8+n/3Z1rpJtt38QtKzkWR7/WJrD7PtNeNhmlqPMTvm08+0PF8n28e0mVZN863nH/dmr8tMa/n2ddnlbJV8vb6y5e37yqY0t3V5e8ruems+u1l7eX5F6z7aWhfbC4p7Lmbb+1Hs7kD6rdreZr691t98QXu7+Y+t56G1oLiqtby4mNm5L/kj3GHH79lMz23z2fRPe7+K2e1lvZcz6WL2f0jrNunffOr8P2J7eb569rNY3lpUXJcvbl9u/Wxdvb1ea0H2Y/typlXTrX9yWaXz0rdrXfxsLe83ZTfans+3kf1sz+c/04/0p/W3/bN1u631d9N5VfvxdMgeU/vxt6biOcz+T89/nor/H778Q3ulMscLAAAAAElFTkSuQmCC;" vertex="1" parent="1">
          <mxGeometry x="20" y="680" width="803" height="482" as="geometry" />
        </mxCell>
        <mxCell id="bXhEvjdw58ReICiHxhLh-10" value="" style="shape=image;verticalLabelPosition=bottom;labelBackgroundColor=default;verticalAlign=top;aspect=fixed;imageAspect=0;image=data:image/png,iVBORw0KGgoAAAANSUhEUgAAAyIAAAHiCAYAAAAUOnjDAAAAAXNSR0IArs4c6QAAAARnQU1BAACxjwv8YQUAAAAJcEhZcwAADsMAAA7DAcdvqGQAABwRSURBVHhe7d1BaFx3nuDxX8lOoG+5pzt0QMoOjm+dxcSahoTMDiM7By1kRPfObtS7B2uXBOSFZHomiD2JwOAcIugc5FMr0ARMH3yIo1PoQK/UGNI3R4dYkCaZ3H3ry0Zv3yuVHEl5kp9+T/5LTj4f8yhVlVRV+MWp+uv7/783qGoBAABQyH948skYG30NAABQRlUZiAAAAIUNBgYiAABAWWfHxgxEAACAss6cOWMgAgAAlHXWQAQAACitKSJHOnzvX//619FXB/vRj340+goAAOC7nv+bvzn6QOTll18eXfuuDz/80EAEAAA41N8++6ypWQAAcFwGg0Gn7bRpXtOf//zn0bXvau47ztd9IovVN1eXYm5yZydMxtzq5v3bJ3dun5yLpfrm1blBff/w7l02Y2lycnh/cZv1axzMxXde0olbjblT+boAAH54mglHh22n0aeffhrPT/5t62Ckua25r/me4/L4Y48dPBBppmHt3/raXJ2L2cWI6ZWdHbES05/fis36A/7spY1Y2Ll9ZTri1mZMTV+J6zf3fbzevBU3YiYuj4+uP2R7BkPj87FWLcfU6OpxaB9sAQBAOT/72c/iT2v/9zuDkZ1BSHNf8z3H5dCBSKNZD7J762c1rl2KWFibj6n7g4jxmJqfj/G7G7F+8VxM7Nw+PhXz8/WVqem4cv3mnt/0b966ETFzuf5JAADguOwfjDysQUjjgQORY7V6M65fmW6vCc2AY/1qzC6txt4ZV1MxfeV6fBtFNmN7HNIyDNlspnxNxuRw25mmtD1laWlpcjgNbDida3Vu9D27v2+zvnl022AQk8NEsRlL9W2Xrkdcv1TfPrfUfNfeKVC7nnP3NLNvn3f7ubbvG911X9vjNzcf9Ji1w+4DAICedg9GHtYgpPH444+XG4hsfn4nLp6bGF3bbyqWq7uxsLEYE/s+YO+ZnnXgtKz6g//sRkyvrMXaWrPtnj51vf6ZlaiqtZiPpZhcPBcrw++pt4WIS8MRwnhMLY9uq1/HzJ3FetAyHvP1bR9dibjyUX378vzeClMPCiYnvn3OqmoebHbX2pXrsfHM8vZ9d2fizuJooHFfy+Mf9pgPfD4AgO+X7TXFD9549KSKSHOI3oO2w4w/cz7WN+6OrrXZHgxUd+sP2IsTMbnzCXvX9KwDp2Wt3ow7M2/umvK125VYaKZ5NZopYOs3YnZUFSYX68FRfD4cIDTrV4a3Tc7G1fX1OPSlNprHagrP/eecijffjbhxa2dkcCWmd0ZD48/E+fWNeNBDHvqYD3w+AIDvl90LvA/bOD67p2PtnqZ13FJFZP+6kZ21I835Qw49h8jEubi4b71Hq/GpWF64Eus3bo0Kws70rIOnZTW1pbMrC9vlY2drSkQ9CJm4OX2/lDSVoouDC0/eYY/5MJ4PAAAa+9eE7F8zcpweK7pGZHw+FuoBxaXJ/VOUaqtLsbRrOtZwYHH+mfvlYzg9a3H2wKNljV+eibhxLR64ZGJnMLTv+3amjW0/9GrcvD784nD1Y8XV3c+5GtcOWr/S1WGP+TCeDwAAagctTH9Yg5GzDzqPyFGmXnUxtVzF3ZmNmB3O52sWXNeXzcBk6nLEzdn78/xmN2bi7vKuZe3DxezrcX5h3zqNHc1hdYczuprHm4y5gxZO1N+38tH2921Pw5qsB0DNzQtx/sbE8Gcn5z6Pc7uKSDMIunOpWcC+bwDVPGfzWLOjaV6Ti80hwWJnFlhXex7/sMc8pucDAODh2vlMe9B2Gj333HPfGYTs2BmMNN9zbKoqBtURJtYddi6RQ6dlAQAAjLz+j/94tKlZO+tA2jYAAIBOqqrgGhEAAIARAxEAAKAsRQQAADgJBiIAAEBZiggAAFBacxBjAxEAAKA4AxEAAKCo5ryOBiIAAEBxBiIAAEBRzRqRwb1796rtqwAAAA/f//kf/10RAQAAynLULAAA4EQYiAAAAEVVlYEIAABQnDOrAwAAxRmIAAAApZmaBQAAlFYpIgAAQHGKCAAAUFpVKSIAAEBhW1vfxODevXvV6Hqrjz/+ePQVJ+mll14afdWN/XY62G+PpqPuNwBOlvfP0+Eo75//8l9+0W0g8txzz42ucRI+/fTT1Ada++1k2W+Ppsx+A+Bkef88eUd9//znX8yYmgUAAJTVeWrWzgjzi6eeGl5SxtNffjm87PubdfutLPvt0dRnvwFwsna/fz71hffPkr58Ovf++b9f+c+KCAAAUNbW1paBCAAAUFYzNctABAAAKKrach4RAACgMCc0BAAAijvhgchm/H5yMn6/Oboaq/HOYBDvrI6uDjXfM4jXlu5/U9L+59rx3du/Xl2Kd+rnfKF+LS8MJuvX09zZ/vNfL00ew2t7VD1q+6++Xn/va6Nt7+v8Pjv5/bT338lB+6J5XXNxe/g937o9t/1am8v9r2/nPgB4+DZj6bXJWPp6dPVYHf7Ym7eXYu61QQxeaLbJmLu9/X7Y3D65c/trc8OfX31nUN8/vHuXh/na805VEbk9txhfvHs33pga3dDYvBV/iIsRN25F29/d15v1h5f6Q83+DyMH3f4gX6/OxduLET9fqeKT+i/nk2olfv55+3Oz13Htv9tzk8MBxPBD6tzSkf7uD99/F+P1lbV4b2172/M6f0CO89/ZUP13/kLLAOJwR98XF958d+/r21yK9++8G7/8ge5HAH4YNm/Pxez7EdNvVVF90mwrMf3Vrdj8eilmf70RCzu3vzUd8afNmPr5lbj+x/0fjG/FjZiJy0+Orp8Sp2Yg0vzG9P1YiPfmx0e3bPv61o2ImZV49fzV+GDf32nzgfWDWxE/PT+6YeSg2x9sNT64FPHq2nxcuP8yxuPC/Hycsv126hzf/luNr86t1AOI7Q+or8bVeLvzb+ntvwc5zn9n2+oByuKdeHZ07aEavxwv1v897Ly+29euxtML9i0A32erce3XEQvvzcfU/Te88Zh6ZT7G/30j1p89FxM7tz85FfOv1O/vF6bjyoc365/81uaf6vf5Fy/XP3m6nI6ByK25ePvGTLy1vP9Xm5ux/fc2Hj8+dzE+vLn3E9KF5bV4Y34qfjK6vuOg2x9o9WZ8eGU6Loyu0tGx7r+peGXXh+Tm5zqz/w53zP/OGk1d+enKQjw9uv5wjccrC1dGr281/nj9SvxcDQHgNPi6mTo1GZP1tnvqVPMeu/rO9u2TLwxicu8UkO3bmvveuRUbo5v3uH0zrr88XX86atEMOD67GrO/X62fZbepmH75ety8P1VhM279IWLm+dM2DDkVA5H1+M3VO+2/2Vy9Fr+JmWj+3p68PBPPXr95xOkfR/P153fi2XMTo2tt6tc6++289mZ7++r66L4fqoe5/1bjg9EH5C6Otv/mWtabfJ8d/34a1pVzK9H88mWvLv9Okvti6s14/c5ivDOcXvamQScAJ68ehEz+00ZMv7UWa++tRfXJQsSvZ0frMcZj6o3t29c+uRszXyxu3978TFM6Pqm27/tlxJ3Pmu/fa/OrO3Hxpwd9tpmK5foxF/6yGBN7Bj/1PbunZ53SaVmNUzAQuRivfzQTXyy2LFK9eT2enbm8/cGpmZZx8Xrsn/J2nJ585nx8tnF3dK3N3nntzfbWu0f4jf330kPaf8M1Cc1v29daPui2O9r+W+78uN8Px7ufhmtxNr47xWtbl38nR9kXF+Pb/wePx/MzER9ePx+vtj43ABTWTJFqqsX9D/pT8ebrETf+tD0waNZ4DKvHa7Nx9bP12Pj3+sadnxl+R+3JyzHTMs95/CfnY/0vh3222R7oVL+rBz/vT8Tkzm/2dk3POq3TshpV/efkp2ZNzMd7zd/f5O6Fyc3Ui4jPrk6Mjn40Eb9Zrz+A7Js2cqwmzj306vK9dMz7r/mQ+9q1z+OX9YfUIw0W7L/DHdt+Wo0PFu9E3FkcFY1L8WFcj19PHnXB+n4T8dPvjOs346v6qXYbVpuL5+LHo+sAcNIOrBb1IGTij9Ox0lSPevvo5e2bDy8du/z4XFzct96j1ZNTsfzqlVj/w63RNK2d6Vmnd1pWo6ridCxWj6nl4ULZf5ob/VU38/0vvhu/q1/h9tGP6u3uuw/3g+b4fLx6pflAdbQjNVE7rv23uRRvL56Lt5YTi5Dtvwc7lv00FW/sqh3vrX0UL8eV+Le15Z5TpcbjJ+fvxPu7D04wPJrX9rQxADiV6sFC/OZarN7/8LEa10Yf/ncGHNtvY6tx88PhFzHe5P3mZ7av1gOWa3GjZWpWPDkfC/WA4tJrS/vWgdRuL8XSrulYzXPF08/cLx/D6Vnvz57aaVmN01FERi4s343X71wanitgz3SRHaMPmns+qBzJ3rnr77Q8zoXlKn43sxFvj85BMfwtsQ+2nRzL/ru7EZ+tX423R/touN0/hK/9dxwe/r+zvAvLK/Hixuy3+352I15dcWQsAE6L9bj69mjxeb3NNVOh6sHC2r9FLN6/fbE5hGfM129e468sxPk/TMRguCD98zg3KiLNz6y8Xv/MaLH63FfTrVOzGlNvVHH3xY2YHZ1DZPucIfXA5MLliD/Obl+vt9m/zMTd3cfDHy5mX4/zr86fymlZjaqKGNy7d6++ONjHH38czz333PDrL556anhJGU9/+eXw8tNPP42XXnpp+HVX9tvJsd8eTX32GwAna/f751NfeP8s6cunc++fv/q7F09PEQEAAH4YTtXULAAA4IehmZplIAIAAJQ1MBABAAAKq+qRiIEIAABQmIEIAABQ2uCIh+/lZPQ9DCwnw357NDl8L8Cjx/vnyTvq++d/+08vKSIAAEBhXYsIJy/zm3VOnv32aFJEAB4t3j9PhyMVkb//uwcPRAAAAI7Tf60HIqZmAQAARW1VzqwOAAAU1kzJMhABAACKqhQRAACgtK1KEQEAAAqr6j8GIgAAQFGVIgIAAJRmjQgAAFDcN9WWgQgAAFDW1paBCAAAUFgzEBncu3evOZ9IqyeeeGL0FQAAwOHqscXoq8Nduvj8gwciv/3tb0fXAAAA2v3qV7/qPBD5h+cvdJua1TyoS5cuXbp06dKlS5cuXbZdHtU3XaZmKSIAAMBBmsFIM2ZoLrsWkZf+48+OVkQAAAB2y4SLzucRUUUAAIA2mWix1XUgoogAAABtMtGi80BEEQEAANpkokXV9czqiggAANAmVUS2FBEAAKAHa0QAAIDiMtHCUbMAAIBecmtEFBEAAKCHVBGpN0UEAABISxWRelNEAACAtNwaEUUEAADoQREBAACKy60RcdQsAACgB0UEAAAozhoRAACguEy0GAwGiggAAJCXiRaDsY4DEUUEAABoo4gAAADFpYpI14GIIgIAALRJRYuuU7MUEQAAoI0iAgAAFJdaIzI2pogAAAB5iggAAFBcqogMFBEAAKCHVBFxHhEAAKCPTLQYU0QAAIA+ckWk40BEEQEAANrk1og4jwgAANCDIgIAABSniAAAAMVlokVVVYoIAACQl4kW1VbHgYgiAgAAtFFEAACA4jLRYqvrQEQRAQAA2igiAABAcak1IooIAADQhyICAAAUl40WiggAAJCWiRaD+o8iAgAApKWihTOrAwAAfeSKSMepWYoIAADQJhMtBooIAADQRypadB2IKCIAAECbVBHpulhdEQEAANqk1ogMrBEBAAB6yEULRQQAAOhBEQEAAIpTRAAAgOIUEQAAoDhFBAAAKE4RAQAAistEi3ocoogAAAB52WihiAAAAGmZaFFViggAANBDJlpU9R9FBAAASEtFC0UEAADowxoRAACguNQaka5TsxQRAACgTSpadJ2apYgAAABtstFCEQEAANIy0aKqHDULAADoQREBAACKs0YEAAAoLhMtHDULAADoJRstFBEAACAtFS2cWR0AAOgjEy06T81SRAAAgDaKCAAAUJwiAgAAFKeIAAAAxSkiAABAcZloUSkiAABAH7looYgAAAA9KCIAAEBx2WihiAAAAGmZaDEYKCIAAEAPuWgxUEQAAIA8RQQAAChOEQEAAIpTRAAAgOIUEQAAoLhUtFBEAACAPlLRonJmdQAAoIdMtKjqTREBAADSMtGiUkQAAIA+ctGi40BEEQEAANrkikjHqVmKCAAA0Ca3RkQRAQAAekhFC2tEAACAPnJFxFGzAACAHrLRQhEBAADSUtGi69QsRQQAAGiTiRadp2YpIgAAQJtstFBEAACAtFS0cB4RAACgj1y0sEYEAADoIbVGRBEBAAD6yEQLZ1YHAAB6SRWRLWdWBwAAekgVEecRAQAA+kgVka5TsxQRAACgTSpaKCIAAEAfqSLSdSCiiAAAAG2sEQEAAIrLRIszZ84oIgAAQF4mWpztOhBRRAAAgDapInJWEQEAAHrIRIszZ84qIgAAQJ41IgAAQHHWiAAAAMVZIwIAABSXiRZjY4oIAADQQyZaDAYDRQQAAMhLFZGuAxFFBAAAaJMqImOKCAAA0EMmWgwGY4oIAACQl4kWnadmKSIAAECbXBGxRgQAAOghtUZEEQEAAPrIRIutqlJEAACAvEy02NraUkQAAIC8TLSothQRAACgh1QRqRQRAACgh9Qaka5TsxQRAACgTSZaVF0XqysiAABAG0UEAAAoLhUtqlBEAACAvGy0UEQAAIC0bLRQRAAAgLRctHAeEQAAoAdFBAAAKM4aEQAAoDhFBAAAKC4TLQZjY4oIAACQl4kWjz32mCICAADkZaLF410HIooIAADQRhEBAACKy0SLzgMRRQQAAGiTKiKPKyIAAEAP1ogAAADFWSMCAAAUl4kWZ86eVUQAAIC8TLQ4c+aMIgIAAOSlikjXgYgiAgAAtFFEAACA4nJFxBoRAACgh0y0OHtWEQEAAHqwRgQAACguEy0Gg4EiAgAA5KWiRVUpIgAAQF4qWnQdiCgiAABAm0y0qOo/iggAAJCmiAAAAMVZIwIAABSXiRaVIgIAAPShiAAAAMXlisiWIgIAAORlokXnqVmKCAAA0MYaEQAAoLjcGpGOU7MUEQAAoI0iAgAAFGeNCAAAUFyuiDhqFgAA0ENujUgoIgAAQF4uWlgjAgAA9JCNFooIAACQpogAAADFZaLFoN4UEQAAIC0VLZxHBAAA6MMaEQAAoDhrRAAAgOIy0cKZ1QEAgF5ya0ScWR0AAOhBEQEAAIrLFRFrRAAAgB4UEQAAoDhrRAAAgOIUEQAAoLhMtNj65htFBAAAyMtEi62tjgMRRQQAAGiTiRbfKCIAAEAfqSLyzf9TRAAAgDxFBAAAKC5XRKwRAQAAeshEC0fNAgAAekkVka2OJzRURAAAgDaZaDGIjic0VEQAAIA22WihiAAAAGm5aKGIAAAAPSgiAABAcdaIAAAAxSkiAABAcdlooYgAAABpmWgxqDdFBAAASEutEalHIooIAACQlioi9UhEEQEAANIy0WJMEQEAAPrIrRFRRAAAgB6sEQEAAIrLrRFx1CwAAKCHbLRQRAAAgLRstFBEAACAtFS0qCpFBAAAyMtFi44DEUUEAABoY40IAABQXCZaVF2nZikiAABAG0UEAAAoLhUtFBEAAKCPTLSoui5WV0QAAIA2iggAAFBcqog4jwgAANBHJlo4ahYAANCLNSIAAEBxuSLS8fC9iggAANAmFS2sEQEAAPpIFZF6U0QAAIC0bLRQRAAAgLRstFBEAACAtFS0GCgiAABAD7loMVBEAACAPGtEAACA4qwRAQAAisutEek4NUsRAQAA2mSixaDeFBEAACAtEy0GgzFFBAAAyEsVka5TsxQRAACgTa6IWCMCAAD0oIgAAADFKSIAAEBxuSLiqFkAAEAPmWgxNuaoWQAAQA+ZaNF5IKKIAAAAbRQRAACgOEUEAAAoLldEzigiAABAniICAAAUZ40IAABQXCZaOI8IAADQSyZaVFXHgYgiAgAAtMlEi6oeiSgiAABAWjZaKCIAAECaIgIAABSniAAAAMUpIgAAQHGZaFHVfxQRAAAgTREBAACKSxWRLUUEAADoIVdEthQRAAAgL1VEuk7NUkQAAIA21ogAAADFWSMCAAAUl4kWW4oIAADQRyZaDOpNEQEAANJS0aIeiSgiAABAWq6IDBQRAAAgTxEBAACKSxWRgSICAAD0kIkWnQciiggAANAmGy0UEQAAIE0RAQAAilNEAACA4rLRQhEBAADSFBEAAKA4RQQAACguEy0G9aaIAAAAablo4ahZAABAD9aIAAAAxVkjAgAAFJeLFpUiAgAA5CkiAABAcZloUdWbIgIAAKSlokU9ElFEAACANGtEAACA4qwRAQAAistGC0UEAABIU0QAAIDiFBEAAKC4TLQYDAaKCAAAkKeIAAAAxVkjAgAAFKeIAAAAxSkiAABAcYoIAABQnCICAAAUp4gAAADFZaJFVVWKCAAAkKeIAAAAxVkjAgAAFJeJFlWliAAAAD3kooU1IgAAQA/WiAAAAMVZIwIAABSniAAAAMUpIgAAQHGKCAAAUJwiAgAAFKeIAAAAxSkiAABAcYoIAABQnCICAAAUl4kWg3pTRAAAgDRFBAAAKM4aEQAAoDhFBAAAKE4RAQAAilNEAACA4hQRAACguEy0qOpNEQEAANIUEQAAoLhUtKgqRQQAAMhTRAAAgOKy0UIRAQAA0jLRouo6NUsRAQAA2igiAABAcYoIAABQnCICAAAUp4gAAADFKSIAAEBxuSLiPCIAAEAPuWjhzOoAAEAP2WihiAAAAGmZaNF5apYiAgAAtMlFC0fNAgAAeshGC0UEAABIy0QLR80CAAB6yUULR80CAAB6yEYLRQQAAEizRgQAACgutUak3hQRAAAgTREBAACKs0YEAAAoThEBAACKU0QAAIDiFBEAAKC4TLQYDMYUEQAAIC8TLQaDgSICAADkpYrIWMeBiCICAAC0yRWRjlOzFBEAAKBNKlp0nZqliAAAAG1SRaTr1CxFBAAAaJNaI+KoWQAAQB+5aFEpIgAAQF4mWlSVM6sDAAA9ZKJFpYgAAAB9pKKFIgIAAPSRKiKVIgIAAPRgjQgAAFCcNSIAAEBx1ogAAADF5YpIx4GIIgIAALTJRYuOU7MUEQAAoE2qiHSdmqWIAAAAbbLRQhEBAADSUtHCeUQAAIA+MtGi82J1RQQAAGiTjRaKCAAAkJaJFoPBQBEBAADyMtGi80BEEQEAANpkosXYYEwRAQAA8lJFZEwRAQAAesitEVFEAACAHjLRYkwRAQAA+lBEAACA4hQRAACguFQRGVNEAACAHlJFpOvULEUEAABok4kWY4oIAADQRyZadJ6apYgAAABtFBEAAKA4RQQAAChOEQEAAIrLRgtFBAAASMtGC0UEAABIU0QAAIDiFBEAAKA4RQQAAChOEQEAAIpTRAAAgOJS0aKqFBEAACAvEy2qrgMRRQQAAGiTiRadByKKCAAA0CZVROo/iggAAJCmiAAAAMVZIwIAABT30IvIzmDEpUuXLl26dOnSpUuXLvdfHkkVMbh371590e6JJ54wLQsAAHigZkBSjy1G1w73r//zFw8eiAAAAHRxbAMRAACA4/av/+sX3daIAAAAHJ+BgQgAAFCegQgAAFCcgQgAAFCcgQgAAFCcgQgAAFCcgQgAAFCcgQgAAFCcgQgAAFBYxP8HNmQSYydkb7sAAAAASUVORK5CYII=;" vertex="1" parent="1">
          <mxGeometry x="25.73" y="100" width="802" height="482" as="geometry" />
        </mxCell>
        <mxCell id="bXhEvjdw58ReICiHxhLh-11" value="" style="shape=image;verticalLabelPosition=bottom;labelBackgroundColor=default;verticalAlign=top;aspect=fixed;imageAspect=0;image=data:image/png,iVBORw0KGgoAAAANSUhEUgAAAZoAAADECAYAAACm9edQAAAAAXNSR0IArs4c6QAAAARnQU1BAACxjwv8YQUAAAAJcEhZcwAADsMAAA7DAcdvqGQAACSeSURBVHhe7Z1dbHTHWcefTRugobRAgYIA0aLdGodatEqFsF8QSkFF6wZ1814YcVEn9GIXREvtSC80EIOKA6mwFPsllWB9UYi5QPjilYHUK1UVuSixESSikkPM2121QYD4LKQtbRFpu8wzZ87ZOXNmzpmze2bt9f5/1srnzJmPZz7OPjPn47+1oYAAAACAANx///10h9oGAAAAggBHAwAAIChwNAAAAIICRwMAACAocDQAAACCAkcDAAAgKHA0AAAAggJHAwAAIKFWq9Fzzz2n9rLwMY5ThgJHM6Cb12pUu3ZNZsyfa52b1Buow9rxa3z8WoduJsdmlMFNUZcO9dQuAADME88++ywtX/tRq7PhMD7GccrgsaJZob0nnyEWEODPk60X6NHGNc2hRMefEcf6jxBtPHBTuJ/ZotepUSf2LPX3i7p0qal2AQBgnrjnnnvo9Jm/zDib2MnwMY5ThtKXzurNLj25JxzKTnbOX2/cLdwOAACAWcZ0NpM4GWasezT1d67RyvOfMlYuA+rtHBKtvZPqKiTF4CZ1+BKb/GiXprTwWu2aWFnEufaoU+vQzZsd7Zg6lHtM0IvC88qKwgd0s3ONVveJ9ldFWIdXY1Hek9lnYLUnTh+lvTkw90WUwrKjcAAAqBrd2UziZCQsqummP9xbWRnu9dVuTH9vuLKyJ47ycRqSiCNWMuJ/e3hsxpUcD9u2Y5wP6eEiHsXl8TYN28fygFYmk3MsFU9w3B6SjOiwQXDc1vKSeYt4vDm2fRp59oj0K0njGvseZY/SAgBA9Tz77LPDO7/+G+SHt8eh1WoNx3vqrP8CnahN/R7N8MkWHaXu3yh6R/T82g1qmksdzqfd0sKbdGOP6PCjcQZtasU3S+pvojefvEB9tes8xnmeHNID8Qri0eeFhWL15bIhj4nsU7jskQfb9Mj7dYO0fY+y02kBAKA69Mtl+mW0cRjL0fSO9mnFdoms3qC7V07oBePbdvCp59VWlpW7G2qrQtqP0DPPCOcXf7rvJ8qxIY9K7LPY4+MigrQNAAAUYN6TMe/ZlKWkoxlQ7+Y1evT5PXrSNpsefJQOT1bI/H7kezp0uKM9Fq1o3M1PFWjhPYpu80wwU+cHEvaPMmU5bcijCvsc9hQSom0AAKAA143/SZyNh6M5oY0HrkXvydQeoEdfeISefEafkWvHG4f05uNnKOOD+JHhR4gebUTv3HTia2scfizCOb28tPQo0SOW9GUQeT7JeYqyojyv0U2+++6yQdBsten51egdoZQ/qMI+lz1FhGgbAAAo4G1ve1vGycTEzobjlAG/sAkAACAY+IVNAAAAwYGjAQAAEBQ4GgAAAEGBowEAABAUOBoAAABBgaMBAAAQFDgaAAAAQYGjAQAAEBQ4GgAAAEGBowEAABAUOBoAAABBgaMBAAAQFDgaAAAAQYGjAQAAEBQ4GgAAAEGBowEAABAUOBoAAABBgaMBAAAQFDgaAAAAQYGjAQAAEBQ4GgAAAEGBowEAABAUOBoAAABBgaMBAAAQFDgaAAAAQYGjAQAAEBQ4GgAAAEGBowEAABAUOBoAAABBgaMBAAAQFDgaAAAAQYGjAQAAEBQ4GgAAAEGBowEAABCU2lCgtqfK/33+c/RPHz+mf/vrZ+iL//yP9O/iv853/PA1+sbv/l56vfj/PT+5Sl/3mteqIwAAAGaF+++/f/qOhh3Mc7/9a9LJvOrLX6Dv/LoafeudNXrNK2sk/kleFhZ9/itD+i+x8a//N6Qvv+qbpLO551d/Cw4HAABmCHY0U7109vd/+Pv0p29/K73cO6Qfu/NL9GPf/Apq3HUHvU54mNjJMLzNYXyM43BcTsNpOY/J6VGnVqOVlZXk09nr0UAdTR3n/5097dhlY0C9TkdYrBjsCbsvs70ecB1qK7RXWSWMNqqKKtvaK68x69HrUK1TQe3Hrm+g9r9IjLYY7K1Qjb8reNBye8/6OVgxU3E0vIo5/cB76fx3tuieO75IP/TqO+hVJUrmuJyG03IenBfnORHLu3RwckIn8nNArfNtaugnY3xcLPi2aJN2LvFZcvtMbTD1DVGfDaqr3Vlk8NQhLbWX6PCp6k7VVBvNMBdajwnG1lVp/wSjLfrnRLv9IZ1siJBml4Yzfg5WTXBHww7h4+9+F332z/9Erk54pTIunJbz4Lw4z4mdTUJdjI0tau8fWWZdA3GSLNNiQ+3qiJlLsioSKyJmoIetqFmcnP10qNPhsNpotuMK50N6ProDTJW5R3udddo83adVsd/h2ZQ50ypjj4HVBpX/nkgr05n7ZrpUmVo8jmOdZQ/oqcMlanVbtLS5Y58F59iftXmQaaOeSBevluRMVK+b2vaqg4ypkPGNMKaofaxtwHH2qKPiREMrW48onj2vwd4ovHOkAg1K11Edk2Fy29YHbKdIK2b3tRrn6bLbrB8HuvIU6LbazjVHO2bt4aCoHA6P0ottVZAzT7N8rS16nRqt7p/SZkOtaPhYXloDa5kq/6QfzH0znU//XSR8jyYkJ7/yi8M/v/vbhv+x/PrhSyvVfDgvzpPzHo/jYXt5d9hXezHH7eWhmJXw1rAtmmZ5eXm4TOLTPs7EHfZ3xXEjDzPsuD0kkVaGU1vkGgfTkINzw+VGRGKXrUyxt7s8yiMVx4xfZI9Ong2iTaJ2cuw7y9TiiXA9/wStXKtdjMyrRLsZbdTfFX0aVWa4K+LE9nJ4ko9PHeJ48r/WBzq2NDYb47yi4BGpcEtfe+TF9ZL265jlueqoo6eR8bJ9MGpbHcNuHY88U3FiOMxWdwOrPbIcS5+48nSVr4WlytfzsaXVySvTtNE29tSuSFjcfxdEq9UaBl3R8P2Uf/2zP6Efee0rUvdgJoXz4jw572ru2TC8clGbTHLp7IQOFo3LagK+vENr96WWx5mwZovaZ7ejWcXyIsWLosbiMp3dVnMNSzjnc7q/ncxWtoVd5317mXmMZY/CZYNkeY3u043Q9vPL1NI1u3TSbaqdEZx+qRWFN1tt2j/KzgAlJdrNpH7fmjrQp3Paoq2lQ+KrdHz5g1eu3nWQHNL6usjlpEvZ2iiM9vGxMVmRrG/SqQozceVl2l9fWFJbI8rV0YGlD2TbHq5Tpyf6Qx2z4ayfo19Ttgp829Fpj17H+gIt7R/Rnmd7lqEobW49zH4wxtHE/TdFgjkavqx19uHfkfdWdCdTe/Vr6Rs/fIte0XizCimG43IaThvDeXLeXEY1l9DEl87pEi1YOogH67LanhbLuwfq/lH0sXwnB2f6NvRoZ/OU9lf5Mof4rO6T8DTRJQFPvGyu30drZyLf3hGRcGrN1pI4uXt0dDbOCbok/s4o8dODHu11+PKP+MTXYwwKbex1aJ1uqOPHJFbXTi7DOEkh710cUOv2Dq3Hl3NMStQvD2vdzfb3sYcRDm6B/11Ae166PgxAMEfDjzC//uX/ydyTuetDf0CvfOuKt7OJnQyn4bQ6nDeXwWVNxoD2VraJjrvWWamcPRg3aaKZ0lOpWVImTHyRnS0tlJ4J2fJmXOEuJrGnbFkx3mXy9WXzurqIu98+5su5yee4vU+uRY2Jv811Wlg6o23R5bJbG4vEO7Gd5dptkW6cbNH5urrvU2/SRrdLXf7wjWEDHxsH+tKa20Rtmrjy4hXMqTa97x1lcyhXx7LUqblxg9Z0B6zhW78YWz2d7Whtf4s9p+diaqlQdW+62tNVlgdFacfNO5Ou0v6rniCOhlcY/J7Mm+7KZv+/N3+dhv/zebE6eU2hsxmtZF4j03BaEy6Dyyq9qjndFDOcaLm6srJDtHWQnklox9fP1+jA/NIQM6WDtfNRHnyTzww7WqSDcaYncT41lU98U89Wphha962d0aqIm5lBT2KPy4YiJiiTvxDb6rJZTPPGLp1tlyw7Y3O2jXgVcyqchFzBiBXOotiLL9mVr0OTugdrdLieM2OO8WjX+sYWLR025PHO7UVtxm/Uw5VXs0vHFF+O6dDtRcuaYYJ+yiN+zLdWa9Dh0hZFp03abnf9HJi26udaTjsydnsEy0RH8cMAYsKxxXV35Wkr35eitJ71yGDmW1H/hSLIC5ufvvXH9MLWL8knxGyYDuSL771OX+0/r45G+MSJ+cRLX6W7t3+Xvv/6z6oQAABwwE9mrRMd4BHkqRDshU2WleE3/l2ww2DH4VrZlHEyDJfFZQIAALh8BHE0rF3GsjJ5uJxNWSfDcFlcJgAAFFKf/ZeaZ40gjoYFMlm7rAibsynrZBguyxTlBAAAcDkI4miYggVNgulsyjoZxrcsAAAA0yeYowET0BtDBFFJT2SeWNHDXXEqwVM4sQo7ffKYG4x2r6wNxhPC1KVvVmLJF0kk/ZMc02RfxICnToHN7nynCb8God7x0j6J7MzcjT1/gjkalvr3wbwno19G0x8QyMO3rLlkitejKxNOHNfmOb32nmr3CtugdH+KCVLjfHEkVjvsqvfS+At6nY5a2ouJB63Ru0dFOPOdNnXaOIne7+rvLrPii9yWQpoglyCOhn+0jH9PpgjbjX/zno2Ps+GyuMwyWAXpGD08fubdDOPZi7bi4Gf15a6a1XgL4aXyGIXbRBB9hCCJzmlHzhrFTCueXeXMtJwCghr2OKZQIe97CidKzukpaSd/9JmtImWzWVZMQV3ltl2gMdXWYtZuWz26bdewjBW30KHFljwbXX2TKpPHVghRVVd/WvLKYHs5d4c2l7ao29SO1JvU3VqiTW9ZdPvLiNZ2Um0Qn3f8fzTG2OlFtvukTbdLEZYxKXD25TzB79FUDYtd/s1bvt0qiBl/vvDATwy/9oXPyfj8n/d9jtk+XFYpgc08QboC8TwJh2lCeCkxxiIhPC1dGRHEkThgjhBkkSChuW2zRccRZ2SLThnhREubmHG0+tlFET3q6iHQaGvrFEb8BFu4GZYSOnTY4grXbHKNkwiL0GYcx4xfZE+KnHyZOC8DtpU4XX9kpX28CJI87SK3OrZ8ZXpXO+ljTNialB+n8U3rIDnvYmQ6S5u6ypkjgolq8s8v8y9juih6hNn2NFreyobL4jJ9cQnS9SwCeEWieBkKhPDGFUGUkhNSVsQuBCkpEMrUcdmi44oTyV9MIpyotZESNHTN85xl+dTVQ6DR1taM03aFmQ+TCUsJHTrsddhYhbjjWPY4yM1Lo9k9oeFBi47WG5XO3m35utpJoo8xYeuSkmvhNKwA4Z22DCX6ct4I4mj4Z5f555e//DUVoFHkZGJ8nQ2XEf/U8ywwtoBepUKQET62WOPI+wAVCidqJ2gGn7KqpoztgZhpoUW+LHbCPxi4Ki8pm9prCTxLKuE4zXwZv3ZqUktOzNRvHak402rjme7LigjiaPh3/fmL/1Nfynqab3j/bxY6mRjT2XBaEy6Dy+IyfXEJ0tlE9TJxY5LZHA9el5B7GldePiKIIlauEGRZnPXSyI8zgXCiRdAwvw75ZZXBp619RB9tbZMJ86pbFuc48egznarsYcbLS/1gYPMG7Z5ty1VpwqBHHTG9Xxtv6SDzLdMePDE73Nmhw7Ub8kECr7R8b2XCVVnZPruqBHvq7J5f/S36tztfTZ81Hgn70gd+jr7ytyeFTiYmdjachtPqcN5cBpdVCjFLtgrSmeF8g9cRtrV2SA0phLcjZmWePyIQ52UK6PmIIApyhSDL4rJFxxFnYuFEm6ChA6co4rhY2no5ufYY4SX66BgXqbBxhQ5dfWMr02j3FBPZ4xDwzMtLfDHXEptX6GjxIBkbG2JVuni0ro6J/mys0tlafFyQErk1Vq6ufF3tZIMvn+1rjq1M2kmYVjmXnCCimjH8o2T8G/8srln1S5Xsv1hMc/GXt+kHHvx5FQpAOdiR7SzM5+WMi4Wf/mrQJu1SH3IwVxoW1QzqaJjTD7xX/sZ/lb+yyU7mrz73VXrdT/8MLX/owyoUAD/4cdN1visrWBKzatvvxgAAqmEqjoZ/J+bj734XfW3wd5U4m9jJ3FH/QfrJP/rTUvdmAAAATJdgPxOgw46AHQKvPvhSl3nPpgyclvPgvOBkAABgNgi+otHhezb8G//888tvuusOepWnm+NHmPnpMr7xv/TeX8Y9GQAAmBGmsqLRYQfxrr/4W7qzuUafePkuuTrpCwfCKxV9ocPbHMbHOA7H5TScFk6mavLFE5MXFyt8+S4FP1EUKu8LYTwxyqmgy9MYUjUJrvACep1a8m5LAj8ebD4Jl4dRtv/Ym1RYNK/PJs0bMFN1NAxf7uIb+Ow0+OeXX/6pNfr0wo/Qxz77Ffrof0Yf3uYwPsZxOC6nwaWyMLjFE/kdoTNaOzihEzyW5U1pMcppUQ8nOtpstWn/KP1V3Tsq+Z5Myr5yY2/SNs9Lf2n7c5bgS2fzR6QXxtUnTZ+oz5pIy6wjJj6xPhFrFS3vRvHV/5FW0UgPyietLnGkax6l9LY0baT+8e6wrfLcVYdFqNX2BFlme9gWcZaXRRyt3JSN0m4tLxHWNkSYpL5UfEwUlE0vMLScEg2oPDt2R/m023bNLGdZM9yejN0GgZ5XfMASliozaTdbHSxhqv2kVapeHCfKT2zzAT0O71rLs3E8bOvt55OPiiPt5LhaGn3sUUp7TNQrHg8SS5urutn7zGz/vD4rm7dvW80XrHU2l47GKvLHA0gbHMkXF4cHEOgb2RAN5vgES76odTgf7bhVoDBGljk6EV1iklyP6MvYPHF1+JhWF1t6DtcMTuz3tIPjZxxNXlkz3Z4aenozL8YVplUmHme2OljrZZapt2WctxnHUp4LXZwzVb4rH5sNSZ21sWc751IYbS7ztfSZTqYsV5955m3YVdRW80QwUc3LTiQLkRZqnLZAn7RBRnKLZNqEHW22Z3CI+/mIIroYK72HHTZRy9yyZrw9bTZk8hK4wmzjzFYHv3ppbWkRN3WV52J0+Ywve7H5Uea5+fgIWFrOuUIsfcbY2r80jvFQpq3mjbl0NNG14KxQ41QF+opEMvmlQpuwo8P2uWcW2tNlQwms48xWh3HqpX2BxpQa19LZij4YPEWHlHYgkwlLaufc+eicK00F7Z/HZHW82syno5GkhRqjGWBAgb4M+SKZ+cKO5UUmMzaWFFjMTV9CYNRH1HI8Wy9/e7pssI0f37ARtjoU1KtA3NRZHj9NZn0SjB3CGR3tpFdj+Xb7EZ9z59SS59w4+IiljksVdbzKzKWjsQo1ihngtAX6+ORxiWS6hB3HFpmMbVRL+5EoYo4oo44rvQgvJTDqIyDqtDWfy96eTrFOM68cMVcZZowzWx286lUkbuooLw/ug/39JdrSCxwjnwzqnFu8YRsHfmPYLZaal77k+TFJHa8wU31hEwAAxoLfX1knOoAA58wx9Rc2AQCgLD1eda0f0toBnMysghUNAACAYGBFAwAAIDhwNAAAAIIyn45mbGG8SyyYGIKZEBAM2Cc9m+BnSAFHzk69UMifmh6P08VPNPGnQ6OHoHrUKbDBne8UuYDxFD99J8U9uT+nPZ59xtAcMJ+Ops4vs413Y3GuBPYmaKdpMu0+mbQ8Z3rxpdQ4X6SD+KW/YVe9M8I/e7xORy3thcCDFp2vr2jOJgdnvlPmAsYTK0Ps9od0wo9bN7s0vCTjea6+RwRY0cjtDnXkbLGmzXjEyS3ConcRePbB++u0ebpPq2JWGD9TP+jtidlkNFPkVx2iQFeeAnHSJzNLlYB/WjgJs70Il5OfT/mcZ0+b0cZfTn7lutrDQlHdhE0yVOUr8+P8zX0znW5bqgxOk+0TnbL9o8/8O0cqMME+BojOaceWV6ZsV3ody0ufvR3aXNqiblM7Um9Sd2uJNne0tsnF/jKptZ2N/uD/I1NFHVQ/+qRN1VAdi8KqHk/Z/uSfLljdP6XNhlrRcDxtLKX6Wqww5MojE0cc411LvVxjdJwxZK3XVYKfOps7dEE9h0ieXWwxR3zPI89UnBgOKxLjc+Wn4yyfbaZRXRximM5yVZ5e4pO2uulhLnFM277NNlsZsn6OPtHR08ryivuH65wR/DTLc+Wlk8o3316uK/Hx/qiWzrZP8j0etjPtksaWr0zvame9P2yilr5pdfiYsrP68WTvg8QuhuPFB4y8kr7W4wg4XO7KMhx5CVL1t+WbwjKGbPW6IsytqGYGi0heJClRIEooSGYvpkifjxCjwFuMr6xIYBKfpVmWRyoGjUV+Iby0CGBRe7jqlgrThSdNMUVt32WbrYwiJukfm+CnlbJ9k0Oze0LDgxYdrTdSs+RJseXrameJ3j8WUUvvtA6qH0/2PnBh5uXV12OMUZ98c+t1RYCjcSGvJxeIEorlbhUifWOL8U1YfqlyfdqjQioRKKyof8ZikrL5stjJkLZoVV62MfXhEvgGhPFlnIuRL+PXzhUJyepMeTyFoJIxOifA0eSSL0pYVqTPJrw3iRjfJCKB45Xrbg+vulmEG224bCtrc+n+8RD89KUaAcflSCC0eYN2z7bl7D9h0KOOmEaX+gXLhCjfMu1ZjZCsyXTGk43cvvYQiXXVf5wxVGW9LitwNA7sooRpgT23SJ8DMYvzFUr0oXT5OiXLLRRpzKtbHOYpjum0zVaG0Sc6pdvHR/AzpzydsQQcxSqoltR5hY4WD5JxtyFm/4tH6+qY6IfGKp2txccFp5ujdjFXCK58y4wBJWo5qZBszFTHkw1LXy9L7+spEuuq/zhjqMp6XVIgQQPATMJPfzVok3apD6HJiWHHt7OAy18hYAkaOBoAwFzCjxSv8118wZJYHXYzyypQBXA0AAAAggJRTQAAAMGBowEAABAUOBodXSJD354ZZlmsb1KxynEpFqQcm7w68JNgE7+QKWyvKXkVDRbfzHkgrlqs9VB28RNU/GTZVM4pR5mTELz/5gc4mivGLIv1pWyvT0eAcbDHP5YfqJxp1GF5mfgN+6k5Fl+WdyMRz+GQ+vy4sHzzNHB72MqchCmNwXlgbh2NVWwxB5vonT5zlO8FxAObZ0LmIFezo0JRPhmvpCCmtMdDrM914ulxVGPY6mvalp6pOkQqXeWnyuR2MWxX7WXNp8ge2RbxexraKikDv5C3Rjf4kVaVF6eLy5BNqOxw9puyJb2K4EePRbhZB60fdbFFaxuZ5XIca/+t0cEWv0xpr2UI0VVXPVzwC4nybRS9PZQNmfbmQ9Zyffs0wizzwvsvCk3hlc7T/kw6jqP12YXDT53NNbqgnc82o0TvRsKA/eFuW2yrOIkQnw7n4SvK5yOIabEnim+I9dnK0DHzYlz5p2zjYE2M0hVuK99Wps32OI4Zv8CeUb8UoNsn87L0jy3cZov4bxWedNQhEVuM4yrS40Arl/PX4kWMxDQ5XXy4sJ9l3nG75Ywxl122eqTQRT77Mq3MP2OD0a455Rb3aU6Zl6H/THzT2fZt9pvxrOPlYphrUc0ygocu0Tti6QgpN9Gnc9qiLakHFUlQSekQEw9RPomHIKbNHnPWlFuGIpOXIDd/l3ihQ6TSR3iwiLL2RJIexYKozJLeUboYZH2BlvaPotmi0W9WW8R/U3hSx0wXiy1yuJc4ZbNLJzlvEza7W0Tb2Zm+c5x7jLGJRCMTpQL1Ozq2d1Qs7b3nKNerT11lXob+MyiVzsd+3tbTFYyXaTOfjkYsKysRW6zfR2tn4suoJ9bRYmCyHtR5v0dHZ+4BpjMNUb6LFv67kPLltfUKBBs1J1aMXXjSh2raqEk31s5oe3T9Z+JxPpFd8f0Smc7jZGBEey/wP1u5Pn06TpkJ0++/Czk3Loi5dDQTi2Emonc8GxQn97ZawYjZIO9MIhzpg9ueND5l2OL45l+Eq3wfu3TGs8cQbHRcsz5LppGC03OxNlX4tqkWzxSe1HGJLXq3hcc19/rGAa2JWT/PjpkQoqvjiEY6sbR3M7c98kVufbiw/jOoLJ1jnPqMl2kyl45mYjFMTfSOB+cpLUYrGLHCWRR75rLbSpznOKKETnscYn15ZZh5VSle6CrfVqZpu05JewoFG2PkilRddmCWiY46qgx+GM1WRp4tfPlFF57UcYktutpoLOq0cSC+iNQ1siCiq16ikZ7Y2ttRrnefFnER/cdf+q4xXbbf8+y/xECCBsw1iZhiY49W1okO8DjrdOCnpOakveddsBMSNGDu4Vk/bU+yigAgn/55uXs+VxGsaAAAAAQDKxoAAADBgaMBAAAQlLl3NL1OLfVEiC7vkHn6yYtBSs6DBf7GespQSUpYLRA2Ti7oN8sCnBdFKOHP8fpCl0RZScmycH4qXH5G8i5i8BSKiLrzDQvfNL9ET+SCCplvRyO+KLbPpCJShNhf315UL30d0OIYYoW9zjptJy/Jic9weGmfNpllAc6LIpTwZ+m+EJONxnk8VnmcddW7H6zTpd6Mj48dtOh8XdfyysGZb3jwYMbVZY4djTgh189pa0uT0GDtmETegd/r0GQhfJCOa40OHA/5O8XwtGmca1bnEvRLkLNrD2FLWS4LFGYFOHXcwn0lhBBzbNLxEjjV878Swp8x9r6w5pXB9qLeDm0ubaXfjK83qSvG+aZDeDOLJV+Bu49HYo78fzSclDglb3mkHQiXdmMtknECVwx+6mweYRE7qTmniemxUJ6uQ1cs5JcmN36eGJ5WaGKDHt9Imwj66UhRPYewpa1cEZISsdRxpZFlGAJ/cbhmT1og0GKTC7PcGFu4GZay0dEOrnCX7RlbqhP+TJOTL5P0WRq2lThdf2Slcwwmeerik3Zs+cr0rnYyxRzjnTiNb1pGTw+uBHMrqsmrhu3Fg6le0soVwyvAJeiXwSFsWbZcb+G+AiFEicUmkyKB04w9gnwbHWU62sdHPLKIsexxkJuXRrN7QsODFh2tN9IrsQmx5etqJ0lKzDErTumdlmkskmN0gxlmLh3NjjiPWQlWDvzVfTrdXE8uWZhfAksLxlfNoCeW+nwpRHxG1wgkph7SXCC+RJ1CiD70KhI4nYCZFjfky2InQ9qiVXnJ1TkGU5eFPTDyZfzayS5OOU8CkiDLXDqarjbgT47b8iTobtQNwTqHiqs4ATe6Xeryx7wX07xBu2fb4sRMOyAmVwwvma1ymdk5/SRCht4ifBq5aUoLIebjI/yYsUcwTr1s2PJmXOEuqrKHGS+v5UjY1TYGxeSoI5YRVg2vQqJ8y7SHKU5Zqi2FQ9RGBLgizPdTZyYpwbp1Ot/qlnzipk4b/LTa0TrVlFheZ49vvfMhhxieCN/in52V8XfErFN7Ci5mEiFDpwjfmCKWJYQQffASfjTtuQLCn2kcYqh5eYmVYDzG+HO0eKCEJkdjMDpWo1pjlc7W4uOC5Hdb+GM8aODK19VONvjymS5OWSItTzwyVxHAzAMJmsDwE1VP0QZtjPEdeOngp4QgPDmD8NNfDdqkXepf6r7jd3xu0w2MrysFJGimQL15RZwMmGF4lTOk4SX/Ah/s8RIZTuYqghUNAACAYGBFAwAAIDhwNAAAAIICRwMAACAocDQAAACCAkcDAAAgKHA0AAAAggJHAwAAIChwNAAAAIICRwMAACAocDQAAACCAkcDAAAgKHA0AAAAggJHAwAAIChwNAAAAIICRwMAACAocDQAAACCAkcDAAAgKHA0AAAAggJHAwAAIChwNAAAAIICRwMAACAocDQAAACCUnvppZeGahsAAAColAcffBArGgAAAGGBowEAABAUOBoAAABBgaMBAAAQFDgaAAAAQYGjAQAAEBQ4GgAAAEGBowEAABAUOBoAAABBgTIAAGBu+eYP/YvaAi5e+sB3qa3xgDIAAACA4GBFAwCYW+IVzT/8wl30lre8hT75yU/iv/r/fb/3Jdk2Vaxo4GgAAHNL7Gi+pbsiv1xBBDub/+6cyG1cOgMAgAqAk0lTdXvA0QAA5h6ewYMRVbcHHA0AYO7BiiYNVjQAAFAx01/RvEgfefg6Xb8efx6mj7yoDtHT9PD1j4gYiqcfpusPP612pgNWNAAAUDHTXdEIJ3P9Ieq/43G6detW9Hn8HdR/6LrmbBQvfoSuP9Ggxx+7VwVMB6xoAACgYqa6onm6Sx9ceB89du8bVIDgDffSY+9boA929ZWLWNk81Kf33XoPaTGnAlY0AABQMdNc0bz4mdt0T+ONak/jjQ265/Zn1CWzPnWvP0GNxx+j6a5lIrCiAQCAipn+PZoiGtRYEO7mM2p3ymBFAwAAFTPNFc0b3rhAz9k8yGf6RPe9PblM9vbH3kf0xHWa8nMAEqxoAACgYqa6orm3Q79x+wnhQLQ7/y8+TQ8/cVv4Gf1uzL302OP30e0HLQ8JBAYrGgAAqJhprmjEmobec+txanzsodHjzQ99jN7x+C16j3nX/w3voVt/uEAf/PGHaZoLm6rbA1pnAIC5BVpndnhFA60zAACoEDiZNLhHAwAAFXP5njq7WHCPBgAAKoZn8PGXK/5Hv0dTJbhHAwCYW/BTzsXgHg0AAIBLD1Y0AAAAgoEVDQAAgODA0QAAAAgKHA0AAICgwNEAAAAIChwNAACAoMDRAAAACAocDQAAgKDA0QAAAAgKHA0AAICgwNEAAAAISq3VakGCBgAAQCCI/h+2In0geF+kYwAAAABJRU5ErkJggg==;" vertex="1" parent="1">
          <mxGeometry x="25.73" y="3640" width="410" height="196" as="geometry" />
        </mxCell>
        <mxCell id="bXhEvjdw58ReICiHxhLh-12" value="&lt;font style=&quot;font-size: 15px;&quot;&gt;エラーメッセージ&lt;/font&gt;" style="text;html=1;align=center;verticalAlign=middle;resizable=0;points=[];autosize=1;strokeColor=none;fillColor=none;" vertex="1" parent="1">
          <mxGeometry x="30" y="3320" width="140" height="30" as="geometry" />
        </mxCell>
        <mxCell id="bXhEvjdw58ReICiHxhLh-13" value="&lt;font style=&quot;font-size: 15px;&quot;&gt;CSV接続エラー&lt;/font&gt;" style="text;html=1;align=center;verticalAlign=middle;resizable=0;points=[];autosize=1;strokeColor=none;fillColor=none;" vertex="1" parent="1">
          <mxGeometry x="30" y="3370" width="130" height="30" as="geometry" />
        </mxCell>
        <mxCell id="bXhEvjdw58ReICiHxhLh-14" value="" style="shape=image;verticalLabelPosition=bottom;labelBackgroundColor=default;verticalAlign=top;aspect=fixed;imageAspect=0;image=data:image/png,iVBORw0KGgoAAAANSUhEUgAAAWEAAACpCAYAAAD6M4y6AAAAAXNSR0IArs4c6QAAAARnQU1BAACxjwv8YQUAAAAJcEhZcwAADsMAAA7DAcdvqGQAAB0MSURBVHhe7Z1xjCPXXcd/TpqKpCUtBFoQIFJk3+KQFamuILxLhVKqSN4c1Lo/jEDgK/nDBtFwu5G29OAWVPYgVVc675JKYP8Req4oqiVOLuzZUqnIH+W8CBq10oZbNnZJECBaROGStik0bc3v9+bNzJvxzHjstT272e/nNGf7zXu/9+aN9+vfvHnvN6kBQwAAABLhDv0KAAAgASDCAACQIBBhAABIEIgwAAAkCEQYAAASBCIMAAAJAhEGAIAEgQgDAMAYpFIpevbZZ/WnYWSf5IlLLBHud3aospxShlOpZap0+k76sp2+XKEdTu5UUrxf7Tbo087ystrv0qFKqsL/Twujjj63a6q2AQDA4rOf/Szlln86UIglTfZJnriMFOF+p0IXrhAVrg1IFtcNBteo8PwN6rPQXVi5RZft9GsFoht9yhfKVG/55K9/g5pUpEfT+vOsSV+km4Ma5fVHAACYFmfPnqW9m387JMS2AMs+yROXESLcoa0Voss3L1LeEdA05S9epHTvFnWXHqCMnZ7O08WL/CFfoHK95fFC+zeaRMVHuSQAAJx8/EI8qQAL0SLcaVG9XAj2KEVsu6t0YadDnlEGzl0o18l1hvtkafAICWbPurK8TMu8mUMeUr5TsdKXUylaNsc62EtXabKvcoNu6WTvUIf1fmeH8zq21Q4Ljw2rDd5hE43kkzxq89u27O70/Z85S+hxefMCAE4WphBPKsBCpAj3n3+Olh7I6E9+8lQb9OjyrSuU8YiL6LMxJBFnKELGcDO3qHDtJt28eZMGg8tEKxe0GLLnXbPSb3J9xeeuuOO+4qUPBta+daLnupI/iDrdOlOzbPeK9NyVHeuHI64NyXflAbomeWST5jlKXufju8ZtvklyIeD5TFHHJbh5AQCnk0gRTp95kLq3evpTEJZADnosLlcytGyrizEkEWsoQoY2xON2MuVpfZuoecOyJ+PSlgd6gVa7XVJNssuoHEz6USou6fdDlKlgZ0yfoQe7t0gdVVwbkq/bpAu2J3yFf5zoeX0FUKbLlvpqjM8jjmu4LADgpGAOQZhDE+MSPRyReYCWfOO7gaTZK75cpm7zhhYme0gi5lAEE+pxswBnWgXHC22XreRoLz0eY9koX7a8YHurXYw1xn3UNgIAjh/+MWD/GPE4RItw+iJdZjFdWdaX7yadHdoxhiBE0OjBM44wqSGJKxfizYpgsafVLXLNdWhLi7ctlJaJDrXq6g07rUWrjPWRd21RM3Q4IpjYNuwfo6FOGEHEcQEATiZhN+EmFeJoEWbytQH1irfogp4jbM0JZlHOP0rUumB95u3CrSL1asYtPHXjrksPXo7hMcqUsjbRlQv6cn/5ikzJUGOs6YuX6cFmhuvk9Mrz9ID2hKXMNb60v6JvqlWeL0QMR4QQ14bkk/Zl9A083nZGXh4wEccFADiZvOMd7xgSYBtbiCVPXPBkDQ8yY6FFBcwxBgDMCYiwQX9nmTK3LtPA9OgBAGCGjByOeK3jzLwIGlIBAIAZA08YAAAS5NR7wgAAkCQQYQAASBCIMAAAJAhEGAAAEgQiDAAACQIRBgCABIEIAwBAgkCEAQAgQSDCAACQIBBhAABIEIgwAAAkCEQYAAASBCIMAAAJAhEGAIAEgQgDAECCQIQBACBBIMIAAJAgEGEAAEgQiDAAACQIRBgAABIEIgwAAAkCEQYAgASBCAMAQIJAhAEAIEEgwgAAkCAQYQAASBCIMAAAJAhEGAAAEgQiDAAACQIRBgCABIEIAwBAgqQGjH4/V77x8kv0b59u05f+/iZ97d//lf6TX03e8pPL9IYf+CF6K7/+4LtX6PX3vknvAQCA1w5zF2ER32f/8HeUAN/99a/Q970+Rd99V4rufV2K+EXxKrfo5W8O6L/5zRe/MaCv3/2dSojP/vYfQIwBAK8p5joc8U8f/RP65LveTq92mvTOu16hd775Tsrccwfdx+prC7Ag7yVN9kkeyStlpKzYODodqqRStLS0pLcKp8yDPnW2K2693IbKJBX3t7n8NlsLoFOh1ERGTbidlfA+6W8vUUr6b5tbIPWFtSWMkDaG2o06XgBOOHMRYfF+9z7wPjr48AadveNr9ONvvIPuHqNmyStlpKzYEFti80jkqtTodqmrthrldfIs6VRKtEnruk7e+CKkNo+KJ+BwX78JoHdAVO0NqLuaJsrXaNBdJX53ZGZlF4DjzMxFWMTy07/yHvryX31CebXi4U6KlBUbYktsHlmI/WiPa7vCHpl4Xv7PkoU9tCEP2p9P8vg9Pc6zuV+khghMAKF2DTviKQY5uX3Du660dKKJal+FKty+paWUx3MdrrfPx1Gitb06rYg98UoNOpUUrdT3aC2jPVazjVH1jGhjpF0fnjaH5AHgpDBzEZbx32/3/5F+6k13eoYcJkVsiC2xKbYnZm+NSkF/yHtNovWu64WZn1kYSptZ14PeIFqxy/rL+ejv8v7iuWDPLsruKKRs0y27ng1xYfeICjXJM6D24hptifnAenu0WmtQNVemNqfVfD8a+RqXL+dcj9VPWD0j2jjSro3YahWs9vK2wdcWvt8JAE4UMxVhGb/94l9+YmoCbGMLsdieeIzYHI4wxwRyRTpnaoDxeUhI8wUq7x9a3p5Zji+lPTZHEGl3BP6y6YVF/c5HLksZ/TaTzdH+Yf9I9YYSo57QNsZAbO3VNx1PeJP1/KCndwJwApmZCMtQwf5HPqzGck0BTr3xTfSGj1ynOzMP6pTRSF4pI2VtxKbYljqmPiwxA0R49qAWUyFXbTiesGzHdVwdgDjMTIRlqOCtr351aAz4ng/9Kb3u7UuxhdgWYCkjZU3EttRxpGGJMUifKxI1d11PsdOi/cUF15O0CRoTzq9TdX+TKp1hPzPSruOZ9mm3ydf6Pvzi3mnV9bvRxD6eI3KUNvoZajMAJ5yZiLB4pjIP+Mw9w+b/d+d3afDVl9mrvXekELse8L2qjJT1I3VIXWN7w+aY8FIl3rhiepUaxQO3XCtLjdhuWJpWuw3KtkqUSlnlK9tyG0x2hdjl9I1ikzIq/xZf0ueUJQ/5GrXJvjyv0GG2rHfEIPR40nSuuE8rXK//xtxEHKWNfuw26z7E1DVw0pnJYo1/vv7ndGvjN9VMhiD84vq1952nb/We03st4uSx+cztb9EDm39EP3L+F3XKyaDf2aZdWqVVXE4DcGqZiScsS5FlJVwYIqYiqmEe8TgCLEhdUudJI52HAANw2pmJCEssCFmKHEWYEI8rwILUJXUCAMBJYybDER9f+B565L7XxZqW5hddYRwBFiTWxKe+/E36pcP/0ikAAHAymNnsiDgCLPg94nEFWIhbFwBgFlixWCTuh7XJysugNBvfviPfXGV7o2x0KnpmUp/68qI+qz2JMzMRPtb0/UtiRwTW4RNmBpyRJbbqo9jxn3xf3qkS1o55E3TcfuLksQk9Ln+gJWNGybEmOgCSYsrncqi82Pf0v/TliDaZxPhuu3VmKFuuUo8vquXCul3VC3bKbfVZpXkmxOSpptMHvKO8SLTLFQ0tyw+tr0/bsizeEfIVqu+tUcb5zJuv7Z0WUSGf5jdbtKvTjgszE2EZIoiDfzjC9ojtMeI4xK0rjJGBddRKspb+AneotV+l9SRuqB2XdqRXuZ+mGFwn6rg8gZYaVDjYpIznL/V4EhUASTHlc2mvTrRRc7H3DsiZnd0/pP1y4WiBqqLavO+K4Mqarre+4ojiijk1vM8/CHwO+/LaKlCtdo5oa4m2qEG1jN4n+aLqW3RFv1ctq+XutuAPBj2qmosy+QelRXLsLN6bdRWfJMUNqq9owR7nx2kWcKOnzl//8s8PvvATbxncXnpr5PaVCz87+PZXXlJl5FU+B6UFlTU3qUvqnIhedZDLVQd8Qodplwe5clu97VVzgxyfaXnVScFluQx7APpDb1At5+QngrfywEkVuzm2J5udV9tS+ZXNkLIB7WhzPk7ScLmcm99B2S8Pypw3lyNVb7vqtsMu72mbbcffNt9xR5VRedR+632vXR2Udd6q0cjA/mVLZaMeC04L60vzuM10qUja4xp265mkX2w7vrJD543zlpWB+OcyTnsCz7fZ3zqtati161LvI85X4Dk2z19Qm6W+sl13MO2ycW4ET3sFOdds02cnuD75DkhfRm1ufexsW8fOx+HYMN8nzExEuPtbvzH4h4e+N1Aw7S1KbMcVYqlL6pwE88s5hHz53LOmxcP4Mg19kRguY4twoG0pY5x95w9K0sn4ow9tV0A7pJ1uQY99B2XfLiN/pPqLKdht9h+PmW60zZMvqoykq1ffH6DgLxd0XCrNzGPh6bOounWyQtKMfnH+qCU9Tr8YZb3nzG2v/LFb2bQwqlTJNsa5jNMefh0+30addpqdn4nVZ0HnWL0a7Qtqs9Qt4qls+MXQsumKcM/6UeHPQXnVjw+3p+c2MKA+Ta+tjrna5h8qLiB1OO3XqPNc5R9+3tFzjarj1l2TODMZjpBHEskTMcIYNQ3Nf7Nu1NCE1CV1Th07EE9Hxos3aX9vj/b29mkz5go7a4ltieSGgJ09MgCNEQQoqGxoO/iybVEv5RX7i4WQi04nuE6aFhZzVLQry2RJ1uJFBvTxBzbSRJahJpVKB7RhxGt2QlqW1iTgmsVY/dt3LvXD6u7400cRo1/Cz9lwwCI/Y51LYUR7gs+35K1Ti6+rnTTnXPClfH2RFthM5PkaOse+8zfqPMkw1aBNZTUW3CMWZuoNuuQPipc5J39XvAXkrUkEvnU+eikTUZ+6h1PapINFPheHhyots16ghd1tqlTsm3DSJLZ5Tr2l3lbGGR7xDkfo8KkJMRMRlkcRySOJvv5tnWAwSoBt4gqx1GE//mgSYgXWETHudqnBbokVPKZmfbHSCxQZD0yNnTaocLhFJf4C2eNOsQLQBJUNawf/iRQWm7Tb79MufyvV32S/Q9vyZZQtsS/YIv/bJ0eX+I+q5Iy98x+gTg4/riB6dLBnCco8OVLQoLHOZRwCzrekFspUZxWW4PhZpeIZyrKQ7nYmHQ/2nb8Rbd6tiKCtUF2NBWdorW6NE/sFbrdki99wXpVe0rfOIurLr1r7aizmtdUFakmZdJ7TV600uQnnQ8KlsuNpbXJDsO1+jgyfOmNmIsLyHDgRxedfGVbh77j4+yMF2MYvxFLWj9RxpAeBRgTWUb/EchNI/SIvUWmNf5HXSvze/kXWX3KjaJ/dtLLHE03zF2OdivrLPF4AGm/Z8HbwYRQWqbm1RQfqBgTDX8hV+TKqL2m8L9hQ22IE9Ikuk6X17gYdlJZUO6VvHDifc68m4ri8yF3xTaK25ZmF1Z0P62PHQw8OhhTGeOcsjPjnMg5D51tQXu2meniA5dFKDBBu+qZ7dTTeOfaev1FtPqdEjn9cqz1+tb1bv8BJDBW/ELp5Vbp90zesPpm5YQu2Leb+2REp3eYTwMxmR8hDOb901xvpy76pC6984Ffpm5/rjhRgG1uIpYyUNRHbUofUNTkRgXVsQn+RuWzD+pJKOdnUHV79V2E/M01+6ZuLG1YZ9oriBKAJLBvlicglan2fss7t4wmw26aPJVaAopFl8lRrFPlqvEK91Q2+jM6ofJXDbDxP2BNoaYtow+3f0Lr96Xw+JW1kMKQwbHuxgwZ5AyCNfS7jEHi+xSngHxdjuEGJLidZnrEkjHuO3fPXidNmFvVYlylqZgSLfEDVMtSgBDSsPj4GmcE06PWoXWUhZwGXrVrm99U29dRMieFhkOPKTJ+2LAHX5ZlwEshn2gsqRNslcE/2/Zv0o+/9NZ06HU5kYB3xDkpEjWlOHQPHl2N1vllQlw5pvUFUctokj8naZe94gbbEU82xp+ukl9iD36B1Fn+r7TKvOuNOY3PyhsB/n5XWAWUL63Qun+Z8Mq2N+KpP/mD5R6+zS1uyf12LtvTV1oL3QQvsZVdIhi305wSZ+SPv5aGc8ky4aT5dQwT47176Ft33c79AuQ99RKeeXjoV62ZRsXFyfv3B5OB8v7aYuQhLnF95KOe0njNnC/Ad6R+jd3/sk5OPBQMAwDFgZmPCNiKSIpbitcrwgX+MeBykrNgQWxBgAMBrgZl7wiYyRizPhJNHEp255w66O+ZPgExDk1kQchNu8X3vn/oYMAAAJMXMPWETEc/3/M3n6K58kT7z6j3Kq+2xuIqHazrI8l7SZJ/kkbxSRspOW4AlKIg5j7Gvp8XIZs6vlTvcTro9nY3zjhuERRYriFn7VRFhx76zrtoo+ew783KzYdRd+lC7HV9gHJm7KjdXRt31l3L2fGfTRmo4WIz5Wfo0omNC+3zM9CMjfRrRTgBmgnjCSfB/L90efOEvPq6WG0vchz87c59nkzTZJ3kk70xQSzKNJaX2Uk3rw6DK+9QuWSbqrHE0l6TKkkrzvW+pbAD28k3vWvpwO944AQaetoYRZjeorUFpfjiPs6TWm9+7NNfYN6qdYX0+bvo0ENvHZS0rODXM1RM2kfFceSaczG6Q8V0JyG5ukib7JM9sxn77tC1LMjeMNW+y1MiZY2lNdJfFdLLIwF0KbM0BleWhModynd9vsjfW394k2jCm1RjempqnKtNq1F1tLuu8bpPlVAfbEc91pb6noj4pTzjCUzO9QzdPRPumTPDKQ/aI1bLXiHpD+nzsdBN/38u55j635upanrzMMHCdaFkEwuky//Q4zFkCp4rERDhpJHzlwUaNZcpFia1vornEAhCBkeWgFt7VVmm1AKFEpaa7fFSJ5WbWDcEoE47zq1RbL9JiseG+1lbJXl0ZZEeWWbInrML0RS6r5PpKrYJVF28btOkITGD7BHMRxBQuwYdXCh7Q1tImZRvePvYT1ufjpjsE9H1/u0TNbMNajTWw2qNWnNlLHfu71Fw8YphHACbkVIqwjLNu8h9lbKcnbz2y3VpRt0UHi3q1lfK4hgOMDAVJYWQVUGWrSfvNLffVXpkXYicuoQFmouyacXon9f5sIed+KRkrBS2ylJXgKn4vdcYE9b21VNcXQEdWnOnlu07AGwAS4FSKMGug+qNUorVSV+vS7Rs8/ihYtteVr3XVUkhZOlngz2oZ6BhLTyXgyDqrUpE9Q/u1xl6ayn7UJayMVU6LKm9KEKdgNxIt5I22iNxwbIVztQ1i5R95szKsz8dND0WGGYYCKRlBcPxXCQDMkVMpwjVDrLrtshIoCXLjDW4S8sfJl7tOgBQ99ugPMBIc8EUiXlnL6mVY06MbIXbiElwfc0S7Q8jTGYzQjTby6P5GsUmlIeNW3IH9lfBgKmF9Pm66OlZW+9C+4J87TwAdxg6C0yyuDw9FaHsAzBzr/twpxgyQzfSMpxi4N8oleLSVFhRcOihot2lHPdkhBkF2PLMjzLv3nlkCuj7S9flmIwzbHXd2hDULQY7dNePPb85U8O2TwOFG8HM/wX0+Zroxg8Xf93L88lWXzTv7gdtpBjI38cyIAWB2zHWxBgAAAC8QYeBDpnNJnFoXiVa1GhAkezxmZReAkw1EGAAAEuTUzhMGAIDjAEQYAAAS5JSKsBF8RpayjhMUZx5Mox0jbcjTDOw5s8yR62R78gRc6VPdr/YML+cJyyrdXjYcEOxIpoUFzGU7UhAjH05b5jL9zNfH00T64cjHMO3vAJiE0+sJ2yvGBgPqybPHTuGc0EPjuZtHRZaBbzpPUrb6VS0YYbHIHBjLiJ1lw9aTgU06rX1yHu9uIPOqq/bS7XzNfRDk2Mi8Yq6jwe2YdJXgmEyzj2fBcW/faQDDEYxM8A967GNwUBxJ36aKTlfxYRTDQWJUaogND2Yex+ABbbE9f5jIUHuBNjRqn+nhSFtLtLZXpxXO74aDHLNOG/agZAFLI3Q5XsDTfOXJwPWWxwtznxLscvQgRi7yQ7G2x7ZK1io+T357JZ32BtW5lD5Qnysq+JL0i9g1PX6764a/E2F97BL4PfLV5zkPRr2Vlk400WWl7VY+d3FO/PYFfwfADJHZEacPczFBTy2IUIsZzAUQvrCGgSEljfxBCy3GteEgacbihnaZrEUJYfbCbEiaeg1aKCGLK4z0ces0CDx2AylDUlfPm8epg4my4anTbI99jPb7Ee3kTO6CErOsIAtKpLykmws41Ge7X6Q8ue20y5h47Pr6OAyzjKc+o488duUj92lQ3f62j9O+sLrBTDm9nrATRaxErULDutQ1CA2KI/tsj6S0Jk8TV1jLZb1BYqJs2AQFnFEYy4Mz2ZyKlxBmL9QGNamkQknW4kUIG6POcVBxNxoFapUyHg/VHZKQYQI5hOEjiMu47RzqM/HM9w+tc5fzeeROv6RpYTHntjOTda6ggr4TowgtE3IezPZKZL9AzLanF2hRX23Ebl9A3WC2YEyYt1rIgoHAoDh8CVtyxj7bVLay8hc+KEhMiI0jMJ69Rf7nxkqYlFF1BscS9pHOU607oA1acW/IKeFjkZBQkjQ8FDEu0+7r2IR9J6KYpMwkiKjOqy4wERgTDiEsEIzEs3XotKiu31p4g8SEB5NxiZPHJixvuI0srXc36KDkjl2OS6z25depur+prgJGk7Mi0Ckkktk+tSSsXaAnH59x+lEYys/ncn8xYOw6BtHfiWDGLeP/oeu0QkrsHZCTSx+T5+5bzPZ5kLHzgDF2MB0gwmGwZ9soHlBJxRCWzbpJYQVJ58tqTqscZh2vwp5GlUplqLm4YYWMDLHhwc6j9vPmv6lmEmYv0oYVyaxZ8k+Vsp4QssK2Ip/TFucY2NYqXwVkWyU+fiufGSvZTpOtlW14wmlKJLN6fZE2Qm/qxSRWOw38fdbKUmNC1znsOyH9EtbH4WVC0DGtrWOr0GE2pESO1JNbVD55mAof0yTtA/MDy5bBTJC78bu0SvJQETAnZHZEiagx8RQ+kATwhMFMkBjDEGAARgNPGAAAEgSeMAAAJAhEGAAAEgQiDAAACQIRBgCABIEIAwBAgkCEAQAgQSDCAACQIBBhAABIEIgwAAAkCEQYAAASBCIMAAAJAhEGAIAEgQgDAECCQIQBACBBIMIAAJAgEGEAAEgQiDAAACQIRBgAABIEIgwAAAkCEQYAgASBCAMAQIJAhAEAIEFSt2/fxiPvAQAgIeAJAwBAgkCEAQAgQSDCAACQIBBhAABIEIgwAAAkCEQYAAASBCIMAAAJAhEGAIAEgQgDAECCYMUcACCUN3/oP/Q7EMbtD3y/fjcZ8IQBACBB4AkDAEKxPeF/+fV76KGHHqLPf/7zeNWvP/zHr6i+OaonDBEGAIRii/B31ZaU8AALEeL/qXTVewxHAABmDgTYyzT7AyIMABiJeH7AZZr9AREGAIwEnrAXeMIAgLkyf0/4RXr60nk6f97eLtHTL+pd9AxdOv8059A8c4nOX3pGf5gP8IQBAHNlvp4wC/D5J6j3yFW6fv26tV19hHpPnDeEWPPi03T+qQxdffJhnTAf4AkDAObKXD3hZ2r0wYXH6cmH79cJzP0P05OPL9AHa6bHyx7xEz16/PpjZOScC/CEAQBzZZ6e8IsvHNLZzNv0J4O3Zejs4Qt6GKJHtfNPUebqkzRfH9gCnjAAYK7Mf0x4FBnKLLAUv6A/zhl4wgCAuTJPT/j+ty3Qs0Hq+kKP6Ny7nKGHdz35ONFT52nO9+QU8IQBAHNlrp7wwxX6vcOnWFyNu3AvPkOXnjpkDTZHfx+mJ6+eo8P3BtywmzHwhAEAc2WenjD7wvTY9auU+dQT7hS1Jz5Fj1y9To/578Dd/xhd/+gCffBnLtE8HeJp9gdiRwAAQkHsiGDEE0bsCADA3IAAe8GYMABgrhy/2RHJgjFhAMBcEc/PFh68WvGEpwXGhAEAoeDxRqPBmDAAAJxg4AkDAECCwBMGAIAEgQgDAECCQIQBACBBIMIAAJAgEGEAAEgQiDAAACQIRBgAABIEIgwAAAkCEQYAgASBCAMAQGIQ/T/ZTTZI1d6eAAAAAABJRU5ErkJggg==;" vertex="1" parent="1">
          <mxGeometry x="25.73" y="3400" width="353" height="169" as="geometry" />
        </mxCell>
        <mxCell id="bXhEvjdw58ReICiHxhLh-15" value="&lt;font style=&quot;font-size: 15px;&quot;&gt;DB接続エラー&lt;/font&gt;" style="text;html=1;align=center;verticalAlign=middle;resizable=0;points=[];autosize=1;strokeColor=none;fillColor=none;" vertex="1" parent="1">
          <mxGeometry x="30" y="3610" width="120" height="30" as="geometry" />
        </mxCell>
        <mxCell id="bXhEvjdw58ReICiHxhLh-16" value="&lt;font style=&quot;font-size: 15px;&quot;&gt;Load CSV(CSV読み込み)ボタン押下時&lt;/font&gt;" style="text;html=1;align=center;verticalAlign=middle;resizable=0;points=[];autosize=1;strokeColor=none;fillColor=none;" vertex="1" parent="1">
          <mxGeometry x="30" y="640" width="280" height="30" as="geometry" />
        </mxCell>
        <mxCell id="bXhEvjdw58ReICiHxhLh-17" value="&lt;font style=&quot;font-size: 15px;&quot;&gt;KA11LICH(被保険者)ボタン押下時&lt;/font&gt;" style="text;html=1;align=center;verticalAlign=middle;resizable=0;points=[];autosize=1;strokeColor=none;fillColor=none;" vertex="1" parent="1">
          <mxGeometry x="30" y="1230" width="250" height="30" as="geometry" />
        </mxCell>
        <mxCell id="bXhEvjdw58ReICiHxhLh-18" value="&lt;font style=&quot;font-size: 15px;&quot;&gt;KA12LICF(被扶養者)ボタン押下時&lt;/font&gt;" style="text;html=1;align=center;verticalAlign=middle;resizable=0;points=[];autosize=1;strokeColor=none;fillColor=none;" vertex="1" parent="1">
          <mxGeometry x="30" y="1910" width="250" height="30" as="geometry" />
        </mxCell>
        <mxCell id="bXhEvjdw58ReICiHxhLh-19" value="&lt;font style=&quot;font-size: 15px;&quot;&gt;KA14HFUY(被扶養者不変データ)ボタン押下時&lt;/font&gt;" style="text;html=1;align=center;verticalAlign=middle;resizable=0;points=[];autosize=1;strokeColor=none;fillColor=none;" vertex="1" parent="1">
          <mxGeometry x="30" y="2540" width="340" height="30" as="geometry" />
        </mxCell>
      </root>
    </mxGraphModel>
  </diagram>
</mxfile>
